<svg xmlns="http://www.w3.org/2000/svg" viewBox="0 0 1122 1122"><defs><style>.cls-1{fill:#fff;}.cls-2{fill:#4DB95B;}</style></defs><title>opão 2_verde</title><g id="Object"><path class="cls-1" d="M985.35,507.36c-.32-1.7-.65-3.41-1-5.1q-3.68.92-7.43,1.5a85.15,85.15,0,0,1-40.83-3.45C891,485,847.55,435.81,862.94,390.37c2.18-6.42-4.66-12.4-1.25-17.92a85.78,85.78,0,0,1-88.49-59.7,86.9,86.9,0,0,1-3.6-35.9c-15.91,16.63-17.27,27.38-39.28,30.34a91.7,91.7,0,0,1-41.85-4c-50.61-17.15-76.89-74.58-58.7-128.26a109.66,109.66,0,0,1,4.64-11.43c.07-.17.15-.34.23-.5-211.35-42.91-416.94,77-488,286.66C69.63,677,191.5,923.81,418.88,1000.86a436,436,0,0,0,100.59,21.31c195.45,17.73,384.86-99.45,450.62-293.52A432.62,432.62,0,0,0,985.35,507.36ZM695.61,635.65a144.9,144.9,0,1,1-90.73-183.74l.33.12A144.89,144.89,0,0,1,695.61,635.65Z"/><path class="cls-1" d="M989.63,534C866.42,720.38,665.37,926.83,362.71,977.34a436.69,436.69,0,0,0,156.76,44.83c195.45,17.73,384.86-99.45,450.62-293.52A432.8,432.8,0,0,0,989.63,534Z"/><path class="cls-1" d="M988.7,458.27c-2.45.62-4.93,1.11-7.43,1.51a86.74,86.74,0,0,0,8.43,3.59C989.37,461.67,989.05,460,988.7,458.27Z"/><path class="cls-2" d="M989.7,463.37a86.74,86.74,0,0,1-8.43-3.59,85.14,85.14,0,0,1-40.83-3.46c-45.08-15.27-69.14-64.49-53.75-109.93a88,88,0,0,1,8.45-17.93,85.73,85.73,0,0,1-88.49-59.69,86.8,86.8,0,0,1-3.6-35.91,100.2,100.2,0,0,1-58.69,30.35,91.66,91.66,0,0,1-41.84-4c-50.61-17.15-76.9-74.57-58.7-128.26a107.46,107.46,0,0,1,4.63-11.43c-193.91-15.61-381,101.28-446.28,293.91-77,227.38,44.83,474.16,272.21,551.21,16.4,5.56,387.7,88.2,500.05-280C997.2,610.05,1003.47,534.86,989.7,463.37ZM700,591.66a144.9,144.9,0,1,1-90.73-183.73l.32.11A144.89,144.89,0,0,1,700,591.66Z"/><path class="cls-2" d="M996.55,523.45C886.43,693.32,711.42,882.83,453.3,956.87q10.38,4.13,21.08,7.75c16.4,5.56,387.7,88.2,500.05-280C990.91,630.69,998.68,576.41,996.55,523.45Z"/><path class="cls-2" d="M609.12,204.57V162c-3.1-.08-6.2-.16-9.32-.16-209.94,0-380.12,170.18-380.12,380.11a378.45,378.45,0,0,0,78.8,231.72A378.47,378.47,0,0,1,248,584.18C248,380.61,408,214.46,609.12,204.57Z"/><rect class="cls-1" x="339.28" y="648.46" width="23.44" height="72.37" transform="translate(-235.55 186.75) rotate(-22.53)"/><rect class="cls-1" x="733.21" y="286.33" width="23.44" height="72.37" transform="translate(358.84 1036.56) rotate(-85.01)"/><rect class="cls-1" x="277.94" y="457.56" width="72.37" height="23.44" transform="translate(-201.7 239.45) rotate(-32.19)"/><rect class="cls-1" x="855.9" y="648.46" width="23.44" height="72.37" transform="translate(-100.85 1217.15) rotate(-67.08)"/><rect class="cls-1" x="490.3" y="243.73" width="23.44" height="72.37" transform="translate(14.06 583.69) rotate(-61.05)"/><rect class="cls-1" x="724.45" y="782.25" width="23.44" height="72.37" transform="translate(-361.43 734.4) rotate(-43.65)"/><rect class="cls-1" x="465.83" y="811.8" width="72.37" height="23.44" transform="matrix(0.85, -0.53, 0.53, 0.85, -361.52, 393.97)"/><rect class="cls-1" x="811.78" y="506.32" width="72.37" height="23.44" transform="translate(-145.63 531.3) rotate(-32.19)"/></g></svg>