<svg xmlns="http://www.w3.org/2000/svg" viewBox="0 0 258.6 243.6"><defs><style>.cls-1{fill:#3b3b3b;}.cls-2{fill:#4db95d;}</style></defs><title>Asset 2</title><g id="Layer_2" data-name="Layer 2"><g id="Layer_1-2" data-name="Layer 1"><path class="cls-1" d="M199.05,229.74a33.16,33.16,0,0,0,0,5.81.32.32,0,0,0,.63,0,33.15,33.15,0,0,0,0-5.81.33.33,0,0,0-.65,0Z"/><path class="cls-1" d="M192.83,229a136.16,136.16,0,0,0-5,14.26c-.11.39.44.51.59.16a138.42,138.42,0,0,0,5-14.27c.1-.35-.41-.47-.55-.15Z"/><path class="cls-1" d="M192.05,146.36A66.93,66.93,0,0,0,188.64,136c-.17-.38-.72-.09-.64.27a66.87,66.87,0,0,0,3.39,10.28c.16.39.78.25.66-.18Z"/><path class="cls-1" d="M185.9,148.94c-1.38-1.08-2.85-2-4.16-3.21s-2.43-2.53-3.7-3.74a.42.42,0,0,0-.66.51,19.5,19.5,0,0,0,7.94,7.2c.45.21,1-.4.58-.76Z"/><path class="cls-1" d="M242.53,221c4.38-3.36,11.13-8.37,11.62-14.42,0-.47-.63-.59-.86-.23-1.68,2.7-2.77,5.5-4.85,8-1.88,2.26-4,4.31-6.13,6.38-.13.14.05.41.22.28Z"/><path class="cls-1" d="M254,166.59c4.92,9,3.28,18.33,1.91,28a.39.39,0,0,0,.75.21c2.76-9.47,3.09-19.9-2-28.65a.39.39,0,0,0-.68.4Z"/><path class="cls-1" d="M213.68,144.05c10.51-1.09,19,1.85,28,7,.32.18.71-.28.41-.54-7.48-6.59-18.89-8.44-28.44-6.48,0,0,0,0,0,0Z"/><path class="cls-1" d="M181.14,164c13.24-16,35.9-18.74,53.85-9.19,4.44,2.37,9.17,5.39,11.8,9.82,2.8,4.73,3,10.91,3.38,16.24.87,11,.41,21.62-7.51,30.07a40.62,40.62,0,0,1-28.38,13.35c-9.94.37-22.54-1.18-29.68-8.73-13.71-14.49-15.62-37.8-1.52-52.64.64-.67-.37-1.69-1-1-11.45,11.53-13.13,29-6.35,43.4,3.32,7.08,8.49,14.17,16,17.18a55.75,55.75,0,0,0,27.84,3.07c16.18-2.46,31.06-15.5,32.4-32.22a81.3,81.3,0,0,0-.43-14.38c-.45-4.47-.75-9.41-2.69-13.51-3.25-6.87-11.06-11.23-17.79-14-17.65-7.2-38.42-3.37-50.58,11.79-.42.52.31,1.26.74.74Z"/><path class="cls-1" d="M180.09,165.65c3.24-3.22,6.22-6.79,10.18-9.14.67-.4.08-1.34-.6-1-4.19,1.95-7.25,6.1-10.29,9.44-.44.48.25,1.18.71.72Z"/><path class="cls-1" d="M208.92,174.16c-6.89,2.32-12.86,9.42-11.46,17.08,1.45,7.89,11.84,11.12,18.77,9.08a13.63,13.63,0,1,0-8.88-25.73c-.78.32-.5,1.54.36,1.3,6.37-1.78,12.83.12,15.71,6.41a12.09,12.09,0,0,1-7,16.35c-7,2.38-16.93-1-17.7-9.14-.61-6.49,5-12,10.52-14.23.67-.28.42-1.36-.3-1.12Z"/><path class="cls-1" d="M180.34,182.6c-.28-3.49-.44-6.59,1.48-9.65,1.56-2.49,3.71-3.92,5.74-6s3.49-4.67,5.7-6.52c3.71-3.09,7.12-1.84,11.3-1.14,4.53.76,7.31-2.55,11.83-2.65,3.44-.07,4,1.6,6.16,3.76,1.3,1.31,1.18,1.27,3,1.46.77.08.95-1.21.19-1.35-2.16-.39-3.26-3.94-5.51-4.81a13.27,13.27,0,0,0-6.28-.39c-2,.37-1.3.54-3.14,1.16a16.89,16.89,0,0,1-8.19,1c-2.25-.32-4.08-1-6.35-.34-5.13,1.49-8.22,7.64-12,11-4.77,4.34-5.78,8-5.12,14.44.07.7,1.16.71,1.11,0Z"/><path class="cls-1" d="M224.69,161.81a3.31,3.31,0,0,0,2.57-.36c1.22-.62,2-1.46,3.49-1.09a3.34,3.34,0,0,1,2.46,2.71c.58,2.63-.21,4.86,2.28,6.72.63.47,1.25-.51.79-1-1.57-1.81-1.3-3.29-1.63-5.46a5.47,5.47,0,0,0-1.64-3.25,4.34,4.34,0,0,0-3-1.18c-1.84,0-3.24,2.26-5,1.86-.7-.16-1,.9-.3,1.08Z"/><path class="cls-1" d="M235.24,169.27c2.23,2.66,5.83,2.61,7.76,6a18.39,18.39,0,0,1,.89,14.94c-2.25,5.79-8.24,5.59-6.92,12.39.18.94,1.52.51,1.4-.39-.64-4.78,4.4-6.24,6.32-9.9a18.44,18.44,0,0,0,1.78-9.78,19.13,19.13,0,0,0-2.87-9.13c-2.07-3-5-2.58-7.59-4.94a.54.54,0,0,0-.77.76Z"/><path class="cls-1" d="M179,181.93a20.79,20.79,0,0,1,.92,7.87c-.11,1.5-.56,3.11-.17,4.61a5.64,5.64,0,0,0,1.5,2.56c1.87,2.1,2.84,2.9,2.9,6,0,2-.6,4,1,5.7,1.87,2,4.86,1.35,7.13.63a.71.71,0,0,0-.38-1.37q-2.26,1-3.87-1.4-3.1-.56-2.37-2.94c-.16-1,.24-2,.09-3a5.32,5.32,0,0,0-1.51-3.11c-1.11-1.24-1.82-1.39-2.53-3.11s-.44-2.78-.34-4.55a20.28,20.28,0,0,0-1.2-8.19c-.24-.71-1.37-.42-1.14.32Z"/><path class="cls-1" d="M191.86,209.26c4.27-.29,6,6.17,9,8.29,3.79,2.7,7.58-1.73,11.36.41a.71.71,0,0,0,.72-1.23,5.16,5.16,0,0,0-3.95-.81c-1.22.18-2.32.88-3.52,1.06-3.65.51-5-1.73-6.68-3.95-1.85-2.42-3.49-5.33-6.91-4.94-.74.08-.77,1.22,0,1.17Z"/><path class="cls-1" d="M212.22,218.14c1.11,1.3,3.13,3.26,5,2.14a3.88,3.88,0,0,0,1.45-1.91,20.5,20.5,0,0,0,1.29-3.8c.14-.67-.83-1.18-1.17-.49-.65,1.3-.86,2.79-1.54,4.08A1.47,1.47,0,0,1,215,219a9.12,9.12,0,0,1-2.09-1.56.52.52,0,0,0-.73.73Z"/><path class="cls-1" d="M219.8,215.35c1.4-3.47,6.28-1.14,9.13-1.47a11.14,11.14,0,0,0,9.7-13.06c-.12-.81-1.5-.62-1.43.19.64,7.3-4.74,12.13-11.91,11.28-2.62-.31-5.81-.35-6.5,2.79a.52.52,0,0,0,1,.27Z"/><path class="cls-1" d="M198.32,166.37c-1.06-.72-2.93.16-3.47,1.21-.83,1.6,1.59,1.71,2.56,1.66s3.37-.43,3.25-1.79-3-1.31-3.84-1c-.21.08-.26.42,0,.48.66.14,1.87-.12,2.41.25,1.31.88-1.22,1.27-1.82,1.3a6.39,6.39,0,0,1-1.07,0c-.71-.06-.87-.49-.4-1,.63-.67,1.54-.55,2.34-.77a.19.19,0,0,0,0-.33Z"/><path class="cls-1" d="M230,171.61a4.92,4.92,0,0,0-2.7,3.2c-.32,1.46,1.12,1.84,2.16,1.15s2.56-2.08,2.49-3.44c-.06-1.53-1.82-1.3-2.73-.72-.26.17-.1.65.23.53a3,3,0,0,1,1.19-.33c1.07.15.53,1.12.26,1.56a5.91,5.91,0,0,1-1.9,1.92c-.56.43-.91.27-1.08-.49a3,3,0,0,1,.25-.65,7.48,7.48,0,0,1,.57-.93c.42-.59,1-1,1.43-1.58.09-.11,0-.26-.17-.22Z"/><path class="cls-1" d="M188.25,198c-.45,1.33-.21,3.81,1.13,4.63s2-1,2-2c.09-1.22-.19-3.45-1.71-3.7a1.42,1.42,0,0,0-1.47,2.13c.12.17.48.14.46-.12-.05-.47-.14-1.12.55-1.32s1.14.66,1.3,1.16a4.89,4.89,0,0,1,.12,2.46,3.06,3.06,0,0,1-.1.41l-1,.31c-.32-.09-.6-1.07-.7-1.36a10.62,10.62,0,0,1-.28-2.51.16.16,0,0,0-.32,0Z"/><path class="cls-1" d="M221,204.18c-1.13.65-2.26,2.91-1.74,4.2.62,1.53,2,.5,2.73-.32s1.95-2.65,1.17-3.71a1.85,1.85,0,0,0-1.85-.44c-.74.21-.93.84-1.2,1.48-.07.15.08.38.25.25a3.55,3.55,0,0,0,.46-.41,1.56,1.56,0,0,1,.85-.7c.51-.08.86.22,1,.88a4.3,4.3,0,0,1-1.07,2.15c-.18.24-.47.7-.76.82-1-.06-1.39-.46-1.15-1.18a5.47,5.47,0,0,1,.15-.58,12.75,12.75,0,0,1,1.27-2.29.11.11,0,0,0-.15-.15Z"/><path class="cls-1" d="M212.66,163.46a.93.93,0,0,1,.94-1c.4,0,.69.27,1.06.23a.27.27,0,0,0,.26-.34c-.17-.75-1.47-.69-2-.45a1.17,1.17,0,0,0-.61,1.76c.14.19.37,0,.35-.2Z"/><path class="cls-1" d="M215.14,168.75a1.38,1.38,0,0,0,1.62.16c.43-.21,1-.88.83-1.39a.25.25,0,0,0-.41-.11c-.3.26-.34.66-.68.91a2.08,2.08,0,0,1-1.31.31c-.06,0-.1.08-.05.12Z"/><path class="cls-1" d="M212.21,163.36a11.29,11.29,0,0,0,1.31,2.68c.58,1,1.13,2,1.78,2.88.26.36.84,0,.61-.36-.56-1-1.2-1.91-1.79-2.86a13.13,13.13,0,0,0-1.73-2.44.11.11,0,0,0-.18.1Z"/><path class="cls-1" d="M214.45,162.36c.45.9.89,1.8,1.35,2.69a8.44,8.44,0,0,0,1.31,2.33c.12.12.38.05.36-.14a7.67,7.67,0,0,0-1.1-2.53,16.39,16.39,0,0,0-1.66-2.55c-.12-.15-.34.05-.26.2Z"/><path class="cls-1" d="M185.61,174.55a15.83,15.83,0,0,0-.92,6.1.35.35,0,0,0,.69.09,18.71,18.71,0,0,0,.58-6.15.18.18,0,0,0-.35,0Z"/><path class="cls-1" d="M188.6,174.73a15,15,0,0,0-1.24,6.09.34.34,0,0,0,.67.09,32.91,32.91,0,0,0,.5-3.26,10.4,10.4,0,0,0,.18-2.89.06.06,0,0,0-.11,0Z"/><path class="cls-1" d="M186,174.84a1.23,1.23,0,0,1,.91-.65,1.41,1.41,0,0,1,.95.08c.57.35.07,1.28.31,1.79a.25.25,0,0,0,.4.05c.37-.33.33-1,.25-1.51a1.22,1.22,0,0,0-.89-1c-.79-.23-2.42.08-2.27,1.19a.18.18,0,0,0,.34.09Z"/><path class="cls-1" d="M184.84,180.29c-.62,1,.42,2,1.39,2.15a1.41,1.41,0,0,0,1.37-.57c.28-.34.69-.87.54-1.34a.31.31,0,0,0-.45-.18c-.49.33-.56,1.26-1.26,1.26a1.32,1.32,0,0,1-1-.47,6.28,6.28,0,0,1-.34-.85.15.15,0,0,0-.26,0Z"/><path class="cls-1" d="M232.89,185.33a11,11,0,0,0,.58,3.16c.3,1.18.54,2.39.91,3.55a.36.36,0,0,0,.7-.2c-.22-1.19-.58-2.37-.9-3.54a10.3,10.3,0,0,0-1.09-3,.11.11,0,0,0-.2.05Z"/><path class="cls-1" d="M235.74,185a11.07,11.07,0,0,0,.52,2.73c.28,1,.47,2.06.83,3a.35.35,0,0,0,.68-.18,24.49,24.49,0,0,0-.78-3.06,8.94,8.94,0,0,0-1-2.59.12.12,0,0,0-.22.06Z"/><path class="cls-1" d="M233.42,186a1.21,1.21,0,0,1,.29-1.08,2.09,2.09,0,0,1,1-.33c.86,0,.77.87,1.06,1.44a.28.28,0,0,0,.51-.07,1.66,1.66,0,0,0-1.74-2,2.48,2.48,0,0,0-1.51.7,1.39,1.39,0,0,0,.06,1.44c.06.14.29.07.28-.08Z"/><path class="cls-1" d="M234.37,191.19a1.45,1.45,0,0,0,.46,1.43,1.51,1.51,0,0,0,1.58.33c.83-.3,2.09-2,1.1-2.7a.29.29,0,0,0-.4.1,6.54,6.54,0,0,0-.17.86,1.89,1.89,0,0,1-.67.86c-.43.29-.82.1-1.15-.25s-.28-.52-.56-.68a.14.14,0,0,0-.19.05Z"/><path class="cls-1" d="M204,203.56a25.65,25.65,0,0,0-1.7,5.91.37.37,0,0,0,.72.2,26,26,0,0,0,1.26-6,.15.15,0,0,0-.28-.08Z"/><path class="cls-1" d="M206.48,204.22c-1.09,1.62-1.08,3.72-1.8,5.48-.17.43.46.61.7.29a8.73,8.73,0,0,0,.71-2.72,14,14,0,0,0,.67-3c0-.15-.2-.19-.28-.07Z"/><path class="cls-1" d="M204.18,204.23a1.26,1.26,0,0,1,1.5-.57c.65.38.13,1.14.16,1.68a.31.31,0,0,0,.52.22,1.67,1.67,0,0,0-.43-2.61,1.61,1.61,0,0,0-2.22,1.15.25.25,0,0,0,.47.13Z"/><path class="cls-1" d="M202.71,208.82c-.44,0-.45.52-.41.84a1.57,1.57,0,0,0,.86,1.21,1.7,1.7,0,0,0,1.49,0c.43-.18,1-.6.81-1.13a.34.34,0,0,0-.4-.23c-.52.14-.67.74-1.31.64a1,1,0,0,1-.65-.44c-.1-.14-.32-.55-.24-.66a.17.17,0,0,0-.15-.26Z"/><path class="cls-1" d="M185.93,186.81c-1.32-.11-2,1.5-1.77,2.63a1.93,1.93,0,0,0,2.75,1.36c1.13-.51,2-2,1.17-3.12-.49-.69-2.52-1.8-3-.62a.22.22,0,0,0,.1.24.89.89,0,0,0,.6.09,2.12,2.12,0,0,1,1.18.27c1,.57.79,1.6,0,2.24a1.25,1.25,0,0,1-2.06-.47,1.9,1.9,0,0,1,1.08-2.32c.18,0,.13-.29,0-.3Z"/><path class="cls-1" d="M194.17,174.14a2.26,2.26,0,0,0-1,3.27c.78,1.24,2.57,1,3.49.07a2,2,0,0,0-.22-3.18c-.76-.55-2.76-.88-2.84.5a.27.27,0,0,0,.39.23,1.72,1.72,0,0,1,1.77-.21,1.3,1.3,0,0,1,.38,2.14c-.67.67-1.93.89-2.45,0a1.93,1.93,0,0,1,.64-2.53.15.15,0,0,0-.15-.26Z"/><path class="cls-1" d="M206.44,166.1a2.08,2.08,0,1,0,2.05.82,2,2,0,0,0-3.12-.25c-.15.2.1.47.32.41.73-.22,1.5-.54,2.12.12a1.39,1.39,0,0,1-.41,2.23,1.44,1.44,0,0,1-1.91-.88,1.78,1.78,0,0,1,1.09-2.13c.19-.08,0-.37-.14-.32Z"/><path class="cls-1" d="M223.62,166.26c-1.16-.15-1.68,1.77-1.23,2.6a2,2,0,1,0,3-2.43c-.71-.51-2.92-1-2.83.48a.2.2,0,0,0,.34.14,1.56,1.56,0,0,1,2-.14,1.23,1.23,0,0,1,0,2,1.25,1.25,0,0,1-1.91-.22,1.65,1.65,0,0,1,.68-2.19.12.12,0,0,0-.06-.22Z"/><path class="cls-1" d="M239.3,178.07a1.81,1.81,0,0,0-2.14,1.77,2.11,2.11,0,0,0,2.33,2.27,2.24,2.24,0,0,0,1.72-2.53,1.94,1.94,0,0,0-2.62-1.56c-.35.18-.08.65.26.6a1.43,1.43,0,0,1,.57,2.8c-1,.28-1.77-1-1.57-1.92a1.69,1.69,0,0,1,1.45-1.18c.13,0,.12-.22,0-.25Z"/><path class="cls-1" d="M228.86,194.52c-1.15-.63-1.45,1.41-1.23,2.12a2,2,0,0,0,2.92.87,1.92,1.92,0,0,0,.17-3,2.06,2.06,0,0,0-1.63-.65,1,1,0,0,0-1,1,.33.33,0,0,0,.56.23.94.94,0,0,1,1.45,0,1.13,1.13,0,0,1,.06,1.7,1.36,1.36,0,0,1-1.82-.27c-.29-.5-.24-1.59.45-1.73a.17.17,0,0,0,0-.3Z"/><path class="cls-1" d="M228.22,205.91c-1,.11-1.12,1.32-.74,2.06a1.74,1.74,0,0,0,2.63.59A1.69,1.69,0,0,0,230,206a1.73,1.73,0,0,0-1.35-.53.93.93,0,0,0-.91.85.3.3,0,0,0,.5.21.87.87,0,0,1,1.31,0,1,1,0,0,1,.23,1.48,1.11,1.11,0,0,1-1.59,0c-.37-.4-.6-1.48.09-1.71.18-.06.16-.37,0-.34Z"/><path class="cls-1" d="M211.47,210.23a1.92,1.92,0,1,0,1.66,3.4,1.89,1.89,0,0,0,.23-2.79,2,2,0,0,0-1.57-.75c-.45.06-1,.43-.78.93a.22.22,0,0,0,.32.13c.27-.11.46-.3.78-.23a1.64,1.64,0,0,1,.87.71,1.13,1.13,0,0,1-.48,1.5,1.24,1.24,0,0,1-1.58-.63,1.59,1.59,0,0,1,.69-1.93c.17-.11.06-.42-.14-.34Z"/><path class="cls-1" d="M194.49,204.2a.59.59,0,0,0-.41,1.06c.51.39,1.14-.2,1.21-.72a.85.85,0,0,0-1.08-.93.76.76,0,0,0-.3,1.24.75.75,0,0,0,1.26-.5.78.78,0,0,0-1.1-.82.67.67,0,0,0,.23,1.26.63.63,0,0,0,.41-1.12c-.65-.47-1.22.48-1,1.05.35.82,1.5.41,1.64-.33a.31.31,0,0,0-.45-.34c-.16.07-.28.19-.44.27s-.17.05.07-.12c.27.27.24.42-.07.44a.22.22,0,0,0,0-.44Z"/><path class="cls-1" d="M191.52,188a.54.54,0,0,0,.49.81,1,1,0,0,0,.81-1c-.11-.55-.9-.47-1.24-.21a.81.81,0,0,0,0,1.3.74.74,0,0,0,1.14-.63.76.76,0,1,0-1.19.65.74.74,0,0,0,1.13-.66.71.71,0,0,0-1.29-.33c-.36.54.31,1.32.84.82a.28.28,0,0,0,0-.38.34.34,0,0,1-.1-.38l.11,0c0,.2-.17.26-.39.2a.2.2,0,0,0-.35-.21Z"/><path class="cls-1" d="M190.89,181.08c.12.42.53,1,1,.58s0-1-.4-1.14a.72.72,0,0,0-.9.82.75.75,0,0,0,1.27.34.74.74,0,1,0-1.26-.44.74.74,0,0,0,1.26.44.77.77,0,0,0-.35-1.24.44.44,0,0,0-.41.11c-.41.43-.53,1.39.18,1.59a.36.36,0,0,0,.45-.34c0-.22-.21-.47,0-.66l-.41.11c.1-.1.17-.09.22,0a2.33,2.33,0,0,0-.14-.33c-.11-.27-.54-.17-.45.13Z"/><path class="cls-1" d="M197.92,161.58c-.74.14-.52,1.26,0,1.53a1,1,0,0,0,1.44-.87,1.12,1.12,0,0,0-1.5-1.07,1.25,1.25,0,0,0-.66,1.77,1.33,1.33,0,0,0,1.9.45,1.42,1.42,0,0,0,.31-2,1.05,1.05,0,0,0-1.85.07c-.28.63-.19,1.78.66,1.86a1.1,1.1,0,0,0,.64-1.92.85.85,0,0,0-1.05.22,1.06,1.06,0,0,0,.09,1.35c.28.33.79,0,.8-.33,0-.08,0-.23,0-.3l-.51-.21v.18c.53.23.14-.35.32-.39s.26.62-.06.71a.3.3,0,0,1-.27-.53c.22-.14.51.16.28.31s-.19-.3-.17-.43a.3.3,0,0,0-.36-.36Z"/><path class="cls-1" d="M227.4,179.71a.64.64,0,0,0-.62.8.88.88,0,0,0,1.11.51,1.16,1.16,0,0,0,.92-1.06.9.9,0,0,0-.9-.92c-1,0-2.18,1.54-.95,2.09,1,.45,2.32-1.24,1.44-2s-2.28.6-1.84,1.59a1.08,1.08,0,0,0,1.33.63,1.6,1.6,0,0,0,.94-1.24,1,1,0,0,0-.9-1.15,1.18,1.18,0,0,0-1.13,1,1.27,1.27,0,0,0,.45,1.33,1,1,0,0,0,1.41-.69,1.54,1.54,0,0,0-.38-1.64,1.06,1.06,0,0,0-1.56.69c-.16.56-.11,1.39.54,1.6a1,1,0,0,0,1.16-1,.41.41,0,0,0-.68-.28s-.17.11-.17.16l.24.2v-.17l0-.18-.26-.08a2.08,2.08,0,0,0,0,.25l0,.18.36,0a1.77,1.77,0,0,0,0-.23c-.19-.51-.23.17-.37.15s.25-.34.24-.32.09,0-.06-.11-.14-.12-.16,0-.17.27-.17.28-.09.07,0,0a.13.13,0,0,0,.12-.08c.1-.06.16-.17.28-.2s.19-.06.14.1-.41.35-.53.36a.35.35,0,0,0,0-.7Z"/><path class="cls-1" d="M229.5,164.85a1,1,0,0,0,.5,1.53.76.76,0,0,0,.87-1.16c-.43-.63-1.39-.92-1.79-.11-.31.61-.16,1.6.59,1.77a1.29,1.29,0,0,0,1.47-1.25,1.12,1.12,0,0,0-1.43-1.16,1.42,1.42,0,0,0-.54,2.08,1,1,0,0,0,1.77-.46c.22-.79-.32-1.82-1.25-1.57a1.27,1.27,0,0,0-.86.93,1.33,1.33,0,0,0,.52,1.37.32.32,0,0,0,.54-.22c0-.23,0-.43,0-.66a.54.54,0,0,1,0-.31c.09-.1.1-.11,0,0a.49.49,0,0,1-.07.33s.15-.71.27-.44-.44.64-.26.15c.11-.3.28.23.34,0a.36.36,0,0,1-.21-.24.37.37,0,0,1,.05-.29c.13-.34-.38-.5-.56-.23Z"/><path class="cls-1" d="M230.65,189.54c-.77-.52-1.25.62-1,1.23.44.89,1.48.34,1.84-.32a1.11,1.11,0,0,0-1-1.64,1.67,1.67,0,0,0-1.61,1.75,1.06,1.06,0,0,0,1.78.8c.67-.55,1.17-1.85.36-2.48s-1.73.34-1.71,1.25a1.08,1.08,0,0,0,1.85.8c.63-.74.3-2.46-.89-2.28s-1,2-.32,2.65a.41.41,0,0,0,.67-.18,3.33,3.33,0,0,0,0-.77,1.74,1.74,0,0,0,0-.51v-.12l-.41.1a1.6,1.6,0,0,1,0,.31c.15.16.24-.11.24-.2s.08-.22-.07-.18-.19,0-.15.22a1.18,1.18,0,0,1-.19.37c0,.06-.11.19-.19.21.1,0,0-.09.07-.2a.72.72,0,0,1,.36-.6c.25-.09.44.06.36.33,0,.06-.22.38-.31.36s-.12-.47,0-.43c.29.11.43-.32.2-.47Z"/><path class="cls-1" d="M242.11,186.68a.89.89,0,0,0,0,1.52c.66.34,1.13-.26,1.14-.88a1.13,1.13,0,0,0-1.25-1.24,1.38,1.38,0,0,0-1.09,1.63,1,1,0,0,0,1.55.75,1.74,1.74,0,0,0,.64-1.88,1,1,0,0,0-1.72-.24,1.27,1.27,0,0,0,.2,1.9.9.9,0,0,0,1.26-1.18c-.47-.83-1.84-.19-1.34.65a.36.36,0,0,0,.61,0c.35-.45-.07-.27,0-.5a.26.26,0,0,1,.11-.21l-.1-.06c0,.08,0,.21,0,.3s-.21.34-.17.37,0-.17,0-.24.09-.35.26-.37.22.16.25.31a2.44,2.44,0,0,1,0,.27c-.15-.21-.13-.38.05-.51s-.12-.62-.39-.39Z"/><path class="cls-1" d="M214.74,205.29a.59.59,0,0,0-.71-.42c-.42.09-.57.55-.61.93a1,1,0,0,0,1.63.89,1.5,1.5,0,0,0-.25-2.33c-.9-.38-1.77.57-1.92,1.39a1.11,1.11,0,0,0,1.71,1.17c.79-.45,1.4-1.73.43-2.34a1.32,1.32,0,0,0-1.93,1.25,1.12,1.12,0,0,0,2,.71c.68-.8.48-2.52-.86-2.3a1.52,1.52,0,0,0-.69,2.55.42.42,0,0,0,.7-.19,3.31,3.31,0,0,0,0-.89,1.67,1.67,0,0,1,.06-.26.16.16,0,0,1,.11,0l-.12,0a1.9,1.9,0,0,0-.09.36q-.14.09,0,.09c.06,0,.08,0,.05,0s.07-.18.08-.2,0,0,0,.08-.38.47-.43.34.2-.54.33-.63c.28-.21.29.13.24.36s-.07.38-.21.2v-.14c0-.13,0-.21-.16-.24.16.37.75.11.64-.27Z"/><path class="cls-1" d="M218.16,210.76a.6.6,0,0,0-.43,1.11.69.69,0,0,0,.67-1.19.78.78,0,0,0-1.15,1,.68.68,0,0,0,.9.37.81.81,0,0,0,.3-1,.49.49,0,0,0-1,.13,1.07,1.07,0,0,0,.16.7.37.37,0,0,0,.63,0,1.14,1.14,0,0,0,.19-.7l-.91.25v0l.28-.21.24.11c.31,0,.35-.45.07-.53Z"/><path class="cls-1" d="M232.05,201.47c-1,.81,0,2.53,1.16,1.85a1.09,1.09,0,0,0,.34-1.5,1.29,1.29,0,0,0-1.64-.32,1.25,1.25,0,0,0-.65,1.54,1.17,1.17,0,0,0,1.68.56,1.94,1.94,0,0,0,.88-1.8.9.9,0,0,0-1.4-.74c-.59.36-1.14,1.2-.72,1.87s1.53.66,1.46-.22a.45.45,0,0,0-.31-.41l-.15-.08a.16.16,0,0,0,.3-.06c-.28-.34-.41-.38-.4-.13l0,.16c0,.06-.11.4-.22.38s.36-.45.43-.16-.18.18-.27.06,0-.32.11-.44c.39-.35-.17-.88-.56-.56Z"/><path class="cls-1" d="M196.42,196.14a1.11,1.11,0,0,0-1.28,1.57,1.46,1.46,0,0,0,2.24.52,1.44,1.44,0,0,0-.23-2.33,1.56,1.56,0,0,0-2.21,1.1c-.26.84.06,2,1.12,2a1.86,1.86,0,0,0,1.71-2.08,1.18,1.18,0,0,0-2.2-.38c-.51.83-.32,2.25.91,2.15s1.74-1.95.53-2.41a1,1,0,0,0-1.36.58.92.92,0,0,0,.59,1.28c.34.07.79-.23.64-.63a1.67,1.67,0,0,1-.08-.2c0-.09-.06-.09-.11,0s-.13.11-.2,0a.3.3,0,0,1-.08.2l.05.07a.64.64,0,0,1,0-.2s.09-.29.16-.29a1.82,1.82,0,0,1-.05.35.86.86,0,0,1-.34.39c-.27.16-.34,0-.32-.29a.91.91,0,0,1,.34-.7.41.41,0,0,1,.61.39.47.47,0,0,1-.59.41c-.43-.1-.63-1-.05-.87a.32.32,0,0,0,.17-.61Z"/><path class="cls-1" d="M247.83,194.6c-.9,3.68-1.54,7-3.62,10.24-1.73,2.72-4,5-5.82,7.64-.22.33.26.66.53.41a27.89,27.89,0,0,0,9-18.28c0-.06-.1-.07-.11,0Z"/><path class="cls-1" d="M222.81,221a26.11,26.11,0,0,0,6.2-2.12c1.49-.7,3.43-1.39,4.12-3,.11-.25-.12-.57-.4-.4-3.25,2-6.63,3.5-10.06,5.17-.21.1,0,.38.14.34Z"/><path class="cls-1" d="M237.05,160.3c2.81,1.67,5.44,3.16,7,6.18,1.35,2.62,1.89,5.59,3.28,8.17a.44.44,0,0,0,.81-.22,22.16,22.16,0,0,0-3.81-9.65c-1.72-2.49-4.35-3.79-7.15-4.76-.17-.06-.27.19-.12.28Z"/><path class="cls-1" d="M213.05,152.73a43.79,43.79,0,0,1,8.09.39c2.39.42,4.6,1.32,6.93,2a.38.38,0,0,0,.29-.69c-4.28-2.68-10.52-3.23-15.36-2a.19.19,0,0,0,.05.37Z"/><path class="cls-1" d="M187.45,213.63a9,9,0,0,0,3.54,3.49c1.5,1,3.34,2.36,5.21,2.34a.4.4,0,0,0,.2-.74c-2.65-1.78-6.73-2.46-8.61-5.29a.2.2,0,0,0-.34.2Z"/><path class="cls-1" d="M195.9,187.67a21.26,21.26,0,0,1,2.17-7.22c1.27-2.32,3.16-3.85,4.89-5.76a.32.32,0,0,0-.38-.5c-4.67,2-7.44,8.61-7,13.44,0,.17.29.24.32,0Z"/><path class="cls-1" d="M205.94,173.49a12.91,12.91,0,0,1,3.76-1.61c1.24-.28,2.46-.12,3.69-.33.38-.07.28-.57,0-.68-2.45-1-5.94.59-7.65,2.36a.17.17,0,0,0,.2.26Z"/><path class="cls-1" d="M199.68,197.94a8.62,8.62,0,0,0,2,2.42c.67.51,1.81,1.17,2.62.64a.3.3,0,0,0,.06-.48c-.59-.52-1.51-.59-2.2-1a19.44,19.44,0,0,1-2.29-1.77c-.12-.09-.31,0-.22.17Z"/><path class="cls-1" d="M85.54,219.39h-.12c-7.83-1.17-14.35-3.7-19.38-7.53-1.73-.89-6.29-5.39-8.61-12.71l0-.1a27.45,27.45,0,0,1-.83-3,28.51,28.51,0,0,1-.38-3.27,21.24,21.24,0,0,0-.43-2.7,15.74,15.74,0,0,1-.44-4.73,69,69,0,0,1,2.42-11.64c.36-1.22.76-2.42,1.16-3.63.22-.65.38-1.32.55-2s.36-1.47.6-2.19a197.12,197.12,0,0,1,13.53-31.8c.45-3,8.49-14.83,8.58-15,6-7.71,8-9,14.46-12.85a34.69,34.69,0,0,1,8.31-3.07c5.73-1.38,11.09.41,15.82,2a.82.82,0,0,1,.51,1,.81.81,0,0,1-1,.51c-4.53-1.51-9.65-3.22-14.93-2a32.52,32.52,0,0,0-7.87,2.9c-6.42,3.77-8.16,4.95-14,12.45-1.22,1.56-8.15,12.46-8.28,14.07a.85.85,0,0,1-.08.52,193.47,193.47,0,0,0-13.5,31.67c-.22.66-.38,1.34-.56,2.06s-.35,1.45-.58,2.17c-.4,1.19-.79,2.38-1.16,3.58a66.93,66.93,0,0,0-2.35,11.37,13.75,13.75,0,0,0,.42,4.23,25.36,25.36,0,0,1,.45,2.88,25.13,25.13,0,0,0,.36,3.09,24,24,0,0,0,.78,2.83l0,.09c2.36,7.43,6.86,11.24,7.73,11.77a.73.73,0,0,1,.31.14c4.81,3.67,11.08,6.1,18.65,7.22a.8.8,0,0,1-.12,1.6Z"/><path class="cls-1" d="M85.06,219h0c-1.29,0-8.75-3.34-12.61-7.24-2.13-2.16-3.27-5.45-4.29-8.35-.3-.86-.59-1.7-.9-2.48-1.53-3.89-1.31-8.19-1.11-12,0-1,.16-1.92.27-2.8s.21-1.6.26-2.49a53.29,53.29,0,0,1,4.72-17.12,21.33,21.33,0,0,0,2.45-6.08c.15-.64.31-1.31.59-2.16,3.19-9.81,7.2-21.07,14.37-30.53,6.78-9,11.69-14.23,18.2-16.34A51,51,0,0,1,120,109a.81.81,0,0,1,.12,1.61A49.35,49.35,0,0,0,107.5,113c-5.43,1.75-9.83,5.73-17.42,15.77-7,9.27-11,20.38-14.11,30.06-.26.79-.42,1.43-.57,2a22.56,22.56,0,0,1-2.59,6.47c-.84,1.55-4.1,9.63-4.53,16.45,0,.94-.16,1.78-.26,2.6s-.22,1.71-.27,2.67c-.19,3.63-.4,7.75,1,11.32.32.8.62,1.66.93,2.54,1,2.87,2,5.84,3.91,7.74A32.68,32.68,0,0,0,85,217.4a.77.77,0,0,1,.71.22.81.81,0,0,1,0,1.14A.9.9,0,0,1,85.06,219Z"/><path class="cls-1" d="M103.83,224.53c1.29,0,2.57,0,3.85.08a.8.8,0,0,0-.54-1.49c-3.35.6-9.4-.14-13.52-1.67-2.1-.66-6.19-2.43-6.9-3.19a.55.55,0,0,0-.17-.14,24.61,24.61,0,0,1-10.26-12.33,27.56,27.56,0,0,1-1.74-17.16c1.27-5.08,3.6-9.9,5.84-14.57,1.31-2.7,2.63-5.34,3.91-7.89,2-4.08,4.16-8.3,6.16-12.73,3.39-7.52,6.9-15.29,11.7-22.14,5.74-8.18,11.45-13.26,18-16a.81.81,0,0,0-.62-1.49c-6.82,2.84-12.76,8.1-18.68,16.54-4.89,7-8.43,14.82-11.85,22.41-2,4.39-4,8.41-6.13,12.67-1.29,2.55-2.61,5.2-3.92,7.91-2.28,4.74-4.64,9.64-6,14.87a29.28,29.28,0,0,0,1.82,18.19,26.16,26.16,0,0,0,10.82,13c1.27,1.21,5.91,3,7.48,3.54a35.1,35.1,0,0,0,10.72,2C103.82,224.68,103.83,224.53,103.83,224.53Z"/><path class="cls-1" d="M113.29,224a.8.8,0,0,1-.79-.62.81.81,0,0,1,.6-1c4.46-1,8.2-4.25,11.49-7.08,2-1.7,4.24-3.64,5.1-6.22a.81.81,0,0,1,1-.51.8.8,0,0,1,.51,1c-1,3-3.54,5.19-5.58,6.94-3.43,3-7.33,6.29-12.17,7.42A.55.55,0,0,1,113.29,224Z"/><path class="cls-1" d="M151.13,193.62a2.15,2.15,0,0,1-1.53-.66,1.57,1.57,0,0,1-.36-1.66.81.81,0,0,1,1-.46.8.8,0,0,1,.46,1,.74.74,0,0,0,.45.11c.45-.14.8-.72,1.1-1.25,1.19-2.17,2.3-4.41,3.3-6.66,3.87-8.77,5.22-16.49,4.24-24.29s-3.51-14.07-7.31-17.92l-.05-.06a3.82,3.82,0,0,1-1-4.93c.64-1.83,1.09-3.65,1.53-5.4.38-1.52.77-3.08,1.28-4.67-2.07-.28-7.66-.89-12.3-1.39-7.6-.82-11-1.19-12.59-1.47a77.52,77.52,0,0,1-3.76,11.71,10.3,10.3,0,0,1-1.7,3,11.11,11.11,0,0,1-3.1,2.22l-.31.17a47.12,47.12,0,0,0-20.64,23.33c-.31.75-.87,2.15-2.21,2.45a3.43,3.43,0,0,1-1.67-.15l-6.59-1.81a14.42,14.42,0,0,1-4.49-2.51.81.81,0,0,1,1.2-1.09,13.73,13.73,0,0,0,3.72,2.05l6.59,1.8a2.11,2.11,0,0,0,.89.13c.45-.1.78-.77,1.06-1.47a48.73,48.73,0,0,1,21.35-24.14l.32-.17a9.67,9.67,0,0,0,2.67-1.88,8.89,8.89,0,0,0,1.41-2.56A75.79,75.79,0,0,0,128,122.9a.8.8,0,0,1,1.16-.59c1,.21,7.65.92,13,1.5,13.79,1.5,13.79,1.5,14,2.19a.82.82,0,0,1,0,.49c-.63,1.82-1.08,3.63-1.52,5.38s-.91,3.64-1.57,5.54a3.4,3.4,0,0,0-.31,2.06,3.51,3.51,0,0,0,.92,1.2l0,.06c4.05,4.11,6.74,10.63,7.77,18.86s-.38,16.1-4.38,25.14c-1,2.3-2.14,4.58-3.36,6.79a3.69,3.69,0,0,1-2,2A1.76,1.76,0,0,1,151.13,193.62Z"/><path class="cls-1" d="M118.25,212.71a11.82,11.82,0,0,1-2.36-.2,12.76,12.76,0,0,1-3.56-1.4,26.94,26.94,0,0,1-10-9.89c-.35-.3-.6-1.32-1.69-5.73-.46-1.83-1.07-4.31-1.3-4.93a.93.93,0,0,1-.18-.39,44.53,44.53,0,0,1,6-30.11c6.62-11,15.63-18.66,25.36-21.52a19.06,19.06,0,0,1,12.37.9c4.44,1.77,8.1,4.91,11.54,9.88a22.21,22.21,0,0,1,2.64,6.58,13.67,13.67,0,0,1,.64,4.23,44.75,44.75,0,0,1-.75,14.28.82.82,0,0,1,.25.76c-2.72,13.58-12.14,26-26.52,35.06-3.31,2.08-7.46,2.27-10.81,2.43C119.36,212.68,118.81,212.71,118.25,212.71Zm-14.76-12.66a.44.44,0,0,1,.08.11,25.35,25.35,0,0,0,9.54,9.53,11.06,11.06,0,0,0,3.1,1.24,15.59,15.59,0,0,0,3.62.12c3.32-.16,7.07-.33,10-2.19,13.88-8.72,23-20.67,25.73-33.67a.81.81,0,0,1-.26-.8,42.8,42.8,0,0,0,.79-14.2.8.8,0,0,1,0-.34c0-1-1-6.73-3-9.61-3.25-4.69-6.68-7.65-10.81-9.31a17.54,17.54,0,0,0-11.31-.85c-9.34,2.76-18,10.15-24.44,20.81a43,43,0,0,0-5.85,28.78,41.71,41.71,0,0,1,1.48,5.44C102.65,197,103.26,199.43,103.49,200.05Z"/><path class="cls-1" d="M119.77,115.57h-.1a.82.82,0,0,1-.7-.91,141.46,141.46,0,0,0,.63-30.23.81.81,0,0,1,1.61-.14,143.42,143.42,0,0,1-.64,30.58A.81.81,0,0,1,119.77,115.57Z"/><path class="cls-1" d="M128.73,107.88h0a.82.82,0,0,1-.76-.86,179.34,179.34,0,0,0-.21-24.09.81.81,0,0,1,1.61-.12,184.31,184.31,0,0,1,.22,24.31A.81.81,0,0,1,128.73,107.88Z"/><path class="cls-1" d="M155.38,127.22h0a.8.8,0,0,1-.76-.85,37.73,37.73,0,0,1,.81-5.06c.61-3,1.25-6.08.46-8.72a27.35,27.35,0,0,1-.77-8.12l.08-16.08a.82.82,0,0,1,.81-.8h0a.8.8,0,0,1,.8.81l-.09,16.08a26.13,26.13,0,0,0,.71,7.65c.91,3,.23,6.32-.43,9.51a35.81,35.81,0,0,0-.78,4.83A.81.81,0,0,1,155.38,127.22Z"/><path class="cls-1" d="M128.59,123.59a.8.8,0,0,1-.8-.73,84.69,84.69,0,0,1,.06-16.08.81.81,0,0,1,.89-.72.8.8,0,0,1,.72.88,83.09,83.09,0,0,0-.07,15.77.79.79,0,0,1-.72.88Z"/><path class="cls-1" d="M156.45,112.76c-4.61,0-9.35-1-13.94-2a67.41,67.41,0,0,0-13.27-2,.81.81,0,0,1,0-1.61h0a67.56,67.56,0,0,1,13.6,2c4.55,1,9.24,2,13.72,2h0a.81.81,0,0,1,.81.8.82.82,0,0,1-.8.82Z"/><path class="cls-1" d="M120.21,110.25a.81.81,0,0,1-.21-1.59,57.68,57.68,0,0,1,8.77-1.64.81.81,0,1,1,.17,1.61,56.2,56.2,0,0,0-8.53,1.59Z"/><path class="cls-1" d="M155.92,88.29a.82.82,0,0,1-.71-.42c-.37-.69-1.38-1-2.3-1.19a141.89,141.89,0,0,0-23.55-3.39,22.21,22.21,0,0,0-9,1.34.82.82,0,0,1-1-.48.8.8,0,0,1,.48-1,23.65,23.65,0,0,1,9.65-1.44,143.07,143.07,0,0,1,23.81,3.43c.92.21,2.61.6,3.36,2a.8.8,0,0,1-.33,1.09A.75.75,0,0,1,155.92,88.29Z"/><path class="cls-1" d="M107.15,209.26a17.44,17.44,0,0,1-3.59-.28,21.34,21.34,0,0,1-2.5-.73,27.9,27.9,0,0,1-6.52-2.8,21.9,21.9,0,0,1-6.71-7.67c-2.61-4.95-4.28-10.31-5.58-17.94a38.06,38.06,0,0,1,.22-12.93.8.8,0,1,1,1.57.35,36.22,36.22,0,0,0-.2,12.31c1.27,7.45,2.89,12.67,5.42,17.46a20.21,20.21,0,0,0,6.16,7.06,26.83,26.83,0,0,0,6.15,2.63,19.59,19.59,0,0,0,2.31.68,21.27,21.27,0,0,0,4.38.24.83.83,0,0,1,.82.79.81.81,0,0,1-.8.82Z"/><path class="cls-1" d="M107,224.5l.7.11c1.76,0,3.51.13,5.25.23a4.26,4.26,0,0,0,1.78-2.79c.92-3.42,1.8-6.9,2.61-10.34a.81.81,0,0,0-1.57-.37c-.81,3.43-1.68,6.89-2.6,10.29-.21.79-.51,1.63-1.06,1.84a2.57,2.57,0,0,1-1.17,0l-3-.45a44,44,0,0,1,2.07-13.71.8.8,0,1,0-1.53-.49,45.72,45.72,0,0,0-2.15,14.91A.8.8,0,0,0,107,224.5Z"/><path class="cls-1" d="M119.7,84.34a.8.8,0,0,1-.8-.72,87.84,87.84,0,0,0-2.55-12c-.45-1.72-.92-3.49-1.32-5.22a38.36,38.36,0,0,0-4.16-10.79.82.82,0,0,1-.07-.65.84.84,0,0,1,.44-.5l11.13-4.94a1.11,1.11,0,0,0,.23-.12.82.82,0,0,1,.76-.69.81.81,0,0,1,.84.77c0,.44-.16,1.06-1.17,1.51l-10.32,4.58a41,41,0,0,1,3.89,10.46c.4,1.71.86,3.48,1.31,5.19a87.64,87.64,0,0,1,2.59,12.17.81.81,0,0,1-.71.89Z"/><path class="cls-1" d="M120.14,84.39a.85.85,0,0,1-.66-.34.83.83,0,0,1,0-1A4.65,4.65,0,0,1,122,81.5a.8.8,0,0,1,.59.08,43,43,0,0,0,4.53-3.11l.05,0a69.5,69.5,0,0,1-.77-10.34c0-1.37-.07-2.74-.13-4.11-.21-4.18-.77-9.54-3.36-14a.8.8,0,0,1,.28-1.1.81.81,0,0,1,1.11.28c2.77,4.72,3.37,10.33,3.58,14.69.07,1.38.1,2.76.13,4.15a66.76,66.76,0,0,0,.83,10.57.79.79,0,0,1-.31.8l-.44.33a28.85,28.85,0,0,1-7.66,4.58A.86.86,0,0,1,120.14,84.39Z"/><path class="cls-1" d="M154.85,86.54a.81.81,0,0,1-.16-1.6,1.61,1.61,0,0,0,.6-.18h0a1.09,1.09,0,0,0,0-.44c-.19-9.19-.38-18.69-2.22-27.84a.81.81,0,1,1,1.58-.32c1.87,9.29,2.06,18.87,2.25,28.13,0,1.53-.72,2-1.93,2.23Z"/><path class="cls-1" d="M155.91,84.55a.86.86,0,0,1-.27,0,88.79,88.79,0,0,0-27.5-4.86.81.81,0,0,1-.79-.82.8.8,0,0,1,.82-.8,90.54,90.54,0,0,1,28,5,.81.81,0,0,1-.26,1.57Z"/><path class="cls-1" d="M153.83,56.77a.63.63,0,0,1-.27,0,49.27,49.27,0,0,0-7.75-1.82L123,50.83a.81.81,0,1,1,.28-1.59l22.83,4.08a49.38,49.38,0,0,1,8,1.89.82.82,0,0,1,.5,1A.81.81,0,0,1,153.83,56.77Z"/><path class="cls-1" d="M21,95.62l-.19,0a17.12,17.12,0,0,1-4.52-2.07c-.66-.39-1.34-.79-2.05-1.14a.8.8,0,0,1-.44-.81,146.13,146.13,0,0,1,5.12-26,.8.8,0,0,1,1-.55c1.5.43,2.7.72,3.87,1s2.4.58,3.94,1a.81.81,0,0,1,.55,1,.78.78,0,0,1-.38.47c-.68,2.85-1.65,5.71-2.59,8.49-1.88,5.56-3.83,11.32-3.54,17l0,.67a.77.77,0,0,1-.29.66A.8.8,0,0,1,21,95.62ZM15.42,91.2c.57.3,1.12.62,1.65.94a20.71,20.71,0,0,0,3,1.56c-.18-5.86,1.76-11.6,3.64-17.16.91-2.68,1.84-5.45,2.51-8.17-1.06-.29-2-.51-2.88-.73s-2-.47-3.16-.8A144.36,144.36,0,0,0,15.42,91.2Z"/><path class="cls-1" d="M48.27,99.16a.82.82,0,0,1-.26,0,.81.81,0,0,1-.51-1c1.4-4.22,2.87-8.48,4.29-12.61,1.31-3.82,2.67-7.76,4-11.66-3.16-.47-5.69-1.1-8.36-1.75l-2.5-.61c-1.68-.4-3.44-.65-5.14-.89L27.54,68.85a.81.81,0,0,1,.23-1.6L40,69c1.73.25,3.53.5,5.28.92l2.52.61a78.54,78.54,0,0,0,9.15,1.85.79.79,0,0,1,.57.38.81.81,0,0,1,.09.68c-1.4,4.21-2.87,8.47-4.29,12.59S50.43,94.4,49,98.61A.8.8,0,0,1,48.27,99.16Z"/><path class="cls-1" d="M48.64,99.63l-.15,0c-1.21-.22-9.9-2-11-2.25a45.66,45.66,0,0,0-7.32-1.06l-9.07-.44a.81.81,0,1,1,.08-1.61l9.07.44a47,47,0,0,1,7.61,1.1c1.1.26,9.72,2,10.92,2.23a.81.81,0,0,1,.65.94A.82.82,0,0,1,48.64,99.63Z"/><path class="cls-1" d="M15.15,95.88a.8.8,0,0,1-.12-1.6l4.54-.67a.81.81,0,0,1,.92.68.8.8,0,0,1-.68.91l-4.54.68Z"/><path class="cls-1" d="M11.85,131.78a.81.81,0,0,1-.8-.79c-.14-6.24.79-12.5,1.68-18.55a112.11,112.11,0,0,0,1.68-17.66.82.82,0,0,1,.8-.82h0a.82.82,0,0,1,.81.8,114.73,114.73,0,0,1-1.7,17.92A109.47,109.47,0,0,0,12.66,131a.81.81,0,0,1-.79.83Z"/><path class="cls-1" d="M16.81,127h-.12A.8.8,0,0,1,16,126l4.51-30.75a.81.81,0,0,1,.92-.68.82.82,0,0,1,.68.92l-4.51,30.74A.81.81,0,0,1,16.81,127Z"/><path class="cls-1" d="M46.19,111.93H46.1a.81.81,0,0,1-.71-.89l.12-1.16a107.71,107.71,0,0,1,1.64-11.45.82.82,0,0,1,1-.62.8.8,0,0,1,.62,1,105.64,105.64,0,0,0-1.62,11.28L47,111.21A.8.8,0,0,1,46.19,111.93Z"/><path class="cls-1" d="M53.09,72.74a.71.71,0,0,1-.28-.06.81.81,0,0,1-.48-1c3.08-8.19,6.26-14.16,11.6-24a55,55,0,0,1,11.78-15,36.79,36.79,0,0,1,11.82-7.42,21.19,21.19,0,0,1,14-.43.8.8,0,1,1-.53,1.52,19.6,19.6,0,0,0-12.92.43,35.11,35.11,0,0,0-11.3,7.11,52.88,52.88,0,0,0-11.44,14.6c-5.3,9.78-8.45,15.71-11.49,23.8A.83.83,0,0,1,53.09,72.74Z"/><path class="cls-1" d="M30.86,68.86a.9.9,0,0,1-.6-.23A1.19,1.19,0,0,1,30,67.32c1.48-3.89,2.9-7.72,4.33-11.57l2.06-5.55c5.05-13.52,15.64-26.06,27-31.93h0a44.67,44.67,0,0,1,4.81-1.64c1.69-.53,4-1.25,4.44-1.46a.87.87,0,0,1,.29-.14,31.25,31.25,0,0,1,16.55,0C95.19,16.72,99.89,20.7,102,25.63a.8.8,0,0,1-.43,1.06.79.79,0,0,1-1-.42A18.08,18.08,0,0,0,89,16.53a29.48,29.48,0,0,0-15.61,0,48.69,48.69,0,0,1-4.71,1.59c-1.68.53-4,1.25-4.44,1.46l-.11.07c-11,5.7-21.28,17.89-26.19,31.06-.7,1.86-1.38,3.71-2.07,5.55C34.43,60.07,33,63.81,31.6,67.6a.08.08,0,0,0,0,0,.81.81,0,0,1-.32,1.1A.88.88,0,0,1,30.86,68.86Z"/><path class="cls-1" d="M27.86,69.09h-.07a.82.82,0,0,1-.74-.87A25.29,25.29,0,0,1,28.55,61c.89-2.38,1.74-4.88,2.56-7.3C34,45.12,37,36.27,42.64,29.29l.9-1.13c1.82-2.3,4.3-5.45,6.24-7a38.42,38.42,0,0,1,6.4-3.83c1-.51,2-1,3.08-1.51s1.94-.94,2.87-1.41a18.81,18.81,0,0,1,3.65-1.57c1.14-.43,2.67-1,3.1-1.24a.84.84,0,0,1,.53-.26c2.66-.21,5.33-.4,7.94-.56a36.61,36.61,0,0,1,8.34.16,20.21,20.21,0,0,1,15.78,14.43.79.79,0,0,1-.57,1,.81.81,0,0,1-1-.58A18.55,18.55,0,0,0,85.42,12.55a35,35,0,0,0-8-.13c-2.52.15-5.1.33-7.66.53a28.55,28.55,0,0,1-3.44,1.42c-1.13.43-2.66,1-3.09,1.24a.76.76,0,0,1-.23.17c-1,.51-2,1-3.07,1.51s-2.07,1-3,1.5a36.2,36.2,0,0,0-6.14,3.66,46.82,46.82,0,0,0-6,6.71L43.9,30.3c-5.42,6.76-8.39,15.47-11.26,23.89-.83,2.43-1.68,4.94-2.58,7.35a23.63,23.63,0,0,0-1.4,6.81A.81.81,0,0,1,27.86,69.09Z"/><path class="cls-1" d="M22.85,67.22h-.09a.81.81,0,0,1-.71-.89,74.42,74.42,0,0,1,6.07-21.54c.2-.43.8-1.94,1.44-3.54.86-2.15,1.75-4.37,2.06-5C42.63,15.12,53.94,5.12,71.93.61c6.22-1.56,19.86.33,21.4.55a27,27,0,0,1,8.19,3.4c2.12,1.36,6.44,5.79,8.89,8.83a38.56,38.56,0,0,1,4.82,8.66l1,2.15a42.8,42.8,0,0,1,2,5.34l2.71,8.62a22.39,22.39,0,0,0,1.35,3.13,18.6,18.6,0,0,1,1.68,4.21c0,.25.11.51.16.77a10.52,10.52,0,0,0,1,3.25.81.81,0,0,1-.29,1.11.79.79,0,0,1-1.1-.29,11.94,11.94,0,0,1-1.24-3.74c0-.25-.1-.5-.16-.75A17.21,17.21,0,0,0,120.78,42a22.09,22.09,0,0,1-1.45-3.36L116.62,30a41,41,0,0,0-1.87-5.14c-.34-.72-.66-1.44-1-2.17a38,38,0,0,0-4.6-8.31c-2.59-3.21-6.72-7.33-8.52-8.48A25.29,25.29,0,0,0,93.1,2.75C87.65,2,77.13,1,72.33,2.18,54.61,6.62,44,16.06,33.05,37c-.27.53-1.23,2.91-2,4.83-.68,1.69-1.26,3.15-1.48,3.63a72.57,72.57,0,0,0-5.93,21A.79.79,0,0,1,22.85,67.22Z"/><path class="cls-1" d="M114.86,54.38a.81.81,0,0,1-.76-.54l-1.89-5.28c-.61-1.69-1.21-3.38-1.88-5.23a46.83,46.83,0,0,0-3.3-7.71,47,47,0,0,0-3.35-4.81,46.13,46.13,0,0,1-3.53-5.1.81.81,0,0,1,1.4-.8A45,45,0,0,0,105,29.83a49,49,0,0,1,3.46,5,48.32,48.32,0,0,1,3.42,8c.67,1.85,1.27,3.54,1.88,5.24l1.89,5.28a.81.81,0,0,1-.49,1A.86.86,0,0,1,114.86,54.38Z"/><path class="cls-1" d="M150.91,55.82a.81.81,0,0,1-.79-.64,102.64,102.64,0,0,0-4.2-13.76c-.43-1.19-.86-2.38-1.28-3.59a52.77,52.77,0,0,0-5.16-10.59c-.43-.71-.76-1.27-1-1.7a18.58,18.58,0,0,0-2.12-3.06c-.75-.93-1.4-1.88-2-2.8a21.86,21.86,0,0,0-3.81-4.61c-4.47-3.82-9.43-6.16-16.56-7.81-2.37-.54-4.8-1-7.15-1.46A116.88,116.88,0,0,1,94.41,2.92a.81.81,0,0,1,.48-1.54,113.28,113.28,0,0,0,12.26,2.83c2.36.46,4.81.93,7.2,1.48,7.4,1.71,12.56,4.15,17.25,8.15a23.66,23.66,0,0,1,4.09,4.93c.61.9,1.24,1.82,1.95,2.7a19.84,19.84,0,0,1,2.3,3.35c.19.37.51.9.92,1.58a54,54,0,0,1,5.31,10.9c.42,1.2.84,2.38,1.27,3.57a103.56,103.56,0,0,1,4.26,14,.8.8,0,0,1-.62,1A.47.47,0,0,1,150.91,55.82Z"/><path class="cls-1" d="M124,136.57a.81.81,0,0,1-.76-.53,57,57,0,0,1-2.09-6.5,50.1,50.1,0,0,1-1.17-7c-.16-1.27-.31-2.58-.52-3.86-.11-.66-.19-1.21-.25-1.72-.11-.75-.19-1.35-.34-2a.81.81,0,1,1,1.57-.36c.17.73.26,1.39.37,2.16.06.49.13,1,.24,1.67.22,1.32.38,2.64.53,3.93a50.19,50.19,0,0,0,1.13,6.76,53,53,0,0,0,2,6.35.8.8,0,0,1-.47,1A.74.74,0,0,1,124,136.57Z"/><path class="cls-1" d="M160.24,157h-.1a.81.81,0,0,1-.71-.89c.65-5.48,1.21-13.53-1.38-20.1-1-2.6-2.71-7.09-3.6-9.63a.82.82,0,0,1,.5-1,.81.81,0,0,1,1,.5c.87,2.52,2.55,7,3.57,9.57,2.73,6.91,2.15,15.22,1.48,20.88A.79.79,0,0,1,160.24,157Z"/><path class="cls-1" d="M62.25,218.88c-5.76,0-11.59-2-17.17-4.12-1.27-.49-2.57-1-3.89-1.47-2.84-1.07-5.77-2.17-8.5-3.29a1.46,1.46,0,0,1-.77-.33,75.63,75.63,0,0,1-5.71-5c-.32-.36-1.27-1.53-2.36-2.89-1.25-1.54-2.65-3.28-3.32-4.05-5.38-6.2-5.72-14.8-5.59-23.81,0-2.49.1-5,.17-7.35.1-3.38.21-6.88.2-10.42l0-12.78c0-7.08,0-15.1,3.68-21.88,5-9.13,17.93-12.39,27.53-10.81a.8.8,0,0,1,.66.92.81.81,0,0,1-.93.67c-9.05-1.48-21.19,1.52-25.84,10-3.53,6.41-3.51,14.21-3.49,21.1l0,12.77c0,3.57-.09,7.08-.19,10.48-.07,2.38-.15,4.84-.18,7.33-.12,8.68.19,17,5.2,22.73.68.78,2.1,2.54,3.35,4.08,1,1.29,2,2.5,2.32,2.84.72.81,4.58,4.16,5.46,4.81v0a.75.75,0,0,1,.26.05c2.75,1.13,5.73,2.25,8.6,3.34,1.33.49,2.64,1,3.91,1.47,7.31,2.8,15.05,5.36,22.25,3.21A23.88,23.88,0,0,0,71,215.22c.55-.26,1.1-.51,1.68-.75a.8.8,0,0,1,1,.43.81.81,0,0,1-.43,1.06c-.56.23-1.1.48-1.63.72A23.77,23.77,0,0,1,68.37,218,21.71,21.71,0,0,1,62.25,218.88Z"/><path class="cls-1" d="M77.93,127.47a.81.81,0,0,1-.73-.46,13.88,13.88,0,0,0-3.63-4.28,45.78,45.78,0,0,0-27.57-11,.8.8,0,0,1-.76-.84.81.81,0,0,1,.84-.77,47.38,47.38,0,0,1,28.54,11.36,15.11,15.11,0,0,1,4,4.81.8.8,0,0,1-.38,1.07A.89.89,0,0,1,77.93,127.47Z"/><path class="cls-1" d="M57.89,198.32a1.53,1.53,0,0,1-.3,0l-1.15-.24c-1-.23-2.13-.46-3.21-.78-3.42-1-9.56-3.58-12.21-9.37-2.38-5.21-2.45-9.87-2.54-15.27,0-1,0-2.08-.06-3.17,0-1.25-.1-2.65-.15-4.15-.27-7.12-.64-16.87.08-22.94.08-.7.15-1.35.22-2,.42-3.86.68-6.19,2.51-8.95a5.28,5.28,0,0,1,4.3-2.56c.29,0,.58-.08.87-.14a17.27,17.27,0,0,1,4.91-.16c3.37.23,7.56.5,10.86,2.64A13.4,13.4,0,0,1,67.45,139a19.78,19.78,0,0,1,.15,9.34A.81.81,0,1,1,66,148a18.2,18.2,0,0,0-.12-8.59,11.89,11.89,0,0,0-4.76-6.78c-3-1.91-6.74-2.16-10.09-2.39a16.14,16.14,0,0,0-4.45.12,8.7,8.7,0,0,1-1,.17,3.69,3.69,0,0,0-3.18,1.85c-1.61,2.44-1.84,4.5-2.25,8.23-.07.61-.14,1.26-.22,2-.71,6-.34,15.63-.07,22.7.06,1.5.11,2.91.15,4.16,0,1.1,0,2.16.07,3.2.08,5.22.15,9.72,2.39,14.62,1.74,3.8,5.82,6.9,11.2,8.5,1,.3,2.07.52,3.09.74l.8.17a1,1,0,0,1,.71-.06.89.89,0,0,1,.56,1A1,1,0,0,1,57.89,198.32Z"/><path class="cls-1" d="M1.19,168.28a.75.75,0,0,1-.38-.1.85.85,0,0,1-.41-.53c-1.3-5.6.8-11.13,2.84-16.47l.74-2c.59-1.6,1.15-3.25,1.69-4.84,1-2.86,2-5.81,3.22-8.63,2.32-5.26,5.1-9.12,8.5-11.8a.82.82,0,0,1,1.14.14.81.81,0,0,1-.14,1.13c-3.19,2.51-5.81,6.17-8,11.18-1.22,2.76-2.21,5.68-3.17,8.5-.54,1.6-1.11,3.26-1.71,4.88-.24.65-.49,1.3-.74,2C2.92,156.56,1,161.53,1.8,166.37l.66-.26a.72.72,0,0,1,.33-.29c.74-.37,1.5-.67,2.22-1s1.42-.57,2.12-.91a.81.81,0,0,1,1.08.37.81.81,0,0,1-.37,1.08c-.75.36-1.5.66-2.23,1s-1.22.49-1.82.77a.92.92,0,0,1-.83.52l-1.48.57A.72.72,0,0,1,1.19,168.28Z"/><path class="cls-1" d="M50.91,221.44a39.68,39.68,0,0,1-11.92-2c-5.52-1.74-11.31-3.75-16-7.51C19.84,209.39,13,202.3,11.3,198.44c-1.11-2.58-2.17-5.1-3-7.66-3.55-11.21-1.87-23.67-.52-33.69q.77-5.67,1.55-11.32c1.07-7.69,2.31-14.48,6.75-19.67a.8.8,0,0,1,1.13-.09.81.81,0,0,1,.09,1.14C13.17,132,12,138.55,11,146q-.78,5.65-1.55,11.32c-1.33,9.85-3,22.12.46,33a80,80,0,0,0,2.92,7.51C14.32,201.38,21,208.29,24,210.71c4.44,3.59,10.06,5.54,15.43,7.23,6.12,1.92,11.77,2.37,16.79,1.35a5.45,5.45,0,0,0,2.21-.95c.42-.26,1-.59,1.69-1a.81.81,0,1,1,.78,1.41c-.72.39-1.22.7-1.63,1a7,7,0,0,1-2.73,1.16A29.15,29.15,0,0,1,50.91,221.44Z"/><path class="cls-1" d="M8.17,188.62a.8.8,0,0,1-.73-.45,53,53,0,0,1-5.17-20.78.81.81,0,0,1,.78-.83.79.79,0,0,1,.83.79,51.32,51.32,0,0,0,5,20.12.79.79,0,0,1-.37,1.07A.74.74,0,0,1,8.17,188.62Z"/><path class="cls-1" d="M144.14,101.13H144a16.66,16.66,0,0,0-3.08-.17.81.81,0,0,1-.61-.24.83.83,0,0,1-.23-.62c.14-2.17.18-4.39.11-6.57a.81.81,0,0,1,1.61,0c.06,1.94,0,3.91-.06,5.86a17.32,17.32,0,0,1,2.5.2.8.8,0,0,1,.68.91A.8.8,0,0,1,144.14,101.13Z"/><path class="cls-1" d="M27.69,83a2.12,2.12,0,0,1-1.35-.48,1.79,1.79,0,0,1-.64-1.65,1.55,1.55,0,0,1,.76-1.1,1.43,1.43,0,0,1,.28-.32A1.79,1.79,0,0,1,29,79.35a2,2,0,0,1,.74,2,2.09,2.09,0,0,1-1.34,1.54A2,2,0,0,1,27.69,83Zm.21-2.23a.79.79,0,0,1,.12.44.37.37,0,0,0,.09-.19.36.36,0,0,0-.11-.35l0,0Z"/><path class="cls-1" d="M49,87l-.24,0a2,2,0,0,1-1.66-1.61,1.54,1.54,0,0,1,.51-1.45.92.92,0,0,1,.33-.16h0a3.11,3.11,0,0,1,1.44-.59,1.18,1.18,0,0,1,.83.09,1.19,1.19,0,0,1,.55.73,2.61,2.61,0,0,1,0,1.87A2,2,0,0,1,49,87Zm0-1.62a.35.35,0,0,0,.32-.19.66.66,0,0,0,0-.35A1,1,0,0,0,49,85a.49.49,0,0,0-.08.12A.65.65,0,0,1,49,85.34Z"/><path class="cls-1" d="M24.22,102.8a.8.8,0,0,1-.79-.65,3.31,3.31,0,0,1,.05-1.7,1.92,1.92,0,0,1,1.66-1.33,1.64,1.64,0,0,1,1.34.63,1.62,1.62,0,0,1,.34,1.44,1.64,1.64,0,0,1-1,1.1,1.79,1.79,0,0,1-.91.11.82.82,0,0,1-.54.39Z"/><path class="cls-1" d="M42.39,105.55a1.68,1.68,0,0,1-1-.28,1.77,1.77,0,0,1-.77-1.61.8.8,0,0,1,.23-.49,1.72,1.72,0,0,1,3.26,1,1.74,1.74,0,0,1-1.07,1.22A1.94,1.94,0,0,1,42.39,105.55Zm0-1.87a.44.44,0,0,0,0,.18l.06.07h0a.38.38,0,0,0,.12-.08S42.49,103.68,42.43,103.68Z"/><path class="cls-1" d="M38,37.79a.4.4,0,0,1-.38-.26,5.09,5.09,0,0,0-1.18-1.78.4.4,0,0,1,0-.57.41.41,0,0,1,.57,0,5.85,5.85,0,0,1,1.37,2.07.4.4,0,0,1-.23.52A.35.35,0,0,1,38,37.79Z"/><path class="cls-1" d="M40.64,32.52a.39.39,0,0,1-.34-.19,15.31,15.31,0,0,1-1.76-3.67.41.41,0,0,1,.26-.51.4.4,0,0,1,.51.26A14.84,14.84,0,0,0,41,31.89a.4.4,0,0,1-.11.56A.38.38,0,0,1,40.64,32.52Z"/><path class="cls-1" d="M44.72,28a.42.42,0,0,1-.32-.16,6.43,6.43,0,0,1-1.3-3.31.4.4,0,0,1,.37-.43.4.4,0,0,1,.44.36A5.5,5.5,0,0,0,45,27.31a.41.41,0,0,1-.07.57A.45.45,0,0,1,44.72,28Z"/><path class="cls-1" d="M42.08,27.36a.43.43,0,0,1-.31-.14,4.72,4.72,0,0,1-.88-1.52.4.4,0,1,1,.76-.26,4,4,0,0,0,.73,1.25.4.4,0,0,1,0,.57A.42.42,0,0,1,42.08,27.36Z"/><path class="cls-1" d="M48.08,23.94a.4.4,0,0,1-.39-.33,10,10,0,0,0-1.37-3.4.41.41,0,0,1,.12-.56.41.41,0,0,1,.56.13,10.44,10.44,0,0,1,1.48,3.68.4.4,0,0,1-.32.47Z"/><path class="cls-1" d="M52.42,20.36a.39.39,0,0,1-.37-.24,21.4,21.4,0,0,1-1.32-4.42.41.41,0,0,1,.33-.47.39.39,0,0,1,.46.32,20.2,20.2,0,0,0,1.27,4.25.4.4,0,0,1-.21.53Z"/><path class="cls-1" d="M56,18.17a.41.41,0,0,1-.3-.14,4.13,4.13,0,0,1-.91-1.7.4.4,0,0,1,.3-.49.4.4,0,0,1,.49.29,3.41,3.41,0,0,0,.72,1.37.4.4,0,0,1,0,.57A.42.42,0,0,1,56,18.17Z"/><path class="cls-1" d="M59.47,17.06a.41.41,0,0,1-.39-.3,33,33,0,0,1-.91-4.84.39.39,0,0,1,.35-.44.4.4,0,0,1,.45.35,32.73,32.73,0,0,0,.89,4.72.41.41,0,0,1-.28.5Z"/><path class="cls-1" d="M63.59,14.43a.39.39,0,0,1-.27-.1,1.81,1.81,0,0,1-.6-1.6.4.4,0,0,1,.46-.34.4.4,0,0,1,.34.45,1.05,1.05,0,0,0,.33.89.4.4,0,0,1,0,.57A.39.39,0,0,1,63.59,14.43Z"/><path class="cls-1" d="M66.53,13.65h0a.41.41,0,0,1-.37-.44,12,12,0,0,0-.63-4.94.4.4,0,0,1,.25-.51.39.39,0,0,1,.51.25,12.91,12.91,0,0,1,.68,5.27A.41.41,0,0,1,66.53,13.65Z"/><path class="cls-1" d="M72.57,10.68a.4.4,0,0,1-.41-.4V8.89a.41.41,0,1,1,.81,0v1.39A.4.4,0,0,1,72.57,10.68Z"/><path class="cls-1" d="M81,11.75a.4.4,0,0,1-.4-.39l-.15-3.72a.41.41,0,0,1,.81,0l.14,3.73a.4.4,0,0,1-.38.42Z"/><path class="cls-1" d="M89.31,12.5h0a.39.39,0,0,1-.38-.41,10.91,10.91,0,0,1,.87-3.91.41.41,0,1,1,.75.31,10.05,10.05,0,0,0-.82,3.63A.4.4,0,0,1,89.31,12.5Z"/><path class="cls-1" d="M93.12,15h0a.4.4,0,0,1-.39-.42,10.15,10.15,0,0,1,1.21-4.37.4.4,0,0,1,.54-.16.41.41,0,0,1,.17.55,9.27,9.27,0,0,0-1.11,4A.41.41,0,0,1,93.12,15Z"/><path class="cls-1" d="M96.83,18.22h-.06a.41.41,0,0,1-.34-.46,13.08,13.08,0,0,1,1.26-4,.4.4,0,0,1,.72.36,12.33,12.33,0,0,0-1.18,3.75A.4.4,0,0,1,96.83,18.22Z"/><path class="cls-1" d="M100,22.05a.35.35,0,0,1-.17,0,.39.39,0,0,1-.19-.53,16,16,0,0,1,2.59-3.95.4.4,0,0,1,.57,0,.41.41,0,0,1,0,.57,15.34,15.34,0,0,0-2.46,3.76A.42.42,0,0,1,100,22.05Z"/><path class="cls-1" d="M102.87,28.44a.37.37,0,0,1-.24-.08.4.4,0,0,1-.09-.56,23.79,23.79,0,0,0,3-5.52.41.41,0,0,1,.76.29,24.6,24.6,0,0,1-3.1,5.7A.4.4,0,0,1,102.87,28.44Z"/><path class="cls-1" d="M103.59,21.13a.46.46,0,0,1-.22-.06.41.41,0,0,1-.12-.56l1.15-1.82a.41.41,0,0,1,.56-.12.41.41,0,0,1,.13.56l-1.16,1.81A.42.42,0,0,1,103.59,21.13Z"/><path class="cls-1" d="M107.31,34.42a.38.38,0,0,1-.25-.09.4.4,0,0,1-.06-.57,24.14,24.14,0,0,0,2.8-4.38.4.4,0,1,1,.72.37,25.5,25.5,0,0,1-2.89,4.52A.41.41,0,0,1,107.31,34.42Z"/><path class="cls-1" d="M110.46,40.64a.39.39,0,0,1-.29-.13.41.41,0,0,1,0-.57c1.1-1,2.16-2.17,3.16-3.31a.4.4,0,0,1,.57,0,.42.42,0,0,1,0,.57c-1,1.16-2.09,2.29-3.21,3.36A.36.36,0,0,1,110.46,40.64Z"/><path class="cls-1" d="M35.37,43.22a.42.42,0,0,1-.39-.28,3.39,3.39,0,0,0-2.12-2.14.4.4,0,1,1,.25-.77,4.23,4.23,0,0,1,2.64,2.66.41.41,0,0,1-.26.51Z"/><path class="cls-1" d="M111.07,35.05a.38.38,0,0,1-.33-.18.4.4,0,0,1,.11-.56l1.75-1.17a.4.4,0,0,1,.56.11.41.41,0,0,1-.12.56L111.3,35A.39.39,0,0,1,111.07,35.05Z"/><path class="cls-1" d="M32.83,45.54h0a2.18,2.18,0,0,1-1.51-.61.4.4,0,0,1,.56-.58,1.39,1.39,0,0,0,.94.38.41.41,0,0,1,0,.81Z"/><path class="cls-1" d="M111,209.84a.41.41,0,0,1-.18-.05.4.4,0,0,1-.18-.54,39.24,39.24,0,0,0,2.43-6.87c.46-1.62.94-3.28,1.55-4.88a57,57,0,0,1,2.68-5.69l.91-1.79c1.41-2.81,2.69-5.74,3.86-8.5,5.94-13.93,11.32-28.31,16-42.71a.4.4,0,1,1,.77.25c-4.69,14.43-10.08,28.82-16,42.78-1.18,2.76-2.46,5.71-3.88,8.54-.3.6-.61,1.2-.92,1.8a55.19,55.19,0,0,0-2.63,5.61c-.6,1.56-1.08,3.21-1.53,4.81a39.82,39.82,0,0,1-2.49,7A.43.43,0,0,1,111,209.84Z"/><path class="cls-1" d="M113.56,210.75a.4.4,0,0,1-.15,0,.39.39,0,0,1-.22-.52c5.65-13.73,11.68-27.52,17.92-41l.31-.69c1.41-3,2.86-6.17,4.08-9.33.93-2.43,1.76-4.94,2.55-7.38a99,99,0,0,1,4.25-11.38.41.41,0,0,1,.54-.2.4.4,0,0,1,.19.54,99.71,99.71,0,0,0-4.21,11.29c-.8,2.45-1.63,5-2.56,7.42-1.23,3.19-2.69,6.34-4.1,9.38l-.32.69c-6.23,13.46-12.26,27.24-17.91,40.95A.39.39,0,0,1,113.56,210.75Z"/><path class="cls-1" d="M116,212.42a.32.32,0,0,1-.14,0,.4.4,0,0,1-.24-.52c3.5-9.26,7-18.29,11.62-26.87,4.47-8.35,9.54-18.1,13-28.3.53-1.54,1-3.11,1.51-4.64,1-3.2,2.06-6.52,3.41-9.67a.39.39,0,0,1,.53-.21.4.4,0,0,1,.21.53c-1.34,3.11-2.38,6.41-3.39,9.6-.48,1.52-1,3.1-1.5,4.65-3.5,10.25-8.58,20.05-13.07,28.42-4.58,8.54-8.09,17.54-11.57,26.77A.41.41,0,0,1,116,212.42Z"/><path class="cls-1" d="M119.08,212.58a.34.34,0,0,1-.14,0,.4.4,0,0,1-.25-.51c1.32-3.75,2.51-6.73,3.87-9.67.51-1.08,1.1-2.4,1.73-3.82,1.81-4,4.06-9,5.81-12,7.86-13.46,13-28.44,18-42.93a.39.39,0,0,1,.51-.25.4.4,0,0,1,.25.51c-5,14.53-10.15,29.55-18,43.08-1.73,3-4,7.95-5.77,12-.64,1.43-1.23,2.74-1.74,3.83a102.25,102.25,0,0,0-3.83,9.59A.41.41,0,0,1,119.08,212.58Z"/><path class="cls-1" d="M106.86,206.5a.41.41,0,0,1-.24-.08.41.41,0,0,1-.09-.57,21.11,21.11,0,0,0,2.22-4.27c.89-2.09,1.82-4.22,2.75-6.37,1.72-3.92,3.49-8,5-11.87l17.73-44.42a.41.41,0,0,1,.53-.22.39.39,0,0,1,.22.52l-17.73,44.42c-1.56,3.91-3.33,8-5.05,11.9-.93,2.14-1.86,4.27-2.75,6.36a21.49,21.49,0,0,1-2.31,4.43A.4.4,0,0,1,106.86,206.5Z"/><path class="cls-1" d="M121.49,212h0a.52.52,0,0,1-.42-.29.47.47,0,0,1,.09-.52.36.36,0,0,1,.21-.11,150,150,0,0,1,7.52-15.17,133.24,133.24,0,0,0,8.34-16.31l13.24-32.86a.4.4,0,0,1,.74.3L138,179.85a131.93,131.93,0,0,1-8.38,16.41A146.25,146.25,0,0,0,122,211.55.58.58,0,0,1,121.49,212Z"/><path class="cls-1" d="M104.88,203.35l-.14,0a.4.4,0,0,1-.24-.51,6.86,6.86,0,0,0,.25-.84,9.51,9.51,0,0,1,.3-.95c4.33-11.56,9-23.18,13.84-34.53,1.37-3.2,2.71-6.47,4.12-9.93,2.23-5.45,4.54-11.09,7.3-17.27a.4.4,0,0,1,.53-.21.39.39,0,0,1,.2.53c-2.75,6.18-5,11.81-7.28,17.25-1.42,3.47-2.76,6.74-4.13,9.95-4.85,11.33-9.5,22.94-13.83,34.5a6.21,6.21,0,0,0-.26.86,8.38,8.38,0,0,1-.28.91A.41.41,0,0,1,104.88,203.35Z"/><path class="cls-1" d="M125.25,211.27a.37.37,0,0,1-.18-.05.4.4,0,0,1-.18-.54l15.59-31.11c1.81-3.61,3.68-7.35,5.17-11.18.88-2.26,1.65-4.61,2.4-6.89a69.17,69.17,0,0,1,5.22-13,.4.4,0,1,1,.7.4,69,69,0,0,0-5.16,12.82c-.74,2.28-1.52,4.65-2.4,6.92-1.51,3.87-3.39,7.62-5.21,11.25L125.61,211A.4.4,0,0,1,125.25,211.27Z"/><path class="cls-1" d="M130,209a.32.32,0,0,1-.14,0,.4.4,0,0,1-.23-.52,148.47,148.47,0,0,1,9.32-18.52c1.68-3,3.42-6.08,5-9.17a147.23,147.23,0,0,0,10.83-27.37.39.39,0,0,1,.5-.27.4.4,0,0,1,.28.49,148.57,148.57,0,0,1-10.89,27.52c-1.6,3.1-3.35,6.2-5,9.19a149,149,0,0,0-9.27,18.42A.41.41,0,0,1,130,209Z"/><path class="cls-1" d="M135.48,206.29a.46.46,0,0,1-.2,0,.4.4,0,0,1-.16-.55c7.79-14.12,14.57-29.05,21.12-43.49a.41.41,0,0,1,.54-.2.4.4,0,0,1,.2.53c-6.56,14.46-13.35,29.4-21.15,43.55A.42.42,0,0,1,135.48,206.29Z"/><path class="cls-1" d="M144,198.39a.39.39,0,0,1-.21-.06.41.41,0,0,1-.13-.56,98.1,98.1,0,0,0,6.14-12.42,90.9,90.9,0,0,1,6.64-13.23.4.4,0,0,1,.68.44,91.8,91.8,0,0,0-6.58,13.11,98.51,98.51,0,0,1-6.2,12.53A.4.4,0,0,1,144,198.39Z"/><path class="cls-1" d="M101.66,197.62a.41.41,0,0,1-.38-.55c2.33-5.85,4.23-10.46,6.07-14.91,1.57-3.81,3.05-7.41,4.6-11.3.43-1.09.83-2.19,1.23-3.3.51-1.41,1-2.88,1.64-4.29a90.35,90.35,0,0,1,4.82-9.4,69.53,69.53,0,0,0,5.9-12.3.4.4,0,0,1,.51-.26.41.41,0,0,1,.26.51,70.81,70.81,0,0,1-6,12.44,93,93,0,0,0-4.79,9.32c-.59,1.4-1.11,2.85-1.62,4.26-.4,1.11-.81,2.22-1.24,3.32-1.55,3.9-3,7.5-4.61,11.31-1.84,4.45-3.74,9.05-6,14.9A.43.43,0,0,1,101.66,197.62Z"/><path class="cls-1" d="M99.92,189.09h0a.41.41,0,0,1-.38-.28l-.3-.89a.4.4,0,0,1,.25-.51.39.39,0,0,1,.43.11,308.33,308.33,0,0,1,19.66-43.34.4.4,0,0,1,.55-.16.39.39,0,0,1,.16.54,308.05,308.05,0,0,0-20,44.26A.41.41,0,0,1,99.92,189.09Z"/><path class="cls-1" d="M100.05,178.46a.39.39,0,0,1-.18,0,.4.4,0,0,1-.19-.54l12.57-26.18a.4.4,0,1,1,.72.35l-12.56,26.18A.41.41,0,0,1,100.05,178.46Z"/><path class="cls-1" d="M50.14,195.56a.49.49,0,0,1-.2-.05.41.41,0,0,1-.17-.52l3-6.9a35.89,35.89,0,0,0-3.59,5.17.42.42,0,0,1-.55.16.41.41,0,0,1-.16-.54l2.87-5.58-3.5,4.58a.4.4,0,0,1-.52.1.4.4,0,0,1-.18-.49c.68-1.83,1.45-3.64,2.29-5.42l-4.38,5.54a.4.4,0,0,1-.53.1.41.41,0,0,1-.16-.52l3.46-7.38-4.47,5.39a.41.41,0,0,1-.67-.45l2.3-4.4-2.27,3a.41.41,0,0,1-.56.1.42.42,0,0,1-.1-.56c1.13-1.75,2.19-3.57,3.17-5.43-.79,1-1.54,2.06-2.25,3.13a.41.41,0,0,1-.55.12.4.4,0,0,1-.14-.54l2-3.72-1.68,2.41a.4.4,0,0,1-.68-.43l.69-1.2a.41.41,0,0,1-.66-.47l1.22-2a.39.39,0,0,1,.05-.2l.78-1.47c-.31.44-.62.87-.94,1.29a.39.39,0,0,1-.54.1.4.4,0,0,1-.13-.54L48,168.67l-3.77,5.07a.41.41,0,0,1-.55.09.4.4,0,0,1-.11-.55l4.56-7.11-6.32,9a.42.42,0,0,1-.56.1.41.41,0,0,1-.12-.55l3.53-5.53a.4.4,0,0,1,0-.41l.52-1h0l-1,1.29a.4.4,0,0,1-.66-.45c3.14-5.21,6.47-10.36,9.94-15.41q-5.14,6.38-10.26,12.73a.39.39,0,0,1-.54.08.39.39,0,0,1-.12-.53c1.91-3.24,4-6.4,6.14-9.49-1.88,2.21-3.79,4.4-5.7,6.57a.4.4,0,0,1-.54.06.4.4,0,0,1-.12-.52c.59-1.06,1.21-2.11,1.84-3.14l-4.25,5.42a.4.4,0,0,1-.54.08.41.41,0,0,1-.12-.55q4.18-6.69,8.84-13.12c-2.66,3-5.43,6.24-8.53,9.95a.4.4,0,0,1-.53.07.41.41,0,0,1-.15-.51c.35-.72.7-1.42,1.06-2.1a.38.38,0,0,1,.08-.17l0,0c.64-1.2,1.29-2.34,1.95-3.43a.4.4,0,0,1-.59-.54l4-5.39-5.13,6.29a.42.42,0,0,1-.56.06.39.39,0,0,1-.09-.54c.75-1.14,1.52-2.28,2.29-3.41l-.59.63a.41.41,0,0,1-.54.05.42.42,0,0,1-.11-.53c.7-1.21,1.43-2.42,2.17-3.61-.64.68-1.29,1.36-1.94,2a.4.4,0,0,1-.54,0,.42.42,0,0,1-.1-.53c1.43-2.31,2.78-4.41,4.12-6.38-.9,1-1.82,1.91-2.78,2.89a.4.4,0,0,1-.62-.51c.52-.8,1.06-1.59,1.6-2.38L41,144.06a.4.4,0,0,1-.59-.54l.59-.76-.32.31a.41.41,0,0,1-.53,0,.4.4,0,0,1-.09-.53c.62-1,1.28-2.08,2-3.08-.87.73-1.76,1.45-2.72,2.22a.42.42,0,0,1-.53,0,.43.43,0,0,1-.07-.52c.7-1.08,1.39-2.09,2.1-3.06-.48.42-1,.83-1.45,1.23a.4.4,0,0,1-.54,0,.39.39,0,0,1,0-.54c.67-.78,1.35-1.56,2-2.33a24.3,24.3,0,0,0,2.26-3.33,23.35,23.35,0,0,1,2.75-3.9.4.4,0,1,1,.6.53,20.32,20.32,0,0,0-2.1,2.86c1.18-1.26,2.38-2.51,3.59-3.73a.4.4,0,0,1,.59.55l-.79.94A.41.41,0,0,1,48,131c-.94,1.06-1.92,2.1-2.92,3.11a56.05,56.05,0,0,0-4.15,5.24c1.41-1.17,2.71-2.32,4-3.64.75-.9,1.54-1.77,2.36-2.6a.4.4,0,0,1,.56,0,.41.41,0,0,1,0,.56c-.81,1-1.59,1.81-2.37,2.6-.92,1.1-1.8,2.23-2.62,3.4,1.74-1.85,3.42-3.77,5-5.75l1.56-2a.41.41,0,0,1,.56-.07.41.41,0,0,1,.08.57c-.52.67-1,1.34-1.57,2L45,139.05l.75-.82q2.81-3.71,5.84-7.19a.42.42,0,0,1,.56,0,.41.41,0,0,1,.07.55,82.32,82.32,0,0,1-5.84,7.2c-.67.89-1.32,1.78-2,2.68,1.45-1.56,2.83-3.09,4.18-4.64,1.93-2.49,3.91-4.82,6.07-7.17a.4.4,0,0,1,.61.53c-2.06,2.49-4,4.84-6,7.16-2.06,2.67-4.07,5.52-6.17,8.78.89-1,1.76-1.94,2.62-2.93A113.75,113.75,0,0,1,54,132.45a.4.4,0,0,1,.55,0,.4.4,0,0,1,.08.55,129.48,129.48,0,0,1-8.34,10.69q-1.52,2.21-2.94,4.49c.93-1,1.83-2.11,2.72-3.18,2.49-3.48,5.06-6.91,7.67-10.26a.4.4,0,0,1,.65.47c-2.38,3.54-4.95,7-7.68,10.28l-1,1.42L55.33,135a.4.4,0,0,1,.63.49l-6.81,9.23c1.76-2,3.62-4,5.61-6.15l3.64-4.17a.42.42,0,0,1,.56-.05A.41.41,0,0,1,59,135l-.07.1a.4.4,0,0,1-.08.36L44.29,153.8c1.51-1.75,3-3.42,4.41-5.06,2.85-3.27,5.79-6.63,9.1-10.56l.74-.89h0a.4.4,0,1,1,.62.52c-.25.3-.5.59-.74.89-4.76,5.68-9.26,11.64-13.46,17.78L51.58,148c2.34-3.1,4.75-6.12,7.13-9.1a.41.41,0,0,1,.57-.06.42.42,0,0,1,.07.57l-7.12,9.08c-2.5,3.31-4.91,6.7-7.1,10.22,5.15-5.93,10.19-12,15-18.17L61.44,139h0a.41.41,0,0,1,.56-.07.4.4,0,0,1,.07.57l-1.27,1.62c-4.81,6.12-9.68,12.4-14,19,5.19-6.43,10.41-12.89,15.58-19.27a.4.4,0,0,1,.56-.06.38.38,0,0,1,.15.34.4.4,0,0,1,.64.49q-3.31,4.92-6.74,9.8c-1.38,2.3-2.79,4.59-4.25,6.86L58,150.67a.4.4,0,0,1,.55-.1.41.41,0,0,1,.12.55l-8.07,12.56L52,161.89a.41.41,0,0,1,.55-.09.4.4,0,0,1,.12.54L49.26,168l.07,0a.41.41,0,0,1,.16.54l-1,1.8a.21.21,0,0,1,.11,0,.39.39,0,0,1,.14.55l-.39.66a.48.48,0,0,1,.28.06.42.42,0,0,1,.14.54l-1.44,2.49.59-.85a.41.41,0,0,1,.69.43l-2.89,5.24,1.05-1.21a.41.41,0,0,1,.53-.06.41.41,0,0,1,.14.5c-.39.84-.8,1.67-1.23,2.5l1.11-1.49a.39.39,0,0,1,.53-.1.4.4,0,0,1,.15.53l-2.89,5.55,4.08-4.9a.4.4,0,0,1,.52-.09.41.41,0,0,1,.15.52l-3.32,7.07,4.72-6a.4.4,0,0,1,.54-.08.4.4,0,0,1,.14.53,66.7,66.7,0,0,0-3,6.2l4.47-5.84a.4.4,0,0,1,.53-.09.39.39,0,0,1,.14.52L52,187.71c.58-.69,1.19-1.37,1.82-2a.39.39,0,0,1,.51-.05.42.42,0,0,1,.15.5l-2.35,5.38,1.3-1.88a.41.41,0,0,1,.73.32l-.7,2.88a5.19,5.19,0,0,0,3.69,1.65.4.4,0,0,1,.4.41.39.39,0,0,1-.41.4,6,6,0,0,1-4.43-2.09.42.42,0,0,1-.08-.36l.23-1-2.43,3.51A.39.39,0,0,1,50.14,195.56Zm-3.71-46.19c-.91,1.18-1.78,2.41-2.63,3.69L49,146.39Z"/><path class="cls-1" d="M53.79,185.74h-.06a.4.4,0,0,1-.35-.45,17.32,17.32,0,0,1,.34-1.86l-.41.52a.41.41,0,0,1-.53.08.4.4,0,0,1-.15-.51l.3-.64-1.35,2.35a.4.4,0,0,1-.71-.38c1.23-2.5,2.41-5.05,3.52-7.63L50,185.34a.41.41,0,0,1-.54.17.4.4,0,0,1-.18-.54l1-2.15a.41.41,0,0,1-.52.12.4.4,0,0,1-.17-.54l.34-.65-.52.87a.4.4,0,0,1-.54.15.41.41,0,0,1-.17-.54l2.48-4.84-.8,1.43a.41.41,0,0,1-.54.16.4.4,0,0,1-.17-.54l1.49-2.93L49,179.44a.42.42,0,0,1-.55.16.41.41,0,0,1-.17-.54c.92-1.78,1.85-3.55,2.81-5.32a.36.36,0,0,1-.28-.06.41.41,0,0,1-.14-.52l.43-.82-1,1.59a.41.41,0,0,1-.55.13.4.4,0,0,1-.14-.55l7.72-13.37-2,3.08q-2.81,4.35-5.7,8.59A.41.41,0,0,1,49,172l-.45.74a.4.4,0,0,1-.54.15.41.41,0,0,1-.16-.54q2.19-4.2,4.63-8.29a.29.29,0,0,1-.22-.06.39.39,0,0,1-.14-.54l4.8-8.16-2.8,4.05a.4.4,0,0,1-.56.1.41.41,0,0,1-.11-.56c3.65-5.36,7.16-10.92,10.44-16.51a.4.4,0,1,1,.69.41c-.55.95-1.12,1.9-1.69,2.85a.52.52,0,0,1,.16.06.4.4,0,0,1,.13.54L60,151.63l2.58-3.86a.39.39,0,0,1,.55-.12.4.4,0,0,1,.18.41l.34-.44a.4.4,0,0,1,.54-.08.4.4,0,0,1,.13.53l-.35.6a.36.36,0,0,1,.2.06.39.39,0,0,1,.14.54L59.87,157c1.46-2.21,2.94-4.41,4.45-6.57a.4.4,0,0,1,.56-.1.41.41,0,0,1,.17.42.43.43,0,0,1,.33,0,.41.41,0,0,1,.14.54c-1.36,2.55-2.79,5.08-4.29,7.57a.38.38,0,0,1,.08.47L55,171.79l1.79-3,3.44-6.53a.4.4,0,0,1,.54-.17h0l.32-.54a.41.41,0,0,1,.7.41l-4.4,8-.46.94.15-.26a.4.4,0,0,1,.52-.17.41.41,0,0,1,.21.51q-1.15,3-2.43,6l1.86-3.25a.41.41,0,0,1,.72.37l-1.74,3.68a.42.42,0,0,1,.31,0,.4.4,0,0,1,.19.51,22,22,0,0,1-1.44,2.82,17.33,17.33,0,0,0-1.09,4.23A.39.39,0,0,1,53.79,185.74Zm4.92-29.9L56.82,159q1.24-2,2.48-4C59.1,155.26,58.91,155.55,58.71,155.84Z"/><path class="cls-1" d="M53,195.4a.33.33,0,0,1-.17,0,.39.39,0,0,1-.2-.53,24,24,0,0,0,.9-2.25c-.24.54-.51,1.08-.79,1.61a.41.41,0,0,1-.53.17.39.39,0,0,1-.2-.52v0l-.09,0a.41.41,0,0,1-.24-.49,19.79,19.79,0,0,1,1.87-4.57c.08-.23.15-.46.23-.7A22.42,22.42,0,0,0,52.45,190q-.93,2.15-2,4.22a.4.4,0,0,1-.74-.31,23.17,23.17,0,0,1,2-4.28q1-2.22,1.77-4.5l-.06.09q-1.34,3.26-2.92,6.38a.4.4,0,0,1-.51.19.42.42,0,0,1-.23-.5,27.39,27.39,0,0,1,2.94-6.44c.12-.27.23-.54.33-.82q-1.27,1.89-2.36,3.89a.4.4,0,0,1-.72-.37,59,59,0,0,0,2.62-6.18A23.35,23.35,0,0,0,50,184.48a.41.41,0,0,1-.71-.39l2.75-6.38a56.1,56.1,0,0,0-4.44,5.42.41.41,0,0,1-.68-.44,58.41,58.41,0,0,0,4-7.57l-6,9.17a.41.41,0,0,1-.7-.41l4.47-8.54-4.07,5.11a.41.41,0,0,1-.56.07l-.06-.06h0a.41.41,0,0,1-.19-.47l-1.72,2.63a.41.41,0,0,1-.54.13.4.4,0,0,1-.15-.53A64.78,64.78,0,0,0,44.6,175,49.11,49.11,0,0,0,40.9,181a.41.41,0,0,1-.52.18.4.4,0,0,1-.22-.5q.26-.78.54-1.56l-.34.56a.4.4,0,0,1-.55.14.4.4,0,0,1-.15-.54c.8-1.45,1.54-2.94,2.2-4.46-.54,1-1.11,2-1.72,3a.4.4,0,0,1-.52.15.41.41,0,0,1-.2-.52c.23-.55.49-1.1.76-1.63a.4.4,0,0,1-.41,0,.41.41,0,0,1-.19-.51q.48-1.23,1-2.46a.37.37,0,0,1-.34,0,.4.4,0,0,1-.15-.55q1.22-2.07,2.31-4.22l-2.48,4.09a.4.4,0,0,1-.54.14.42.42,0,0,1-.16-.55l3.68-6.64-.53.72-1.31,2.57a.4.4,0,0,1-.54.17l-.06,0-.48.81h0a.41.41,0,0,1-.7-.41c.35-.6.69-1.2,1-1.81l-.21.33a.41.41,0,0,1-.72-.37c.25-.62.51-1.24.79-1.85l0,0a.4.4,0,0,1-.53.1.39.39,0,0,1-.16-.51c.23-.52.48-1,.75-1.54a23.23,23.23,0,0,1,1.31-3.73,12.38,12.38,0,0,1-1.66,1.12.43.43,0,0,1-.47-.05.42.42,0,0,1-.1-.46c.72-1.8,1.53-3.59,2.4-5.34a2.72,2.72,0,0,0-1.35,1,.41.41,0,0,1-.53.12.4.4,0,0,1-.17-.51l.17-.41-.45.22a.42.42,0,0,1-.45-.08.42.42,0,0,1-.1-.43c.32-.87.67-1.72,1.05-2.57l-.3.31a.4.4,0,0,1-.64-.49,6.84,6.84,0,0,0,1.18-2.48,4.63,4.63,0,0,1-.65.1.41.41,0,0,1-.36-.17.39.39,0,0,1,0-.39l.57-1.38-.08-.08a1.22,1.22,0,0,0-.92-.39.39.39,0,0,1-.37-.2.4.4,0,0,1,0-.42l1.88-2.94-1.28.93a.41.41,0,0,1-.5,0,.39.39,0,0,1-.1-.49,4.75,4.75,0,0,1,3.36-2.49h0l.79-.57a.41.41,0,0,1,.61.49l-2.5,6.08a3.05,3.05,0,0,1,.35.86,4.72,4.72,0,0,0,1.9-1.56.4.4,0,0,1,.67.45c-.63,1-1.21,1.94-1.75,3a.42.42,0,0,1,.29.11.38.38,0,0,1,.11.39c-.2.8-.44,1.6-.71,2.39a14,14,0,0,0,2.51-2.35.4.4,0,0,1,.54-.07.39.39,0,0,1,.12.53c-.6,1-1.18,2.08-1.73,3.15a11.67,11.67,0,0,1-.69,3A6,6,0,0,1,43,157a.39.39,0,0,1,.4.06.37.37,0,0,1,.15.38,17,17,0,0,1-.41,1.85.4.4,0,0,1,.32,0c.11-.18.23-.35.35-.53a.4.4,0,0,1,.49-.14c.1-.14.19-.28.29-.41a.39.39,0,0,1,.53-.12.42.42,0,0,1,.18.49l.34-.6a.4.4,0,0,1,.7.4c-.4.72-.81,1.44-1.23,2.15l-.7,1.21L46,159.57a.41.41,0,0,1,.54-.1.41.41,0,0,1,.14.54l-.94,1.7h0a.41.41,0,0,1,.19.51c-.55,1.37-1.14,2.73-1.77,4.07a.38.38,0,0,1,.13.51q-1,2-2,4.13l1.56-2.52a.4.4,0,0,1,.72.36c-.34.89-.71,1.77-1.09,2.64a.39.39,0,0,1,.2.06.41.41,0,0,1,.17.48c-.13.35-.26.7-.4,1a.41.41,0,0,1,.46,0,.42.42,0,0,1,.16.55c-.5.94-1,1.9-1.41,2.88.87-1.32,1.81-2.6,2.8-3.83a.4.4,0,0,1,.5-.1.4.4,0,0,1,.2.48c-.51,1.59-1.09,3.16-1.72,4.71l4-6.07c1.24-2.25,2.5-4.5,3.76-6.73a.41.41,0,0,1,.53-.17.4.4,0,0,1,.2.51,63.2,63.2,0,0,1-4,8.68l1.86-2.34a.4.4,0,0,1,.54-.08.41.41,0,0,1,.14.52l-2.68,5.13L52.11,172a.4.4,0,0,1,.5-.15.39.39,0,0,1,.22.47,29.77,29.77,0,0,1-2.5,6.13c.87-1,1.77-2,2.7-2.89a.41.41,0,0,1,.51,0,.39.39,0,0,1,.15.49l-2.37,5.5a25,25,0,0,1,1.92-1.93.4.4,0,0,1,.65.43c-.3.93-.63,1.87-1,2.79.41-.56.83-1.12,1.26-1.66a.41.41,0,0,1,.51-.1.4.4,0,0,1,.18.49l-.27.73a.42.42,0,0,1,.36,0,.39.39,0,0,1,.19.47c-.42,1.35-.88,2.69-1.38,4,.21-.25.42-.49.64-.73a.41.41,0,0,1,.49-.09.42.42,0,0,1,.2.46l-.18.65.07,0a.4.4,0,0,1,.23.45c-.17.75-.37,1.49-.6,2.21a.45.45,0,0,1,.2,0,.41.41,0,0,1,.22.46c-.13.55-.27,1.09-.43,1.63a.41.41,0,0,1,.11.4l-.2.83a1.82,1.82,0,0,1,.86-.12l.19-.63a.4.4,0,0,1,.51-.27.4.4,0,0,1,.26.5l-.3,1a.41.41,0,0,1-.21.24.44.44,0,0,1-.32,0,1,1,0,0,0-.86.11,1.06,1.06,0,0,0-.48.55l0,.18a.42.42,0,0,1-.48.3.3.3,0,0,1-.16-.08l-.14.29A.41.41,0,0,1,53,195.4ZM42.46,153.34q-.49.39-1,.75a2.92,2.92,0,0,1,.7-.15ZM41,151.54c-.41.83-.78,1.67-1.12,2.53l.33-.19C40.54,153.11,40.81,152.33,41,151.54Zm-.12-2.27a4.54,4.54,0,0,1-.31,1.32c.26-.52.54-1,.83-1.55A3.43,3.43,0,0,1,40.92,149.27Zm-1.67-2.77a2,2,0,0,1,.67.38l1.64-4Z"/><path class="cls-1" d="M63.62,151.44a.49.49,0,0,1-.2-.05.42.42,0,0,1-.17-.52l.76-1.75-.3.49a.41.41,0,0,1-.54.14.4.4,0,0,1-.17-.53c.71-1.48,1.43-3,2-4.55-.35.49-.73,1-1.12,1.43a.4.4,0,0,1-.68-.42l.72-1.68c-.19.18-.38.35-.58.51a.39.39,0,0,1-.51,0,.4.4,0,0,1-.09-.51l.93-1.67-.68.57a.41.41,0,0,1-.53,0l0,0-.11.08a.39.39,0,0,1-.51,0,.39.39,0,0,1-.08-.5q.42-.7.87-1.38l-.23.14a.4.4,0,0,1-.5-.07.39.39,0,0,1,0-.5l.62-.92-.48.24a.4.4,0,0,1-.46-.09.39.39,0,0,1-.07-.46,5.76,5.76,0,0,1,1.5-1.86.4.4,0,0,1,.57,0,.44.44,0,0,1,.08.29l.26-.25a.4.4,0,0,1,.54,0,.41.41,0,0,1,.09.54l-.72,1.07c.23-.2.45-.4.66-.61a.4.4,0,0,1,.59.55l-.2.25.08,0a.42.42,0,0,1,.19.31.4.4,0,0,1,.41,0,.41.41,0,0,1,.15.52l-.25.51a.4.4,0,0,1,.6.49l-.63,1.47c.2-.33.4-.67.58-1a.41.41,0,0,1,.5-.19.4.4,0,0,1,.25.47,22.53,22.53,0,0,1-.74,2.46l.28-.45a.4.4,0,0,1,.53-.15.41.41,0,0,1,.19.52l-1.46,3.34a.41.41,0,0,1,.46-.07.39.39,0,0,1,.21.47c0,.16-.09.32-.14.48a.38.38,0,0,1,.38.06.39.39,0,0,1,.09.54l-.74,1.14a.4.4,0,0,1-.49.16l-.56.59a.39.39,0,0,1-.55,0l-.06-.05-.16.23A.4.4,0,0,1,63.62,151.44Z"/><path class="cls-1" d="M53.84,135.52a.4.4,0,0,1-.4-.4,17.56,17.56,0,0,1,.36-3.69c-.76.52-1.55,1-2.35,1.43a.4.4,0,0,1-.5-.1.38.38,0,0,1-.09-.32.42.42,0,0,1-.21-.13.41.41,0,0,1,0-.49l.06-.09-.94.73a.41.41,0,0,1-.41,0c-.55.52-1.12,1-1.7,1.51a.41.41,0,0,1-.56,0,.29.29,0,0,1-.08-.14l-.56.45a.41.41,0,0,1-.57-.57l1.23-1.52-.9.76a.4.4,0,0,1-.57-.56l.62-.77-.47.34a.41.41,0,0,1-.51-.63,14.84,14.84,0,0,1,2.31-1.71l.18-.06.48-.33a.4.4,0,0,1,.53,0,.42.42,0,0,1,.1.37l1-.82a.39.39,0,0,1,.54,0,.4.4,0,0,1,0,.54l-1.49,1.84,1.4-1.13a.42.42,0,0,1,.32-.09l.44-.5a.41.41,0,0,1,.57,0,.36.36,0,0,1,.13.23l.8-.75a.4.4,0,0,1,.54,0,.42.42,0,0,1,.08.54l0,0a.38.38,0,0,1,.22.07.4.4,0,0,1,.14.53,5.15,5.15,0,0,1-.65,1c.45-.3.9-.61,1.34-.93a.39.39,0,0,1,.47,0,.41.41,0,0,1,.16.44,16.54,16.54,0,0,0-.6,4.53.4.4,0,0,1-.4.41Z"/><path class="cls-1" d="M62,138.7a.4.4,0,0,1-.41-.4v-2.89a5.59,5.59,0,0,1-1,.29.4.4,0,0,1-.41-.61c.17-.29.35-.58.51-.88-.28.19-.58.38-.87.55a.4.4,0,0,1-.53-.58l.65-.92a.37.37,0,0,1-.2-.07.39.39,0,0,1-.16-.4,1.81,1.81,0,0,1,.88-1.23.4.4,0,0,1,.55.16.36.36,0,0,1,0,.09.42.42,0,0,1,.46.11.41.41,0,0,1,0,.5l-.21.29.29-.25a.4.4,0,0,1,.64.47c-.27.57-.57,1.14-.88,1.7a3.42,3.42,0,0,0,.43-.21.38.38,0,0,1,.4,0,.4.4,0,0,1,.2.34v3.52A.4.4,0,0,1,62,138.7Z"/><path class="cls-1" d="M54.13,149.52a.46.46,0,0,1-.2-.05.42.42,0,0,1-.16-.55q2.13-3.84,4.4-7.63c-1.1,1.2-2.15,2.45-3.14,3.73a.41.41,0,0,1-.56.07.4.4,0,0,1-.09-.56l1.45-2-1.45,1.61a.4.4,0,0,1-.56,0,.4.4,0,0,1-.06-.55l1-1.32-1.45,1.58a.41.41,0,0,1-.55,0,.4.4,0,0,1-.08-.54l2.38-3.5-1.94,2.33a.4.4,0,0,1-.46.11.4.4,0,0,1-.25-.4,4.91,4.91,0,0,1,1.17-2.53l.7-1-.81.88a.4.4,0,0,1-.63-.5c.31-.43.66-.94,1-1.5l-.42.42a.41.41,0,0,1-.52,0,.39.39,0,0,1-.12-.5c.57-1.16,1.2-2.3,1.88-3.41l-1.88,1.77a.39.39,0,0,1-.54,0,.4.4,0,0,1-.06-.54q1-1.35,1.92-2.76l-2.47,2.1a.4.4,0,0,1-.55-.59l3.64-3.88a.41.41,0,0,1,.57,0,.37.37,0,0,1,.12.23l.13-.11a.4.4,0,0,1,.61.51c-.37.63-.75,1.24-1.15,1.86l1.75-1.64a.4.4,0,0,1,.6.53c-.78,1-1.5,2.14-2.18,3.25.56-.67,1.12-1.38,1.63-2s1.15-1.45,1.59-2a.4.4,0,0,1,.55-.06.4.4,0,0,1,.08.55c-.66.93-1.56,2.28-2.46,3.62l1.95-2.12a.4.4,0,0,1,.62.51l-3.5,4.81,4-4.85a.42.42,0,0,1,.56-.06.41.41,0,0,1,.09.55l-3.84,5.65,4.29-4.7a.41.41,0,0,1,.56,0,.39.39,0,0,1,.06.55l-1.1,1.42a.4.4,0,0,1,.39.63l-1.14,1.6.5-.49a.4.4,0,0,1,.53,0,.39.39,0,0,1,.09.52c-2.16,3.49-4.27,7.07-6.25,10.67A.4.4,0,0,1,54.13,149.52Z"/><path class="cls-1" d="M63.36,142.4a.32.32,0,0,1-.14,0,.4.4,0,0,1-.25-.51l1.33-3.77-.57.28a.41.41,0,0,1-.4,0,.39.39,0,0,1-.18-.36l0-.35-1.07.86a.38.38,0,0,1-.5,0,.4.4,0,0,1-.1-.5,2.12,2.12,0,0,1,.11-.21l-.1.07a.42.42,0,0,1-.5,0,.41.41,0,0,1-.08-.49l.63-1.17-2,1.88a.4.4,0,0,1-.62-.51A31,31,0,0,1,62.42,133a.41.41,0,0,1,.57,0,.39.39,0,0,1,0,.57c-.23.25-.46.5-.68.76l.49-.47a.42.42,0,0,1,.53,0,.41.41,0,0,1,.11.51l-.82,1.51c.17-.18.34-.37.5-.57s.39-.55.59-.83a.41.41,0,0,1,.55-.09.4.4,0,0,1,.11.55,8.64,8.64,0,0,1-.6.85l-.5.75.08-.06a.38.38,0,0,1,.43,0,.38.38,0,0,1,.22.38l0,.56.85-.41a.42.42,0,0,1,.44.06.41.41,0,0,1,.11.44l-1.65,4.7A.44.44,0,0,1,63.36,142.4Z"/><path class="cls-1" d="M57.83,145.21a.45.45,0,0,1-.19-.05.4.4,0,0,1-.16-.55,11.3,11.3,0,0,0,1-2.45.79.79,0,0,0,0-.6.39.39,0,0,1-.28-.22.45.45,0,0,1,0-.36l.27-.49-3.07,2.94a.4.4,0,0,1-.59-.55l2.5-3-2.51,2.45a.42.42,0,0,1-.57,0,.4.4,0,0,1,0-.56c1.32-1.46,2.62-3,3.87-4.49-2.13,2-4.11,4.15-6,6.26a.4.4,0,0,1-.56,0,.41.41,0,0,1,0-.56c2.72-3.46,5.6-6.87,8.54-10.14a.4.4,0,0,1,.54-.06,1.6,1.6,0,0,1,.61,1,.17.17,0,0,0,.13.24.4.4,0,0,1,0,.53c-.35.45-.69.9-1,1.35l2.06-2a.41.41,0,0,1,.56,0,.41.41,0,0,1,0,.56L60,137.87l1.84-1.77a.4.4,0,0,1,.56,0,.4.4,0,0,1,0,.56A24.12,24.12,0,0,0,59.05,141l.09.12a1.71,1.71,0,0,1,.1,1.21A11.82,11.82,0,0,1,58.19,145,.43.43,0,0,1,57.83,145.21Zm2.4-11.46q-1,1.14-2,2.28c.72-.64,1.46-1.27,2.22-1.86a.38.38,0,0,1-.15-.24Z"/><path class="cls-1" d="M56.12,154.72l-.15,0a.4.4,0,0,1-.23-.52l3.44-9-.17.19a.4.4,0,0,1-.54.06.45.45,0,0,1-.16-.25l-.39.38a.42.42,0,0,1-.53,0,.4.4,0,0,1-.1-.51l2.36-4.29q-1.08,1.13-2.07,2.34L53.2,149a.4.4,0,1,1-.65-.47c1.4-2,2.83-4,4.4-5.89l3-4c.7-.94,1.57-1.9,2.76-1.83a.4.4,0,0,1,.38.42.39.39,0,0,1-.42.38,1.93,1.93,0,0,0-1.39.69.54.54,0,0,1,.24.09.41.41,0,0,1,.1.51l-2.09,3.8c.39-.48.76-1,1.1-1.49l1.12-1.84a.41.41,0,0,1,.55-.13.4.4,0,0,1,.15.54c-.35.64-.73,1.26-1.14,1.87l-.25.41a.38.38,0,0,1,0,.36l-4.63,12.11A.4.4,0,0,1,56.12,154.72Z"/><path class="cls-1" d="M108.44,224.38a.75.75,0,0,1-.38-.1.81.81,0,0,1-.37-1l.36-.85a.7.7,0,0,1-.34-.06.8.8,0,0,1-.47-.89,11.39,11.39,0,0,1,.64-2.23.81.81,0,0,1-1.24-1c.33-.73.67-1.46,1-2.18a.85.85,0,0,1-.49-.22.81.81,0,0,1-.14-1c.42-.69.84-1.38,1.29-2.06a.84.84,0,0,1-.31-.12.82.82,0,0,1-.37-.68,4.16,4.16,0,0,1,1.22-2.9.8.8,0,0,1,1.34.79,4.57,4.57,0,0,0,.44-.44.82.82,0,0,1,1.11-.07.81.81,0,0,1,.23.92l.06,0a.82.82,0,0,1,.37.54.68.68,0,0,1,.34.06.8.8,0,0,1,.48.95l.12,0a.8.8,0,0,1,.44,1c-.17.42-.34.83-.52,1.24l.12,0a.82.82,0,0,1,.42,1.06l-.84,2,.36-.57a.8.8,0,0,1,1.42.75l-1.26,2.87a.81.81,0,0,1-.83.47l-1.62,2.57a.79.79,0,0,1-.53.36.81.81,0,0,1-.64-.15,1.66,1.66,0,0,1-.31-.33l-.47.72A.79.79,0,0,1,108.44,224.38Z"/><path class="cls-2" d="M212.24,109.74a1.73,1.73,0,0,1-1.65-.79c-.66-1.21-.16-2.76,1.29-4a4.39,4.39,0,0,1,3.64-1,2.07,2.07,0,0,1,1.33.74,2.79,2.79,0,0,1-.26,2.85,4.44,4.44,0,0,1-2.28,1.7A6.7,6.7,0,0,1,212.24,109.74Zm2.47-4.41a3,3,0,0,0-2,.72c-.9.75-1.29,1.65-1,2.25a3.37,3.37,0,0,0,2-.26,3.19,3.19,0,0,0,1.61-1.12,1.73,1.73,0,0,0,.32-1.35l0,0A2.18,2.18,0,0,0,214.71,105.33Z"/><path class="cls-2" d="M223.41,110.13a1.74,1.74,0,0,1-1.28-.47,1.58,1.58,0,0,1-.36-1.13A4.46,4.46,0,0,1,223,105.6a4,4,0,0,1,4.48-1,2.09,2.09,0,0,1,1.23,1.24,2.19,2.19,0,0,1-.46,1.82,6.1,6.1,0,0,1-4.63,2.45Zm-.25-1.41a1,1,0,0,0,.38,0,4.76,4.76,0,0,0,3.59-1.86c.32-.45.29-.64.28-.67s-.08-.18-.48-.36a2.65,2.65,0,0,0-2.87.64l-.06.06A3,3,0,0,0,223.16,108.72Z"/><path class="cls-2" d="M216.45,106.32a.69.69,0,0,1-.69-.65c0-.39-.54-9.57-.5-11.76a.67.67,0,0,1,.62-.67c1.32-.12,2.62-.26,3.91-.4,2.28-.26,4.64-.52,7-.61H227c.75-.07,1.2-.11,1.46.31a.73.73,0,0,1,0,.74.69.69,0,0,1-.86.28l-.48,0h-.21c-2.34.1-4.68.35-6.94.6-1.09.13-2.19.25-3.31.35,0,2.92.5,11,.51,11a.69.69,0,0,1-.65.73Z"/><path class="cls-2" d="M228.1,106.59a.69.69,0,0,1-.69-.69V95.09l-.25-1.48a.68.68,0,0,1,.56-.8.7.7,0,0,1,.8.56l.26,1.55a.49.49,0,0,1,0,.12V105.9A.69.69,0,0,1,228.1,106.59Z"/><path class="cls-2" d="M186,63.92a2.72,2.72,0,0,1-2.29-1,2,2,0,0,1-.36-1.59c.28-1.57,2.12-2.86,2.48-3.1,1.05-.7,3.75-1.38,4.68-.47l0,0a2.91,2.91,0,0,1,.53,2.23,4.27,4.27,0,0,1-2,2.94A6,6,0,0,1,186,63.92Zm3.1-5.25a5.31,5.31,0,0,0-2.52.69,4.36,4.36,0,0,0-1.9,2.22.65.65,0,0,0,.12.56c.56.77,2.61.39,3.54-.26a3,3,0,0,0,1.42-2,1.76,1.76,0,0,0-.2-1.14A1.27,1.27,0,0,0,189.08,58.67Z"/><path class="cls-2" d="M190.47,60.15a.66.66,0,0,1-.67-.66L189.63,46a1.15,1.15,0,0,1,0-.14.69.69,0,0,1,.47-.8.75.75,0,0,1,.84.48c.2.51.77.72,1.7,1a6.77,6.77,0,0,1,1.67.69l.3.19a8.37,8.37,0,0,1,3.14,2.83,7.71,7.71,0,0,1,.78,2.64,7.51,7.51,0,0,1-.06,1.83,7.66,7.66,0,0,0-.09,1.28.67.67,0,0,1-.61.73.68.68,0,0,1-.73-.62,8.9,8.9,0,0,1,.09-1.54,6.4,6.4,0,0,0,.07-1.48,6.68,6.68,0,0,0-.62-2.18,7.57,7.57,0,0,0-2.69-2.36l-.3-.19a5.59,5.59,0,0,0-1.35-.53,9.11,9.11,0,0,1-1.23-.46l.15,12a.66.66,0,0,1-.66.68Z"/><path class="cls-2" d="M197.69,56.78a.67.67,0,0,1-.66-.57,3.73,3.73,0,0,0-1.51-2.16c-.38-.3-.79-.56-1.22-.84a15.83,15.83,0,0,1-1.42-1A7.67,7.67,0,0,1,189.61,46a.67.67,0,0,1,.67-.67h0A.67.67,0,0,1,191,46a6.35,6.35,0,0,0,2.77,5.15,13.09,13.09,0,0,0,1.31.9c.43.29.89.58,1.31.91a4.91,4.91,0,0,1,2,3,.67.67,0,0,1-.56.77Z"/></g></g></svg>