<svg id="Layer_1" data-name="Layer 1" xmlns="http://www.w3.org/2000/svg" viewBox="0 0 500 220"><defs><style>.cls-1{fill:#1d1818;}.cls-2{fill:#fff;}.cls-3{fill:#4db85b;}</style></defs><title>texto_3</title><path class="cls-1" d="M18.35,148.11l6.8-9.09a41.39,41.39,0,0,0,8.69,4.44,24.33,24.33,0,0,0,8.2,1.45,15.34,15.34,0,0,0,7.34-1.5q2.74-1.5,2.75-4a3.84,3.84,0,0,0-1.55-3.2,10.71,10.71,0,0,0-4.94-1.7l-10-1.5q-7.69-1.2-11.74-5a13.17,13.17,0,0,1-4-10.09,14.33,14.33,0,0,1,5.9-12q5.9-4.5,15.79-4.5a37.71,37.71,0,0,1,11.09,1.65,39.93,39.93,0,0,1,10.29,4.85l-6.59,8.79a42.8,42.8,0,0,0-8.2-3.75,25.76,25.76,0,0,0-7.89-1.25,11.17,11.17,0,0,0-6,1.4,4.23,4.23,0,0,0-2.25,3.7,3.73,3.73,0,0,0,1.65,3.25,12.9,12.9,0,0,0,5.45,1.65l10,1.5q7.6,1.09,11.75,5a13,13,0,0,1,4.14,9.9A13.82,13.82,0,0,1,63.27,145a17.44,17.44,0,0,1-4.74,5.45,22.93,22.93,0,0,1-7.2,3.6,30.82,30.82,0,0,1-9.09,1.3A46.35,46.35,0,0,1,29,153.46,31.19,31.19,0,0,1,18.35,148.11Z"/><path class="cls-1" d="M71.82,175.19V102.24H85.31v4.3a21.43,21.43,0,0,1,6.9-3.75,25.15,25.15,0,0,1,7.89-1.25,25.73,25.73,0,0,1,10.34,2.1,27.16,27.16,0,0,1,8.45,5.69,26.28,26.28,0,0,1,5.65,8.5,27,27,0,0,1,2,10.49,26.53,26.53,0,0,1-2.09,10.5,26.86,26.86,0,0,1-5.7,8.49,26.08,26.08,0,0,1-8.55,5.65,27.35,27.35,0,0,1-10.54,2,26.75,26.75,0,0,1-7.44-1,25.17,25.17,0,0,1-6.75-3.05v24.28Zm26.08-62A18.83,18.83,0,0,0,91,114.48a15.15,15.15,0,0,0-5.5,3.65v20.49A15.87,15.87,0,0,0,91,142.11a18.42,18.42,0,0,0,6.94,1.3,14.82,14.82,0,0,0,10.8-4.34,15.28,15.28,0,0,0,0-21.49A14.82,14.82,0,0,0,97.9,113.23Z"/><path class="cls-1" d="M133,128.32a26.66,26.66,0,0,1,8-19.23,27.5,27.5,0,0,1,8.85-5.75,29.29,29.29,0,0,1,21.78,0,27.5,27.5,0,0,1,8.85,5.75A27.16,27.16,0,0,1,186.39,139a26.14,26.14,0,0,1-5.89,8.54,28.77,28.77,0,0,1-39.48,0,26.43,26.43,0,0,1-8-19.19Zm27.78,15.09A13.54,13.54,0,0,0,171,139a15.84,15.84,0,0,0,0-21.49,14,14,0,0,0-20.38,0,15.84,15.84,0,0,0,0,21.49A13.56,13.56,0,0,0,160.76,143.41Z"/><path class="cls-1" d="M201.54,139.62V113.73h-10.7V102.24h10.7V89l13.69-3.1v16.39H230v11.49H215.23v23.09q0,3.69,1.6,5.19c1.06,1,2.93,1.5,5.59,1.5a24.23,24.23,0,0,0,3.6-.25,19.6,19.6,0,0,0,3.7-.95v11.2a34.42,34.42,0,0,1-5.3,1.15,37.64,37.64,0,0,1-5.3.45q-8.69,0-13.14-4T201.54,139.62Z"/><path class="cls-1" d="M243.61,96a7.84,7.84,0,1,1,5.5-2.3A7.48,7.48,0,0,1,243.61,96Zm6.89,6.2v52.07H236.81V102.24Z"/><path class="cls-1" d="M257.6,102.24h11.59v-5q0-8.68,5.1-13.39T289,79.15a39.75,39.75,0,0,1,4.3.25,31.39,31.39,0,0,1,3.79.65v11.5c-1.26-.27-2.38-.47-3.34-.6a21.41,21.41,0,0,0-3.05-.2c-2.6,0-4.55.56-5.85,1.7a6.39,6.39,0,0,0-1.95,5.09v4.7h14.19v11.49H282.88v40.58H269.19V113.73H257.6Z"/><path class="cls-1" d="M300.37,128.32a26.61,26.61,0,0,1,8.05-19.23,27.35,27.35,0,0,1,8.84-5.75,29.31,29.31,0,0,1,21.79,0,27.46,27.46,0,0,1,8.84,5.75,27.14,27.14,0,0,1,5.9,29.88,26.32,26.32,0,0,1-5.9,8.54,28,28,0,0,1-8.84,5.7,29.31,29.31,0,0,1-21.79,0,27.9,27.9,0,0,1-8.84-5.7,26.17,26.17,0,0,1-5.9-8.54A26.5,26.5,0,0,1,300.37,128.32Zm27.78,15.09a13.58,13.58,0,0,0,10.2-4.39,15.87,15.87,0,0,0,0-21.49,14,14,0,0,0-20.39,0A15.84,15.84,0,0,0,318,139,13.57,13.57,0,0,0,328.15,143.41Z"/><path class="cls-1" d="M362.33,128.32a26.61,26.61,0,0,1,8.05-19.23,27.35,27.35,0,0,1,8.84-5.75,29.31,29.31,0,0,1,21.79,0,27.46,27.46,0,0,1,8.84,5.75,27.14,27.14,0,0,1,5.9,29.88,26.32,26.32,0,0,1-5.9,8.54,28,28,0,0,1-8.84,5.7,29.31,29.31,0,0,1-21.79,0,27.9,27.9,0,0,1-8.84-5.7,26.17,26.17,0,0,1-5.9-8.54A26.5,26.5,0,0,1,362.33,128.32Zm27.78,15.09a13.58,13.58,0,0,0,10.2-4.39,15.84,15.84,0,0,0,0-21.49,14,14,0,0,0-20.39,0,15.84,15.84,0,0,0,0,21.49A13.57,13.57,0,0,0,390.11,143.41Z"/><path class="cls-1" d="M465.57,154.31V150a21.84,21.84,0,0,1-6.9,3.75,25.15,25.15,0,0,1-7.89,1.25,25.74,25.74,0,0,1-10.35-2.1,27,27,0,0,1-8.44-5.7,26.24,26.24,0,0,1-5.65-8.49,26.89,26.89,0,0,1-2-10.5,26.31,26.31,0,0,1,2.1-10.49,26.9,26.9,0,0,1,5.7-8.5,26,26,0,0,1,8.54-5.64,27.21,27.21,0,0,1,10.55-2,26.75,26.75,0,0,1,7.44,1,25.45,25.45,0,0,1,6.75,3V84.35l13.69-3v73Zm-27.79-26.09A15,15,0,0,0,453,143.31a18,18,0,0,0,6.95-1.3,15.75,15.75,0,0,0,5.45-3.69V118a15.44,15.44,0,0,0-5.45-3.6,18.67,18.67,0,0,0-6.95-1.3,14.86,14.86,0,0,0-15.19,15.09Z"/><path class="cls-2" d="M9.75,137.85l8.3-10.39a46.25,46.25,0,0,0,11.74,7.74,29.7,29.7,0,0,0,11.94,2.45q6.5,0,10.4-2.4T56,128.86a6.6,6.6,0,0,0-2.65-5.6q-2.64-2-8.84-3l-13.89-2.4q-9-1.5-13.64-6.29a17.07,17.07,0,0,1-4.65-12.4A18.46,18.46,0,0,1,19.8,83.68Q27.24,78,39.93,78a47.76,47.76,0,0,1,15.34,2.6,44.27,44.27,0,0,1,13.55,7.19L61,98.57a43.76,43.76,0,0,0-11-6.34,31,31,0,0,0-11.1-2,17.62,17.62,0,0,0-9.29,2.15,6.51,6.51,0,0,0-3.5,5.74,6,6,0,0,0,2.3,5q2.29,1.8,7.7,2.6l13.19,2.2q10.39,1.69,15.64,6.64t5.24,13a19.43,19.43,0,0,1-8,16.29q-8,6.09-21.44,6.09a44.78,44.78,0,0,1-16.54-3.2A46.76,46.76,0,0,1,9.75,137.85Z"/><path class="cls-2" d="M78,169.83v-73H91.5v4.29a21.6,21.6,0,0,1,6.9-3.74,24.87,24.87,0,0,1,7.89-1.25,25.89,25.89,0,0,1,10.34,2.09,27,27,0,0,1,8.45,5.7,26,26,0,0,1,5.64,8.5A26.81,26.81,0,0,1,132.77,123a26.31,26.31,0,0,1-2.1,10.49A26.6,26.6,0,0,1,125,142a25.9,25.9,0,0,1-8.55,5.64,27.16,27.16,0,0,1-10.54,2,26.75,26.75,0,0,1-7.44-1,24.86,24.86,0,0,1-6.75-3.05v24.29Zm26.08-62a18.83,18.83,0,0,0-6.89,1.25,15,15,0,0,0-5.5,3.65v20.48a15.89,15.89,0,0,0,5.45,3.5,18.42,18.42,0,0,0,6.94,1.3,14.75,14.75,0,0,0,10.79-4.35,15.25,15.25,0,0,0,0-21.48A14.78,14.78,0,0,0,104.09,107.87Z"/><path class="cls-2" d="M139.17,123a26.25,26.25,0,0,1,2.15-10.64,26.61,26.61,0,0,1,5.89-8.6A27.67,27.67,0,0,1,156.06,98a29.42,29.42,0,0,1,21.78,0,27.67,27.67,0,0,1,8.85,5.75,26.61,26.61,0,0,1,5.89,8.6,26.8,26.8,0,0,1-5.89,29.83A28.54,28.54,0,0,1,167,149.94a28.32,28.32,0,0,1-10.89-2.1,28,28,0,0,1-8.85-5.69,26.47,26.47,0,0,1-8-19.19ZM167,138.05a13.55,13.55,0,0,0,10.19-4.4,15.83,15.83,0,0,0,0-21.48,14,14,0,0,0-20.38,0,15.83,15.83,0,0,0,0,21.48A13.57,13.57,0,0,0,167,138.05Z"/><path class="cls-2" d="M207.73,134.25V108.37H197V96.88h10.7V83.58l13.69-3.09V96.88h14.79v11.49H221.42v23.08q0,3.7,1.6,5.2c1.06,1,2.93,1.5,5.59,1.5a24.23,24.23,0,0,0,3.6-.25,20.39,20.39,0,0,0,3.7-1v11.19a33.28,33.28,0,0,1-5.3,1.15,37.76,37.76,0,0,1-5.3.45q-8.69,0-13.14-4T207.73,134.25Z"/><path class="cls-3" d="M249.8,90.68a7.85,7.85,0,1,1,5.49-2.3A7.52,7.52,0,0,1,249.8,90.68Zm6.89,6.2v52.06H243V96.88Z"/><path class="cls-3" d="M263.79,96.88h11.59v-5q0-8.7,5.1-13.39t14.69-4.7a37.36,37.36,0,0,1,4.3.25,29.53,29.53,0,0,1,3.79.65V86.18c-1.26-.26-2.38-.46-3.34-.6a23,23,0,0,0-3.05-.2q-3.9,0-5.85,1.7a6.41,6.41,0,0,0-1.95,5.1v4.7h14.19v11.49H289.07v40.57H275.38V108.37H263.79Z"/><path class="cls-3" d="M306.56,123a26.66,26.66,0,0,1,8.05-19.24A27.51,27.51,0,0,1,323.45,98a29.44,29.44,0,0,1,21.79,0,27.73,27.73,0,0,1,8.84,5.75,26.79,26.79,0,0,1,5.9,8.6,26.77,26.77,0,0,1-5.9,29.83,28.78,28.78,0,0,1-39.47,0,26.1,26.1,0,0,1-5.9-8.55A26.45,26.45,0,0,1,306.56,123Zm27.78,15.09a13.59,13.59,0,0,0,10.2-4.4,15.86,15.86,0,0,0,0-21.48,14,14,0,0,0-20.39,0,15.83,15.83,0,0,0,0,21.48A13.58,13.58,0,0,0,334.34,138.05Z"/><path class="cls-3" d="M368.52,123a26.66,26.66,0,0,1,8.05-19.24A27.51,27.51,0,0,1,385.41,98a29.44,29.44,0,0,1,21.79,0,27.73,27.73,0,0,1,8.84,5.75,26.79,26.79,0,0,1,5.9,8.6,26.77,26.77,0,0,1-5.9,29.83,28.78,28.78,0,0,1-39.47,0,26.1,26.1,0,0,1-5.9-8.55A26.45,26.45,0,0,1,368.52,123Zm27.78,15.09a13.59,13.59,0,0,0,10.2-4.4,15.86,15.86,0,0,0,0-21.48,14,14,0,0,0-20.39,0,15.83,15.83,0,0,0,0,21.48A13.58,13.58,0,0,0,396.3,138.05Z"/><path class="cls-3" d="M471.76,148.94v-4.29a21.82,21.82,0,0,1-6.9,3.74,24.88,24.88,0,0,1-7.9,1.25,25.73,25.73,0,0,1-10.34-2.1,27,27,0,0,1-8.44-5.69,26,26,0,0,1-5.65-8.5,26.81,26.81,0,0,1-2-10.49,26.31,26.31,0,0,1,2.1-10.49,26.79,26.79,0,0,1,5.7-8.5,25.93,25.93,0,0,1,8.54-5.65,27.81,27.81,0,0,1,18-1,25.45,25.45,0,0,1,6.75,3V79l13.69-3v73ZM444,122.86A15,15,0,0,0,459.16,138a18,18,0,0,0,6.95-1.3,15.78,15.78,0,0,0,5.45-3.7V112.67a15.18,15.18,0,0,0-5.45-3.6,18.47,18.47,0,0,0-6.95-1.3A14.86,14.86,0,0,0,444,122.86Z"/></svg>