<svg width="30.333" height="30" xmlns="http://www.w3.org/2000/svg">

 <g>
  <title>background</title>
  <rect fill="none" id="canvas_background" height="32" width="32.333" y="-1" x="-1"/>
 </g>
 <g>
  <title>Layer 1</title>
  <!-- Created with Method Draw - http://github.com/duopixel/Method-Draw/ -->
  <!-- Created with Method Draw - http://github.com/duopixel/Method-Draw/ -->
  <ellipse stroke="null" ry="14.24049" rx="14.30378" id="svg_82" cy="14.81013" cx="15.15388" stroke-opacity="null" stroke-width="null" fill="#ea1d2c"/>
  <!-- Created with Method Draw - http://github.com/duopixel/Method-Draw/ -->
  <g stroke="null" id="svg_129">
   <g stroke="null" transform="matrix(0.03715802905154889,0,0,0.035957789341162096,-7.182384882925799,-5.489162216008811) " id="svg_122">
    <g stroke="null" id="svg_123">
     <g stroke="null" id="svg_124">
      <path stroke="null" id="svg_125" fill="#f9f9f9" d="m530.23818,390.35409c2.665,0 5.247,-1.425 6.603,-3.935l6.504,-12.035c1.969,-3.643 0.612,-8.192 -3.031,-10.161c-3.646,-1.969 -8.193,-0.61 -10.161,3.031l-6.504,12.035c-1.969,3.643 -0.612,8.193 3.031,10.161c1.133,0.613 2.353,0.904 3.558,0.904z"/>
      <path stroke="null" id="svg_126" fill="#f9f9f9" d="m606.82018,383.67709l0,-13.68c0,-4.141 -3.357,-7.498 -7.498,-7.498s-7.498,3.357 -7.498,7.498l0,13.68c0,4.141 3.357,7.498 7.498,7.498s7.498,-3.357 7.498,-7.498z"/>
      <path stroke="null" id="svg_127" fill="#f9f9f9" d="m668.58718,390.25309c1.277,0 2.571,-0.327 3.755,-1.013c3.582,-2.078 4.802,-6.666 2.724,-10.248l-6.863,-11.834c-2.078,-3.582 -6.666,-4.801 -10.248,-2.724c-3.582,2.078 -4.802,6.666 -2.724,10.248l6.863,11.834c1.391,2.397 3.907,3.737 6.493,3.737z"/>
      <path stroke="null" id="svg_128" fill="#f9f9f9" d="m855.41218,536.61709l0,-6.606c0,-14.005 -7.054,-26.388 -17.791,-33.8c2.527,-2.041 4.806,-4.445 6.756,-7.203c6.651,-9.406 8.322,-21.521 4.471,-32.406c-9.3,-26.29 -28.628,-64.149 -67.893,-95.215c-45.273,-35.818 -106.316,-54.532 -181.435,-55.619c-0.072,-0.001 -0.145,-0.001 -0.217,0c-33.951,0.491 -65.402,4.645 -93.479,12.346c-3.993,1.095 -6.343,5.221 -5.248,9.214s5.22,6.345 9.214,5.248c26.826,-7.358 56.978,-11.332 89.621,-11.812c162.214,2.39 217.053,89.26 235.298,140.839c2.263,6.396 1.323,13.229 -2.578,18.748c-3.868,5.471 -9.934,8.609 -16.642,8.609l-432.158,0c-6.733,0 -12.831,-3.156 -16.728,-8.66c-3.851,-5.437 -4.797,-12.142 -2.597,-18.394c13.301,-37.796 43.846,-89.012 113.825,-118.36c3.819,-1.602 5.617,-5.995 4.015,-9.814c-1.602,-3.82 -5.998,-5.615 -9.814,-4.015c-34.074,14.29 -62.586,34.936 -84.742,61.364c-16.303,19.445 -28.896,41.599 -37.429,65.847c-3.836,10.902 -2.195,22.58 4.505,32.039c1.951,2.756 4.271,5.174 6.855,7.232c-10.748,7.411 -17.809,19.8 -17.809,33.812l0,6.606c0,19.799 14.089,36.368 32.767,40.211l-0.15,44.776c-18.602,3.901 -32.617,20.428 -32.617,40.172l0,6.606c0,19.788 14.074,36.349 32.737,40.204c-0.503,7.891 -0.245,20.697 4.305,34.945c12.263,38.4 45.474,56.688 71.174,65.267c14.821,4.947 30.649,7.456 47.044,7.456l201.481,0c16.395,0 32.222,-2.509 47.043,-7.456c25.701,-8.58 58.912,-26.867 71.174,-65.267c4.55,-14.247 4.808,-27.054 4.305,-34.945c18.663,-3.854 32.737,-20.416 32.737,-40.204l0,-6.606c0,-19.797 -14.091,-36.352 -32.767,-40.194l0,-44.754c18.678,-3.842 32.767,-20.412 32.767,-40.211zm-497.004,131.765l0,-6.606c0,-11.394 7.361,-21.081 17.57,-24.611l-0.015,4.419c0,10.643 5.969,20.075 15.576,24.616c9.663,4.567 20.811,3.177 29.09,-3.627c3.873,-3.183 8.588,-6.128 16.792,-6.128c0.863,0 1.676,0.035 2.469,0.084l0,37.909l-55.427,0c-14.367,0 -26.055,-11.689 -26.055,-26.056zm298.792,-58.651l150.449,0l0,31.856c0,4.857 -2.613,8.991 -6.988,11.058c-4.432,2.094 -9.351,1.476 -13.16,-1.654c-5.406,-4.443 -13.283,-9.543 -26.321,-9.543c-16.099,0 -24.353,6.538 -31.635,12.307c-6.394,5.065 -11.445,9.065 -22.325,9.065c-10.881,0 -15.931,-4 -22.325,-9.065c-7.282,-5.768 -15.536,-12.307 -31.636,-12.307s-24.714,6.824 -31.636,12.307c-6.394,5.065 -11.444,9.065 -22.323,9.065c-10.88,0 -15.93,-4 -22.323,-9.065c-6.921,-5.483 -15.536,-12.307 -31.635,-12.307c-16.1,0 -24.353,6.538 -31.636,12.307c-4.558,3.611 -8.451,6.667 -14.245,8.129l0,-42.219c0,-5.478 4.456,-9.934 9.934,-9.934l112.646,0c4.141,0 7.498,-3.357 7.498,-7.498s-3.357,-7.498 -7.498,-7.498l-112.647,0c-13.747,0 -24.93,11.183 -24.93,24.93l0,92.341c0,8.155 -6.634,14.79 -14.789,14.79s-14.789,-6.635 -14.789,-14.79l0,-92.341c0,-13.747 -11.184,-24.93 -24.93,-24.93l-38.781,0l0,-17.066l416.474,0l0,17.066l-150.449,0c-4.141,0 -7.498,3.357 -7.498,7.498s3.357,7.498 7.498,7.498zm-227.245,0c5.478,0 9.935,4.456 9.935,9.934l0,21.846c-0.803,-0.037 -1.62,-0.063 -2.469,-0.063c-13.034,0 -20.909,5.097 -26.313,9.538c-3.81,3.13 -8.729,3.749 -13.163,1.654c-4.375,-2.067 -6.987,-6.201 -6.987,-11.057l0,-31.852l38.997,0zm374.13,129.238c-8.308,26.017 -29.046,44.725 -61.638,55.604c-13.287,4.436 -27.517,6.685 -42.295,6.685l-201.48,0c-14.778,0 -29.008,-2.249 -42.295,-6.685c-63.845,-21.312 -66.519,-68.39 -65.308,-85.14l48.822,0l0,2.572c0,16.424 13.361,29.786 29.785,29.786s29.785,-13.361 29.785,-29.786l0,-2.572l308.256,0c0.423,6.405 0.271,17.313 -3.632,29.536zm36.331,-77.193l0,6.606c0,14.367 -11.689,26.056 -26.056,26.056l-314.9,0l0,-17.248c10.995,-1.754 17.607,-6.968 23.556,-11.68c6.394,-5.065 11.445,-9.065 22.325,-9.065s15.93,4 22.323,9.065c6.922,5.483 15.536,12.307 31.635,12.307s24.353,-6.538 31.635,-12.307c6.394,-5.065 11.444,-9.065 22.324,-9.065c10.881,0 15.931,4 22.325,9.065c7.282,5.768 15.536,12.307 31.636,12.307s24.354,-6.538 31.636,-12.307c6.394,-5.065 11.444,-9.065 22.324,-9.065c8.207,0 12.924,2.947 16.799,6.133c8.278,6.803 19.425,8.194 29.089,3.627c9.608,-4.54 15.577,-13.973 15.577,-24.617l0,-4.508c10.318,3.469 17.772,13.225 17.772,24.696zm-26.055,-99.103l-429.898,0c-14.367,0 -26.056,-11.689 -26.056,-26.056l0,-6.606c0,-14.367 11.689,-26.056 26.056,-26.056l429.897,0c14.367,0 26.056,11.689 26.056,26.056l0,6.606c0,14.367 -11.688,26.056 -26.055,26.056z"/>
     </g>
    </g>
   </g>
  </g>
 </g>
</svg>