<svg width="40" height="45" xmlns="http://www.w3.org/2000/svg">

 <g>
  <title>background</title>
  <rect fill="none" id="canvas_background" height="47" width="42" y="-1" x="-1"/>
 </g>
 <g>
  <title>Layer 1</title>
  <!-- Created with Method Draw - http://github.com/duopixel/Method-Draw/ -->
  <!-- Created with Method Draw - http://github.com/duopixel/Method-Draw/ -->
  <ellipse stroke="null" ry="14.24049" rx="14.30378" id="svg_82" cy="16.80453" cx="20.07728" stroke-opacity="null" stroke-width="null" fill="#bf0000"/>
  <!-- Created with Method Draw - http://github.com/duopixel/Method-Draw/ -->
  <g stroke="null" id="svg_129">
   <g stroke="null" transform="matrix(0.03715802905154889,0,0,0.035957789341162096,-7.182384882925799,-5.489162216008811) " id="svg_122">
    <g stroke="null" id="svg_123">
     <g stroke="null" id="svg_124">
      <path stroke="null" id="svg_125" fill="#f9f9f9" d="m662.73696,435.54492c2.665,0 5.247,-1.425 6.603,-3.935l6.504,-12.035c1.969,-3.643 0.612,-8.192 -3.031,-10.161c-3.646,-1.969 -8.193,-0.61 -10.161,3.031l-6.504,12.035c-1.969,3.643 -0.612,8.193 3.031,10.161c1.133,0.613 2.353,0.904 3.558,0.904z"/>
      <path stroke="null" id="svg_126" fill="#f9f9f9" d="m739.31896,428.86792l0,-13.68c0,-4.141 -3.357,-7.498 -7.498,-7.498s-7.498,3.357 -7.498,7.498l0,13.68c0,4.141 3.357,7.498 7.498,7.498s7.498,-3.357 7.498,-7.498z"/>
      <path stroke="null" id="svg_127" fill="#f9f9f9" d="m801.08596,435.44392c1.277,0 2.571,-0.327 3.755,-1.013c3.582,-2.078 4.802,-6.666 2.724,-10.248l-6.863,-11.834c-2.078,-3.582 -6.666,-4.801 -10.248,-2.724c-3.582,2.078 -4.802,6.666 -2.724,10.248l6.863,11.834c1.391,2.397 3.907,3.737 6.493,3.737z"/>
      <path stroke="null" id="svg_128" fill="#f9f9f9" d="m987.91096,581.80792l0,-6.606c0,-14.005 -7.054,-26.388 -17.791,-33.8c2.527,-2.041 4.806,-4.445 6.756,-7.203c6.651,-9.406 8.322,-21.521 4.471,-32.406c-9.3,-26.29 -28.628,-64.149 -67.893,-95.215c-45.273,-35.818 -106.316,-54.532 -181.435,-55.619c-0.072,-0.001 -0.145,-0.001 -0.217,0c-33.951,0.491 -65.402,4.645 -93.479,12.346c-3.993,1.095 -6.343,5.221 -5.248,9.214s5.22,6.345 9.214,5.248c26.826,-7.358 56.978,-11.332 89.621,-11.812c162.214,2.39 217.053,89.26 235.298,140.839c2.263,6.396 1.323,13.229 -2.578,18.748c-3.868,5.471 -9.934,8.609 -16.642,8.609l-432.158,0c-6.733,0 -12.831,-3.156 -16.728,-8.66c-3.851,-5.437 -4.797,-12.142 -2.597,-18.394c13.301,-37.796 43.846,-89.012 113.825,-118.36c3.819,-1.602 5.617,-5.995 4.015,-9.814c-1.602,-3.82 -5.998,-5.615 -9.814,-4.015c-34.074,14.29 -62.586,34.936 -84.742,61.364c-16.303,19.445 -28.896,41.599 -37.429,65.847c-3.836,10.902 -2.195,22.58 4.505,32.039c1.951,2.756 4.271,5.174 6.855,7.232c-10.748,7.411 -17.809,19.8 -17.809,33.812l0,6.606c0,19.799 14.089,36.368 32.767,40.211l-0.15,44.776c-18.602,3.901 -32.617,20.428 -32.617,40.172l0,6.606c0,19.788 14.074,36.349 32.737,40.204c-0.503,7.891 -0.245,20.697 4.305,34.945c12.263,38.4 45.474,56.688 71.174,65.267c14.821,4.947 30.649,7.456 47.044,7.456l201.481,0c16.395,0 32.222,-2.509 47.043,-7.456c25.701,-8.58 58.912,-26.867 71.174,-65.267c4.55,-14.247 4.808,-27.054 4.305,-34.945c18.663,-3.854 32.737,-20.416 32.737,-40.204l0,-6.606c0,-19.797 -14.091,-36.352 -32.767,-40.194l0,-44.754c18.678,-3.842 32.767,-20.412 32.767,-40.211zm-497.004,131.765l0,-6.606c0,-11.394 7.361,-21.081 17.57,-24.611l-0.015,4.419c0,10.643 5.969,20.075 15.576,24.616c9.663,4.567 20.811,3.177 29.09,-3.627c3.873,-3.183 8.588,-6.128 16.792,-6.128c0.863,0 1.676,0.035 2.469,0.084l0,37.909l-55.427,0c-14.367,0 -26.055,-11.689 -26.055,-26.056zm298.792,-58.651l150.449,0l0,31.856c0,4.857 -2.613,8.991 -6.988,11.058c-4.432,2.094 -9.351,1.476 -13.16,-1.654c-5.406,-4.443 -13.283,-9.543 -26.321,-9.543c-16.099,0 -24.353,6.538 -31.635,12.307c-6.394,5.065 -11.445,9.065 -22.325,9.065c-10.881,0 -15.931,-4 -22.325,-9.065c-7.282,-5.768 -15.536,-12.307 -31.636,-12.307s-24.714,6.824 -31.636,12.307c-6.394,5.065 -11.444,9.065 -22.323,9.065c-10.88,0 -15.93,-4 -22.323,-9.065c-6.921,-5.483 -15.536,-12.307 -31.635,-12.307c-16.1,0 -24.353,6.538 -31.636,12.307c-4.558,3.611 -8.451,6.667 -14.245,8.129l0,-42.219c0,-5.478 4.456,-9.934 9.934,-9.934l112.646,0c4.141,0 7.498,-3.357 7.498,-7.498s-3.357,-7.498 -7.498,-7.498l-112.647,0c-13.747,0 -24.93,11.183 -24.93,24.93l0,92.341c0,8.155 -6.634,14.79 -14.789,14.79s-14.789,-6.635 -14.789,-14.79l0,-92.341c0,-13.747 -11.184,-24.93 -24.93,-24.93l-38.781,0l0,-17.066l416.474,0l0,17.066l-150.449,0c-4.141,0 -7.498,3.357 -7.498,7.498s3.357,7.498 7.498,7.498zm-227.245,0c5.478,0 9.935,4.456 9.935,9.934l0,21.846c-0.803,-0.037 -1.62,-0.063 -2.469,-0.063c-13.034,0 -20.909,5.097 -26.313,9.538c-3.81,3.13 -8.729,3.749 -13.163,1.654c-4.375,-2.067 -6.987,-6.201 -6.987,-11.057l0,-31.852l38.997,0zm374.13,129.238c-8.308,26.017 -29.046,44.725 -61.638,55.604c-13.287,4.436 -27.517,6.685 -42.295,6.685l-201.48,0c-14.778,0 -29.008,-2.249 -42.295,-6.685c-63.845,-21.312 -66.519,-68.39 -65.308,-85.14l48.822,0l0,2.572c0,16.424 13.361,29.786 29.785,29.786s29.785,-13.361 29.785,-29.786l0,-2.572l308.256,0c0.423,6.405 0.271,17.313 -3.632,29.536zm36.331,-77.193l0,6.606c0,14.367 -11.689,26.056 -26.056,26.056l-314.9,0l0,-17.248c10.995,-1.754 17.607,-6.968 23.556,-11.68c6.394,-5.065 11.445,-9.065 22.325,-9.065s15.93,4 22.323,9.065c6.922,5.483 15.536,12.307 31.635,12.307s24.353,-6.538 31.635,-12.307c6.394,-5.065 11.444,-9.065 22.324,-9.065c10.881,0 15.931,4 22.325,9.065c7.282,5.768 15.536,12.307 31.636,12.307s24.354,-6.538 31.636,-12.307c6.394,-5.065 11.444,-9.065 22.324,-9.065c8.207,0 12.924,2.947 16.799,6.133c8.278,6.803 19.425,8.194 29.089,3.627c9.608,-4.54 15.577,-13.973 15.577,-24.617l0,-4.508c10.318,3.469 17.772,13.225 17.772,24.696zm-26.055,-99.103l-429.898,0c-14.367,0 -26.056,-11.689 -26.056,-26.056l0,-6.606c0,-14.367 11.689,-26.056 26.056,-26.056l429.897,0c14.367,0 26.056,11.689 26.056,26.056l0,6.606c0,14.367 -11.688,26.056 -26.055,26.056z"/>
     </g>
    </g>
   </g>
  </g>
  <g id="svg_158">
   <g transform="matrix(0.41703038048405006,0,0,0.41703038048405006,0,0) " id="svg_145">
    <path d="m13.92803,91.79122c0,-0.563 -0.198,-0.996 -0.593,-1.301s-1.109,-0.612 -2.14,-0.923s-1.852,-0.656 -2.461,-1.037c-1.166,-0.732 -1.749,-1.688 -1.749,-2.865c0,-1.031 0.42,-1.881 1.261,-2.549s1.932,-1.002 3.274,-1.002c0.891,0 1.685,0.164 2.382,0.492s1.245,0.795 1.644,1.402s0.598,1.279 0.598,2.017l-2.215,0c0,-0.668 -0.209,-1.191 -0.628,-1.569s-1.018,-0.567 -1.797,-0.567c-0.727,0 -1.291,0.155 -1.692,0.466s-0.602,0.744 -0.602,1.301c0,0.469 0.217,0.86 0.65,1.173s1.148,0.618 2.145,0.914s1.796,0.633 2.399,1.011s1.046,0.812 1.327,1.301s0.422,1.062 0.422,1.718c0,1.066 -0.409,1.915 -1.226,2.544c-0.817,0.631 -1.926,0.945 -3.327,0.945c-0.926,0 -1.777,-0.172 -2.553,-0.514c-0.776,-0.344 -1.38,-0.816 -1.811,-1.42s-0.646,-1.307 -0.646,-2.109l2.224,0c0,0.727 0.24,1.289 0.721,1.688s1.169,0.598 2.065,0.598c0.773,0 1.355,-0.156 1.745,-0.471c0.388,-0.312 0.583,-0.728 0.583,-1.243z" fill="#bf0000" id="svg_155"/>
    <path d="m26.22403,90.42922c0,1.471 -0.334,2.645 -1.002,3.52c-0.668,0.877 -1.564,1.314 -2.689,1.314c-1.043,0 -1.878,-0.343 -2.505,-1.028l0,4.508l-2.136,0l0,-13.166l1.969,0l0.088,0.967c0.627,-0.762 1.479,-1.143 2.558,-1.143c1.16,0 2.07,0.432 2.729,1.296s0.989,2.064 0.989,3.599l0,0.133l-0.001,0zm-2.127,-0.185c0,-0.949 -0.189,-1.702 -0.567,-2.259s-0.918,-0.835 -1.622,-0.835c-0.873,0 -1.5,0.36 -1.881,1.081l0,4.219c0.387,0.738 1.02,1.107 1.898,1.107c0.68,0 1.211,-0.273 1.595,-0.822c0.385,-0.547 0.577,-1.378 0.577,-2.491z" fill="#bf0000" id="svg_154"/>
    <path d="m27.63003,90.24422c0,-0.932 0.185,-1.771 0.554,-2.518s0.888,-1.321 1.556,-1.723s1.436,-0.602 2.303,-0.602c1.283,0 2.325,0.413 3.124,1.239c0.801,0.826 1.232,1.922 1.297,3.287l0.009,0.501c0,0.938 -0.181,1.775 -0.54,2.514c-0.361,0.738 -0.877,1.31 -1.547,1.714c-0.672,0.404 -1.446,0.606 -2.325,0.606c-1.342,0 -2.416,-0.447 -3.221,-1.34c-0.806,-0.895 -1.209,-2.085 -1.209,-3.573l0,-0.105l-0.001,0zm2.136,0.185c0,0.979 0.202,1.744 0.606,2.299c0.404,0.553 0.967,0.83 1.688,0.83s1.281,-0.281 1.683,-0.844s0.603,-1.386 0.603,-2.47c0,-0.961 -0.206,-1.723 -0.62,-2.285c-0.412,-0.563 -0.974,-0.844 -1.683,-0.844c-0.697,0 -1.251,0.277 -1.661,0.831s-0.616,1.381 -0.616,2.483z" fill="#bf0000" id="svg_153"/>
    <path d="m40.95403,83.26522l0,2.312l1.679,0l0,1.582l-1.679,0l0,5.309c0,0.363 0.071,0.625 0.216,0.787c0.143,0.16 0.399,0.241 0.769,0.241c0.246,0 0.495,-0.029 0.747,-0.088l0,1.652c-0.486,0.135 -0.955,0.202 -1.406,0.202c-1.641,0 -2.461,-0.905 -2.461,-2.716l0,-5.388l-1.564,0l0,-1.582l1.564,0l0,-2.311l2.135,0z" fill="#bf0000" id="svg_152"/>
    <path d="m44.26703,83.10722c0,-0.328 0.104,-0.601 0.312,-0.817s0.506,-0.325 0.893,-0.325s0.686,0.108 0.896,0.325s0.316,0.489 0.316,0.817c0,0.322 -0.105,0.59 -0.316,0.804s-0.51,0.321 -0.896,0.321s-0.685,-0.107 -0.893,-0.321s-0.312,-0.481 -0.312,-0.804zm2.268,11.98l-2.136,0l0,-9.51l2.136,0l0,9.51z" fill="#bf0000" id="svg_151"/>
    <path d="m49.61103,95.08722l0,-7.928l-1.45,0l0,-1.582l1.45,0l0,-0.87c0,-1.055 0.293,-1.869 0.879,-2.443s1.406,-0.861 2.461,-0.861c0.375,0 0.773,0.053 1.195,0.158l-0.053,1.67c-0.234,-0.047 -0.507,-0.07 -0.817,-0.07c-1.02,0 -1.529,0.524 -1.529,1.573l0,0.844l1.934,0l0,1.582l-1.934,0l0,7.928l-2.136,0l0,-0.001z" fill="#bf0000" id="svg_150"/>
    <path d="m54.84103,90.24422c0,-0.932 0.185,-1.771 0.554,-2.518s0.888,-1.321 1.556,-1.723s1.436,-0.602 2.303,-0.602c1.283,0 2.325,0.413 3.124,1.239c0.801,0.826 1.232,1.922 1.297,3.287l0.009,0.501c0,0.938 -0.181,1.775 -0.54,2.514c-0.361,0.738 -0.877,1.31 -1.547,1.714c-0.672,0.404 -1.446,0.606 -2.325,0.606c-1.342,0 -2.416,-0.447 -3.222,-1.34c-0.806,-0.895 -1.208,-2.085 -1.208,-3.573l0,-0.105l-0.001,0zm2.135,0.185c0,0.979 0.202,1.744 0.606,2.299c0.404,0.553 0.967,0.83 1.688,0.83s1.281,-0.281 1.683,-0.844s0.603,-1.386 0.603,-2.47c0,-0.961 -0.206,-1.723 -0.62,-2.285c-0.412,-0.563 -0.974,-0.844 -1.683,-0.844c-0.697,0 -1.251,0.277 -1.661,0.831s-0.616,1.381 -0.616,2.483z" fill="#bf0000" id="svg_149"/>
    <path d="m65.08903,90.24422c0,-0.932 0.185,-1.771 0.554,-2.518s0.888,-1.321 1.556,-1.723s1.436,-0.602 2.303,-0.602c1.283,0 2.325,0.413 3.124,1.239c0.801,0.826 1.232,1.922 1.297,3.287l0.009,0.501c0,0.938 -0.181,1.775 -0.54,2.514c-0.361,0.738 -0.877,1.31 -1.547,1.714c-0.672,0.404 -1.446,0.606 -2.325,0.606c-1.342,0 -2.416,-0.447 -3.222,-1.34c-0.806,-0.895 -1.208,-2.085 -1.208,-3.573l0,-0.105l-0.001,0zm2.135,0.185c0,0.979 0.202,1.744 0.606,2.299c0.404,0.553 0.967,0.83 1.688,0.83s1.281,-0.281 1.683,-0.844s0.603,-1.386 0.603,-2.47c0,-0.961 -0.206,-1.723 -0.62,-2.285c-0.412,-0.563 -0.974,-0.844 -1.683,-0.844c-0.697,0 -1.251,0.277 -1.661,0.831s-0.616,1.381 -0.616,2.483z" fill="#bf0000" id="svg_148"/>
    <path d="m75.33703,90.26222c0,-1.465 0.34,-2.641 1.02,-3.529s1.591,-1.332 2.733,-1.332c1.008,0 1.822,0.352 2.443,1.055l0,-4.869l2.136,0l0,13.5l-1.934,0l-0.105,-0.984c-0.639,0.773 -1.491,1.16 -2.558,1.16c-1.113,0 -2.015,-0.448 -2.703,-1.345s-1.032,-2.115 -1.032,-3.656zm2.136,0.184c0,0.967 0.186,1.721 0.559,2.264c0.371,0.541 0.9,0.813 1.586,0.813c0.873,0 1.512,-0.39 1.916,-1.169l0,-4.061c-0.393,-0.762 -1.025,-1.143 -1.898,-1.143c-0.691,0 -1.225,0.274 -1.6,0.822s-0.563,1.373 -0.563,2.474z" fill="#bf0000" id="svg_147"/>
    <path d="m87.22803,92.83722c0.398,0 0.706,0.113 0.923,0.338c0.217,0.227 0.325,0.509 0.325,0.849c0,0.334 -0.108,0.61 -0.325,0.831c-0.217,0.219 -0.524,0.329 -0.923,0.329c-0.381,0 -0.683,-0.108 -0.905,-0.325s-0.334,-0.495 -0.334,-0.835s0.108,-0.622 0.325,-0.849c0.217,-0.225 0.522,-0.338 0.914,-0.338z" fill="#bf0000" id="svg_146"/>
   </g>
   <text font-weight="bold" stroke="null" transform="matrix(0.16700015171923535,0,0,0.16442705822825646,65.91021888930919,21.026308952588654) " xml:space="preserve" text-anchor="start" font-family="Helvetica, Arial, sans-serif" font-size="24" id="svg_164" y="99.63847" x="-180.55108" stroke-opacity="null" stroke-width="0" fill="#bf0000">®</text>
  </g>
 </g>
</svg>