<svg width="70" height="25" xmlns="http://www.w3.org/2000/svg">
 <g>
  <title>background</title>
  <rect x="-1" y="-1" width="72" height="27" id="canvas_background" fill="none"/>
 </g>

 <g>
  <title>Layer 1</title>
  <!-- Created with Method Draw - http://github.com/duopixel/Method-Draw/ -->
  <!-- Created with Method Draw - http://github.com/duopixel/Method-Draw/ -->
  <!-- Created with Method Draw - http://github.com/duopixel/Method-Draw/ -->
  <g id="svg_158">
   <g id="svg_145" transform="matrix(0.41703038048405006,0,0,0.41703038048405006,0,0) ">
    <path id="svg_155" fill="#f9f9f9" d="m77.27841,32.5643c0,-0.563 -0.198,-0.996 -0.593,-1.301s-1.109,-0.612 -2.14,-0.923s-1.852,-0.656 -2.461,-1.037c-1.166,-0.732 -1.749,-1.688 -1.749,-2.865c0,-1.031 0.42,-1.881 1.261,-2.549s1.932,-1.002 3.274,-1.002c0.891,0 1.685,0.164 2.382,0.492s1.245,0.795 1.644,1.402s0.598,1.279 0.598,2.017l-2.215,0c0,-0.668 -0.209,-1.191 -0.628,-1.569s-1.018,-0.567 -1.797,-0.567c-0.727,0 -1.291,0.155 -1.692,0.466s-0.602,0.744 -0.602,1.301c0,0.469 0.217,0.86 0.65,1.173s1.148,0.618 2.145,0.914s1.796,0.633 2.399,1.011s1.046,0.812 1.327,1.301s0.422,1.062 0.422,1.718c0,1.066 -0.409,1.915 -1.226,2.544c-0.817,0.631 -1.926,0.945 -3.327,0.945c-0.926,0 -1.777,-0.172 -2.553,-0.514c-0.776,-0.344 -1.38,-0.816 -1.811,-1.42s-0.646,-1.307 -0.646,-2.109l2.224,0c0,0.727 0.24,1.289 0.721,1.688s1.169,0.598 2.065,0.598c0.773,0 1.355,-0.156 1.745,-0.471c0.388,-0.312 0.583,-0.728 0.583,-1.243z"/>
    <path id="svg_154" fill="#f9f9f9" d="m89.57441,31.2023c0,1.471 -0.334,2.645 -1.002,3.52c-0.668,0.877 -1.564,1.314 -2.689,1.314c-1.043,0 -1.878,-0.343 -2.505,-1.028l0,4.508l-2.136,0l0,-13.166l1.969,0l0.088,0.967c0.627,-0.762 1.479,-1.143 2.558,-1.143c1.16,0 2.07,0.432 2.729,1.296s0.989,2.064 0.989,3.599l0,0.133l-0.001,0zm-2.127,-0.185c0,-0.949 -0.189,-1.702 -0.567,-2.259s-0.918,-0.835 -1.622,-0.835c-0.873,0 -1.5,0.36 -1.881,1.081l0,4.219c0.387,0.738 1.02,1.107 1.898,1.107c0.68,0 1.211,-0.273 1.595,-0.822c0.385,-0.547 0.577,-1.378 0.577,-2.491z"/>
    <path id="svg_153" fill="#f9f9f9" d="m90.98041,31.0173c0,-0.932 0.185,-1.771 0.554,-2.518s0.888,-1.321 1.556,-1.723s1.436,-0.602 2.303,-0.602c1.283,0 2.325,0.413 3.124,1.239c0.801,0.826 1.232,1.922 1.297,3.287l0.009,0.501c0,0.938 -0.181,1.775 -0.54,2.514c-0.361,0.738 -0.877,1.31 -1.547,1.714c-0.672,0.404 -1.446,0.606 -2.325,0.606c-1.342,0 -2.416,-0.447 -3.221,-1.34c-0.806,-0.895 -1.209,-2.085 -1.209,-3.573l0,-0.105l-0.001,0zm2.136,0.185c0,0.979 0.202,1.744 0.606,2.299c0.404,0.553 0.967,0.83 1.688,0.83s1.281,-0.281 1.683,-0.844s0.603,-1.386 0.603,-2.47c0,-0.961 -0.206,-1.723 -0.62,-2.285c-0.412,-0.563 -0.974,-0.844 -1.683,-0.844c-0.697,0 -1.251,0.277 -1.661,0.831s-0.616,1.381 -0.616,2.483z"/>
    <path id="svg_152" fill="#f9f9f9" d="m104.30441,24.0383l0,2.312l1.679,0l0,1.582l-1.679,0l0,5.309c0,0.363 0.071,0.625 0.216,0.787c0.143,0.16 0.399,0.241 0.769,0.241c0.246,0 0.495,-0.029 0.747,-0.088l0,1.652c-0.486,0.135 -0.955,0.202 -1.406,0.202c-1.641,0 -2.461,-0.905 -2.461,-2.716l0,-5.388l-1.564,0l0,-1.582l1.564,0l0,-2.311l2.135,0z"/>
    <path id="svg_151" fill="#f9f9f9" d="m107.61741,23.8803c0,-0.328 0.104,-0.601 0.312,-0.817s0.506,-0.325 0.893,-0.325s0.686,0.108 0.896,0.325s0.316,0.489 0.316,0.817c0,0.322 -0.105,0.59 -0.316,0.804s-0.51,0.321 -0.896,0.321s-0.685,-0.107 -0.893,-0.321s-0.312,-0.481 -0.312,-0.804zm2.268,11.98l-2.136,0l0,-9.51l2.136,0l0,9.51z"/>
    <path id="svg_150" fill="#f9f9f9" d="m112.96141,35.8603l0,-7.928l-1.45,0l0,-1.582l1.45,0l0,-0.87c0,-1.055 0.293,-1.869 0.879,-2.443s1.406,-0.861 2.461,-0.861c0.375,0 0.773,0.053 1.195,0.158l-0.053,1.67c-0.234,-0.047 -0.507,-0.07 -0.817,-0.07c-1.02,0 -1.529,0.524 -1.529,1.573l0,0.844l1.934,0l0,1.582l-1.934,0l0,7.928l-2.136,0l0,-0.001z"/>
    <path id="svg_149" fill="#f9f9f9" d="m118.19141,31.0173c0,-0.932 0.185,-1.771 0.554,-2.518s0.888,-1.321 1.556,-1.723s1.436,-0.602 2.303,-0.602c1.283,0 2.325,0.413 3.124,1.239c0.801,0.826 1.232,1.922 1.297,3.287l0.009,0.501c0,0.938 -0.181,1.775 -0.54,2.514c-0.361,0.738 -0.877,1.31 -1.547,1.714c-0.672,0.404 -1.446,0.606 -2.325,0.606c-1.342,0 -2.416,-0.447 -3.222,-1.34c-0.806,-0.895 -1.208,-2.085 -1.208,-3.573l0,-0.105l-0.001,0zm2.135,0.185c0,0.979 0.202,1.744 0.606,2.299c0.404,0.553 0.967,0.83 1.688,0.83s1.281,-0.281 1.683,-0.844s0.603,-1.386 0.603,-2.47c0,-0.961 -0.206,-1.723 -0.62,-2.285c-0.412,-0.563 -0.974,-0.844 -1.683,-0.844c-0.697,0 -1.251,0.277 -1.661,0.831s-0.616,1.381 -0.616,2.483z"/>
    <path id="svg_147" fill="#f9f9f9" d="m138.68741,31.0353c0,-1.465 0.34,-2.641 1.02,-3.529s1.591,-1.332 2.733,-1.332c1.008,0 1.822,0.352 2.443,1.055l0,-4.869l2.136,0l0,13.5l-1.934,0l-0.105,-0.984c-0.639,0.773 -1.491,1.16 -2.558,1.16c-1.113,0 -2.015,-0.448 -2.703,-1.345s-1.032,-2.115 -1.032,-3.656zm2.136,0.184c0,0.967 0.186,1.721 0.559,2.264c0.371,0.541 0.9,0.813 1.586,0.813c0.873,0 1.512,-0.39 1.916,-1.169l0,-4.061c-0.393,-0.762 -1.025,-1.143 -1.898,-1.143c-0.691,0 -1.225,0.274 -1.6,0.822s-0.563,1.373 -0.563,2.474z"/>
   </g>
   <text fill="#f9f9f9" stroke-width="0" stroke-opacity="null" x="-22.35343" y="-50.57663" id="svg_164" font-size="24" font-family="Helvetica, Arial, sans-serif" text-anchor="start" xml:space="preserve" transform="matrix(0.16700015171923535,0,0,0.16442705822825646,65.91021888930919,21.026308952588654) " stroke="null" font-weight="bold">®</text>
  </g>
  <g id="svg_174" stroke="null">
   <g id="svg_169" transform="matrix(0.008457313860806332,0,0,0.00798227340027555,10.001107437431543,39.337594696970775) " stroke="null">
    <path d="m5562.82674,-3384.29623c-20.763,-14.199 -31.517,-40.894 -28.766,-71.41c2.244,-24.938 -4.44,-45.989 -19.329,-60.877c-20.768,-20.767 -53.686,-25.526 -90.315,-13.055c-23.188,7.899 -48.676,3.67 -69.931,-11.605c-22.989,-16.518 -50.105,-25.249 -78.415,-25.249c-63.133,0 -114.175,42.081 -130.09,95.985c-5.585,18.898 -7.225,37.953 -4.872,56.634c3.9,30.982 -3.111,65.008 -22.064,107.081c-5.955,13.207 -8.974,27.103 -8.974,41.3c0,23.673 8.5,46.539 24.583,66.127c15.084,18.365 36.208,33.081 61.084,42.557c27.186,10.367 45.752,23.631 56.761,40.549c25.162,38.677 67.618,61.767 113.572,61.767c46.54,0 89.301,-23.513 114.385,-62.899c12.731,-19.992 27.728,-33.309 44.577,-39.581c53.919,-20.093 97.038,-65.555 97.038,-123.52c0,-40.214 -21.594,-78.048 -59.244,-103.804zm-44.775,208.582c-21.02,7.824 -39.344,23.833 -54.466,47.58c-21.392,33.589 -57.846,53.642 -97.515,53.642c-39.161,0 -75.35,-19.691 -96.808,-52.674c-13.399,-20.592 -35.118,-36.401 -66.402,-48.331c-21.632,-8.24 -39.873,-20.883 -52.751,-36.561c-13.11,-15.967 -20.039,-34.444 -20.039,-53.434c0,-11.344 2.424,-22.474 7.208,-33.083c20.531,-45.575 28.054,-83.006 23.674,-117.797c-2.005,-15.925 -0.59,-32.232 4.209,-48.469c14.194,-48.075 59.802,-81.651 110.909,-81.651c24.097,0 47.177,7.432 66.744,21.491c26.571,19.096 58.666,24.306 88.049,14.295c13.787,-4.693 48.177,-13.284 69.726,8.265c10.562,10.561 15.247,26.102 13.552,44.941c-3.409,37.829 10.569,71.366 37.395,89.711c32.114,21.97 50.534,53.788 50.534,87.297c0,44.63 -32.98,85.759 -84.019,104.778z" id="svg_170" stroke="null" fill="#f9f9f9"/>
    <path d="m5326.07074,-3295.49223c0,5.523 4.477,10 10,10s10,-4.477 10,-10c0,-19.299 15.701,-35 35,-35c5.522,0 10,-4.477 10,-10s-4.478,-10 -10,-10c-30.327,0 -55,24.673 -55,55z" id="svg_171" stroke="null" fill="#f9f9f9"/>
    <circle cx="5454.07074" cy="-3220.49223" r="10" id="svg_172" stroke="null" fill="#f9f9f9"/>
    <path d="m5381.07074,-3410.49223c-63.411,0 -115,51.589 -115,115s51.589,115 115,115c13.135,0 26.021,-2.199 38.301,-6.535c5.207,-1.839 7.938,-7.551 6.1,-12.759c-1.839,-5.207 -7.549,-7.939 -12.76,-6.099c-10.135,3.578 -20.781,5.393 -31.641,5.393c-52.383,0 -95,-42.617 -95,-95s42.617,-95 95,-95s95,42.617 95,95c0,11.742 -2.113,23.198 -6.281,34.05c-1.98,5.156 0.594,10.94 5.75,12.92c5.152,1.98 10.939,-0.594 12.92,-5.75c5.05,-13.149 7.611,-27.017 7.611,-41.22c0,-63.411 -51.589,-115 -115,-115z" id="svg_173" stroke="null" fill="#f9f9f9"/>
   </g>
  </g>
  <defs>
   <style>.cls-1{fill:#fff;}</style>
  </defs>
  <g stroke="null" id="svg_10">
   <path stroke="null" fill="#f9f9f9" id="svg_5" d="m4.92493,4.36968l0,0l0,0z" class="cls-1"/>
   <path stroke="null" fill="#f9f9f9" id="svg_6" d="m4.89261,8.03617l0,0z" class="cls-1"/>
   <path stroke="null" fill="#f9f9f9" id="svg_7" d="m4.87451,9.06535l0,0z" class="cls-1"/>
   <path stroke="null" fill="#f9f9f9" id="svg_8" d="m4.90554,4.37033a0.57136,0.56863 0 0 0 -0.06463,0.00322a0.37035,0.36858 0 0 1 0.05429,-0.00386l0.01034,0.00064z" class="cls-1"/>
   <path stroke="null" fill="#f9f9f9" id="svg_9" d="m15.95629,1.00533a11.44003,11.38539 0 1 0 11.44003,11.38539a11.44003,11.38539 0 0 0 -11.44003,-11.38539zm-6.54474,5.89145c1.75673,-1.02018 4.08093,-1.58173 6.54474,-1.58173s4.78866,0.56155 6.54474,1.58173c1.84397,1.071 2.85936,2.52537 2.85936,4.09488a0.51707,0.5146 0 0 1 -1.03865,0a0.56166,0.55898 0 0 1 0,-0.05725c-0.02585,-1.16813 -0.85639,-2.28351 -2.34489,-3.15189c-1.60096,-0.92948 -3.74031,-1.4415 -6.02379,-1.4415s-4.42283,0.5146 -6.02314,1.4415c-1.48656,0.86517 -2.31968,1.98055 -2.34553,3.15189a0.56166,0.55898 0 0 1 0,0.05725a0.51707,0.5146 0 0 1 -1.03865,0c0.00646,-1.56951 1.02184,-3.02388 2.86583,-4.09488zm15.83831,6.30378a0.4227,0.42068 0 0 1 -0.42269,0.42068l-0.01422,0c-0.15706,0.02895 -0.27728,0.20841 -0.47764,0.55705c-0.23849,0.41424 -0.56554,0.98223 -1.25323,0.98223s-1.01474,-0.56799 -1.25388,-0.98223c-0.21975,-0.38208 -0.3432,-0.56155 -0.52417,-0.56155s-0.30442,0.17947 -0.52417,0.56155c-0.2385,0.41424 -0.56554,0.98223 -1.25324,0.98223s-1.01473,-0.56799 -1.25323,-0.98223c-0.21975,-0.38208 -0.3432,-0.56155 -0.52417,-0.56155s-0.30443,0.17947 -0.52418,0.56155c-0.23849,0.41424 -0.56554,0.98223 -1.25323,0.98223s-1.01474,-0.56799 -1.25323,-0.98223c-0.21975,-0.38208 -0.3432,-0.56155 -0.52418,-0.56155s-0.30442,0.17947 -0.52417,0.56155c-0.2385,0.41424 -0.56554,0.98223 -1.25323,0.98223s-1.01474,-0.56799 -1.25324,-0.98223c-0.21975,-0.38208 -0.3432,-0.56155 -0.52417,-0.56155s-0.30377,0.17947 -0.52352,0.56155c-0.2385,0.41424 -0.56554,0.98223 -1.25324,0.98223s-1.01474,-0.56799 -1.25323,-0.98223c-0.20295,-0.35314 -0.32317,-0.53261 -0.48346,-0.55834l-0.04071,0a0.4227,0.42068 0 0 1 0,-0.84136a0.33415,0.33256 0 0 1 0.04394,0c0.65667,0.0238 0.97596,0.57377 1.20929,0.97966c0.21975,0.38145 0.3432,0.56155 0.52417,0.56155s0.30443,-0.18011 0.52418,-0.56155c0.23849,-0.41489 0.56488,-0.98223 1.25258,-0.98223s1.01474,0.56734 1.25323,0.98223c0.21975,0.38145 0.3432,0.56155 0.52418,0.56155s0.30442,-0.18011 0.52417,-0.56155c0.2385,-0.41489 0.56554,-0.98223 1.25323,-0.98223s1.01474,0.56734 1.25324,0.98223c0.21975,0.38145 0.3432,0.56155 0.52417,0.56155s0.30442,-0.18011 0.52417,-0.56155c0.2385,-0.41489 0.56554,-0.98223 1.25324,-0.98223s1.01473,0.56734 1.25323,0.98223c0.21975,0.38145 0.3432,0.56155 0.52417,0.56155s0.30443,-0.18011 0.52418,-0.56155c0.23849,-0.41489 0.56554,-0.98223 1.25323,-0.98223s1.01474,0.56734 1.25324,0.98223c0.21975,0.38145 0.3432,0.56155 0.52482,0.56155s0.30442,-0.18011 0.52417,-0.56155c0.22816,-0.39688 0.53775,-0.93334 1.16663,-0.97837a0.57135,0.56863 0 0 1 0.06464,-0.00322l0.01938,0a0.4227,0.42068 0 0 1 0.39297,0.42068l0,0.00322zm-0.39749,4.27434l-17.77407,0a0.51707,0.5146 0 0 1 0,-1.02918l17.77407,0a0.51707,0.5146 0 0 1 0,1.02918z"/>
  </g>
 </g>
</svg>