<svg width="30.000000000000004" height="25" xmlns="http://www.w3.org/2000/svg">
 <g>
  <title>background</title>
  <rect x="-1" y="-1" width="32" height="27" id="canvas_background" fill="none"/>
 </g>

 <g>
  <title>Layer 1</title>
  <!-- Created with Method Draw - http://github.com/duopixel/Method-Draw/ -->
  <!-- Created with Method Draw - http://github.com/duopixel/Method-Draw/ -->
  <!-- Created with Method Draw - http://github.com/duopixel/Method-Draw/ -->
  <defs>
   <style>.cls-1{fill:#fff;}</style>
  </defs>
  <g stroke="null" id="svg_10">
   <path stroke="null" fill="#bf0000" id="svg_5" d="m4.59706,4.58826l0,0l0,0z" class="cls-1"/>
   <path stroke="null" fill="#bf0000" id="svg_6" d="m4.56474,8.25474l0,0z" class="cls-1"/>
   <path stroke="null" fill="#bf0000" id="svg_7" d="m4.54664,9.28393l0,0z" class="cls-1"/>
   <path stroke="null" fill="#bf0000" id="svg_8" d="m4.57767,4.58891a0.57136,0.56863 0 0 0 -0.06463,0.00322a0.37035,0.36858 0 0 1 0.05429,-0.00386l0.01034,0.00064z" class="cls-1"/>
   <path stroke="null" fill="#bf0000" id="svg_9" d="m15.62842,1.22391a11.44003,11.38539 0 1 0 11.44004,11.38539a11.44003,11.38539 0 0 0 -11.44004,-11.38539zm-6.54473,5.89145c1.75672,-1.02017 4.08092,-1.58173 6.54473,-1.58173s4.78866,0.56156 6.54474,1.58173c1.84397,1.071 2.85936,2.52537 2.85936,4.09489a0.51707,0.5146 0 0 1 -1.03865,0a0.56166,0.55898 0 0 1 0,-0.05725c-0.02586,-1.16813 -0.85639,-2.28351 -2.34489,-3.15189c-1.60096,-0.92948 -3.74031,-1.4415 -6.02379,-1.4415s-4.42284,0.51459 -6.02314,1.4415c-1.48657,0.86517 -2.31969,1.98055 -2.34554,3.15189a0.56166,0.55898 0 0 1 0,0.05725a0.51707,0.5146 0 0 1 -1.03865,0c0.00646,-1.56952 1.02184,-3.02389 2.86583,-4.09489zm15.8383,6.30378a0.4227,0.42068 0 0 1 -0.42269,0.42068l-0.01422,0c-0.15706,0.02895 -0.27727,0.20841 -0.47764,0.55705c-0.23849,0.41425 -0.56554,0.98224 -1.25323,0.98224s-1.01474,-0.56799 -1.25389,-0.98224c-0.21975,-0.38208 -0.34319,-0.56155 -0.52417,-0.56155s-0.30442,0.17947 -0.52417,0.56155c-0.2385,0.41425 -0.56554,0.98224 -1.25324,0.98224s-1.01473,-0.56799 -1.25323,-0.98224c-0.21975,-0.38208 -0.3432,-0.56155 -0.52417,-0.56155s-0.30443,0.17947 -0.52418,0.56155c-0.23849,0.41425 -0.56554,0.98224 -1.25323,0.98224s-1.01474,-0.56799 -1.25323,-0.98224c-0.21975,-0.38208 -0.3432,-0.56155 -0.52418,-0.56155s-0.30442,0.17947 -0.52417,0.56155c-0.2385,0.41425 -0.56554,0.98224 -1.25323,0.98224s-1.01474,-0.56799 -1.25324,-0.98224c-0.21975,-0.38208 -0.34319,-0.56155 -0.52417,-0.56155s-0.30377,0.17947 -0.52352,0.56155c-0.2385,0.41425 -0.56554,0.98224 -1.25324,0.98224s-1.01474,-0.56799 -1.25323,-0.98224c-0.20295,-0.35314 -0.32317,-0.53261 -0.48346,-0.55833l-0.04071,0a0.4227,0.42068 0 0 1 0,-0.84137a0.33415,0.33256 0 0 1 0.04394,0c0.65667,0.02381 0.97597,0.57378 1.20929,0.97966c0.21975,0.38145 0.3432,0.56156 0.52417,0.56156s0.30443,-0.18011 0.52418,-0.56156c0.23849,-0.41489 0.56488,-0.98223 1.25258,-0.98223s1.01474,0.56734 1.25323,0.98223c0.21976,0.38145 0.34321,0.56156 0.52418,0.56156s0.30442,-0.18011 0.52417,-0.56156c0.2385,-0.41489 0.56554,-0.98223 1.25323,-0.98223s1.01474,0.56734 1.25324,0.98223c0.21975,0.38145 0.3432,0.56156 0.52417,0.56156s0.30442,-0.18011 0.52417,-0.56156c0.2385,-0.41489 0.56554,-0.98223 1.25324,-0.98223s1.01473,0.56734 1.25323,0.98223c0.21975,0.38145 0.34321,0.56156 0.52417,0.56156s0.30443,-0.18011 0.52418,-0.56156c0.23849,-0.41489 0.56554,-0.98223 1.25323,-0.98223s1.01474,0.56734 1.25324,0.98223c0.21975,0.38145 0.3432,0.56156 0.52482,0.56156s0.30442,-0.18011 0.52417,-0.56156c0.22815,-0.39688 0.53775,-0.93334 1.16662,-0.97836a0.57135,0.56863 0 0 1 0.06464,-0.00322l0.01938,0a0.4227,0.42068 0 0 1 0.39297,0.42068l0,0.00321zm-0.39749,4.27435l-17.77406,0a0.51707,0.5146 0 0 1 0,-1.02918l17.77406,0a0.51707,0.5146 0 0 1 0,1.02918z"/>
  </g>
 </g>
</svg>