<svg version="1.1" xmlns="http://www.w3.org/2000/svg" xmlns:xlink="http://www.w3.org/1999/xlink" x="0px" y="0px" viewBox="0 0 1000 1000" enable-background="new 0 0 1000 1000" xml:space="preserve">
<g><path d="M10,499.7c0-134.3,55.5-258.4,143.9-346.1C242.3,65.2,365.7,10.3,500,10.3s257.7,54.8,346.1,143.2C934.5,241.3,990,365.3,990,499.7c0,269.3-220.7,490-490,490C230.7,989.7,10,769.7,10,499.7L10,499.7z M74.4,499.7c0,235.1,190.5,425.6,425.6,425.6c235.1,0,425.6-190.5,425.6-425.6c0-235.8-190.5-426.3-425.6-426.3C264.9,73.4,74.4,263.9,74.4,499.7L74.4,499.7z M434.2,692.2V322.8l225.5,188.5L434.2,692.2z"/></g>
</svg>