<?xml version="1.0" standalone="no"?>
<svg width="75" height="40" viewBox="0 0 75 40" fill="none" xmlns="http://www.w3.org/2000/svg" xmlns:xlink= "http://www.w3.org/1999/xlink">
  <path fill-rule="evenodd" clip-rule="evenodd" d="M74.4281 0H68.7481L68.5618 0.871436C68.127 2.90121 67.7238 5.05884 67.2595 7.05191L66.1127 6.86672C64.1964 6.62948 62.3705 7.11442 60.8191 8.13291L60.0349 8.68051C59.5429 9.04919 59.0222 9.51241 58.5918 9.94062C58.4624 10.0696 58.4118 10.1639 58.2794 10.2941C57.8051 10.7605 57.1648 11.6374 56.8002 12.1842C56.1121 13.2164 55.4438 14.4619 55.0129 15.764C54.6018 17.0069 54.16 18.8371 54.5588 20.3807C54.9067 21.7264 55.7933 22.8168 57.0991 23.2075C58.4163 23.6015 60.6583 23.0689 61.5929 22.6188C62.6307 22.119 63.9588 21.2321 64.5174 20.1763H64.7915C64.7915 20.5023 64.1487 22.6809 64.1256 22.9579H69.7666L72.6817 8.63536C72.8749 7.66875 73.0557 6.73434 73.2624 5.76867L74.4281 0Z" fill="#EA1D2C"></path>
  <path fill-rule="evenodd" clip-rule="evenodd" d="M43.6412 23.3493C46.175 23.3493 48.3959 22.4866 50.3402 20.9991C50.4736 20.8971 50.5935 20.7868 50.726 20.6799C51.3077 20.2104 51.9764 19.4981 52.4386 18.9057C52.936 18.2681 53.4411 17.5059 53.8001 16.7808C54.4094 15.5502 55.0013 13.8383 55.0013 12.3797C55.0013 11.0537 54.8641 10.1835 54.0897 9.13878C53.8121 8.76432 53.3749 8.33439 52.9962 8.07761C52.7 7.87695 52.438 7.70019 52.1162 7.54719C51.1144 7.07084 49.764 6.73828 48.6553 6.73828C46.8682 6.73828 46.0224 6.84673 44.3507 7.44795C44.0058 7.57189 43.2504 7.92461 42.9134 8.1259C40.6221 9.49399 39.0523 11.2548 37.8961 13.8427C37.6631 14.3642 37.5174 14.8481 37.3391 15.4013C37.1642 15.9433 37.0725 16.599 36.9923 17.2092L36.9482 18.2114C37.0626 19.2166 37.1258 19.7767 37.7254 20.6858C38.5893 21.9956 40.1958 22.8325 41.7051 23.1308C42.2934 23.2471 42.9599 23.3493 43.6412 23.3493Z" fill="#EA1D2C"></path>
  <path fill-rule="evenodd" clip-rule="evenodd" d="M25.7769 23.3493C28.3107 23.3493 30.5318 22.4867 32.4759 20.9992C33.2092 20.4383 34.005 19.6358 34.5743 18.9058C35.5264 17.6856 36.2997 16.2954 36.729 14.7923C37.2702 12.8964 37.4557 10.7987 36.2254 9.13883C35.7366 8.47916 34.99 7.89826 34.2521 7.54725C34.0841 7.46739 33.9311 7.40643 33.7571 7.33704L33.2342 7.15481C31.6267 6.63111 29.8157 6.62519 28.15 6.95682C27.1766 7.15076 26.2604 7.48207 25.4115 7.93982L24.7265 8.31255C24.6078 8.38914 24.5167 8.45352 24.398 8.5326C24.165 8.68811 23.9787 8.81437 23.7565 8.98785C22.1351 10.2539 20.9233 11.8476 20.0318 13.8427C19.7988 14.3643 19.6533 14.8481 19.4749 15.4013C19.3001 15.9433 19.2084 16.5991 19.1281 17.2092L19.084 18.2114C19.1984 19.2166 19.2617 19.7768 19.8612 20.6859C20.3113 21.3682 20.8267 21.7962 21.4995 22.2208C22.653 22.9488 24.3732 23.3493 25.7769 23.3493Z" fill="#EA1D2C"></path>
  <path fill-rule="evenodd" clip-rule="evenodd" d="M11.9862 7.05191H9.98831L9.52807 9.45145C9.49102 9.63696 9.41741 10.1482 9.36163 10.2644H11.3203L10.4584 14.5348C10.3982 14.9035 10.3139 15.2406 10.2402 15.6093C10.1629 15.9961 10.1118 16.3311 10.0272 16.6892L9.59995 18.8476C9.35115 20.0944 8.94826 21.9099 8.73962 23.1194L7.87305 27.4242H13.5923C13.5923 27.1562 13.7322 26.6267 13.7849 26.363L17.0004 10.2252H21.1528L21.6326 7.84519C21.6807 7.60249 21.7795 7.30086 21.7795 7.01269H17.588C17.6042 6.81685 17.6682 6.53414 17.6999 6.34114C17.8141 5.64427 17.9653 5.11182 18.2927 4.50499C18.6412 3.85891 19.4057 3.36928 20.4084 3.36928C21.4917 3.36928 22.4305 3.41195 23.4401 3.74562C23.6573 3.8175 23.9698 3.97956 24.169 3.99613L24.8349 0.666081C24.6419 0.573411 24.2753 0.476979 24.0285 0.414769C23.7158 0.336169 23.4661 0.272085 23.1341 0.212398C22.4862 0.0959705 21.8054 0.02 21.1196 0H20.4054C19.2822 0.0339226 18.1714 0.23271 17.1951 0.664827C16.4093 1.01271 15.4258 1.54048 14.8163 2.16435C14.2367 2.75744 13.9852 2.93295 13.4826 3.69044C12.8086 4.70628 12.2824 5.78086 11.9862 7.05191Z" fill="#EA1D2C"></path>
  <path fill-rule="evenodd" clip-rule="evenodd" d="M43.2866 30.3223C43.1833 30.4766 42.8433 30.7646 42.6693 30.9195L42.3468 31.1846C41.5497 31.8058 41.084 32.1347 40.1898 32.6708L39.0006 33.323C38.686 33.4527 38.4855 33.5778 38.1715 33.7082C36.1039 34.5666 34.7854 35.033 32.4583 35.3598L30.2027 35.5334L29.0167 35.4656C27.4183 35.2571 26.6934 35.1899 25.054 34.5315C23.4997 33.9073 21.7677 32.8368 20.5956 31.6642C20.3837 31.4521 20.2004 31.2688 19.9885 31.0569C19.0781 30.1472 18.2973 28.9521 17.7196 27.802C17.4948 27.3547 17.6902 27.4233 17.1582 27.4233C17.1626 27.6187 17.2462 27.9167 17.291 28.1132C17.6314 29.6052 18.2286 31.1264 18.997 32.401C19.2107 32.7553 19.411 33.0887 19.6492 33.4334L20.3925 34.4138C20.718 34.8306 21.6797 35.8642 22.0664 36.1874C23.0494 37.0093 23.3948 37.3069 24.5103 37.9744C26.59 39.2187 29.2338 39.9992 31.9264 39.9992C35.0243 39.9992 36.3193 39.8482 39.2043 39.0507C39.4885 38.9721 39.7862 38.8611 40.0893 38.7603C40.8682 38.501 41.8471 38.0727 42.5424 37.727C42.6754 37.6607 42.7764 37.6026 42.8966 37.5327C43.5792 37.1359 43.9754 36.9534 44.7205 36.4578L45.7468 35.7212C46.0236 35.5345 46.5131 35.0621 46.7339 34.9453L47.5564 37.2959C47.7088 37.6779 47.8298 38.0788 47.9723 38.4863C48.0442 38.6922 48.1131 38.8678 48.1779 39.0641C48.2409 39.2543 48.3625 39.4855 48.3791 39.6858H48.4575C48.4575 39.4383 50.3748 29.922 50.7197 28.1971C50.7557 28.0169 50.831 27.5383 50.8862 27.4233C50.7117 27.4194 50.6111 27.3822 50.3775 27.3836L41.7981 27.384C41.5458 27.384 39.5704 27.3532 39.5695 27.3535C39.4335 27.3898 39.5043 27.4017 39.5626 27.455L42.6378 29.7957C42.764 29.8909 42.8447 29.962 42.9675 30.0538C43.0772 30.1355 43.2165 30.2176 43.2866 30.3222V30.3223Z" fill="#EA1D2C"></path>
  <path fill-rule="evenodd" clip-rule="evenodd" d="M0 22.9588H5.68005L6.06858 20.9967C6.2025 20.3268 6.32909 19.655 6.46022 18.9986L8.03381 11.0521C8.0979 10.7311 8.17103 10.4004 8.22589 10.069L8.81397 7.05273H3.17298L2.58177 9.98739C2.18887 11.9332 0.00609576 22.6834 0 22.9588Z" fill="#EA1D2C"></path>
  <path fill-rule="evenodd" clip-rule="evenodd" d="M3.68359 4.62298H9.20691C9.38133 4.62298 9.46978 3.83797 9.53011 3.53573L10.2254 0H4.66286C4.48908 0.0375138 4.5658 0.0432981 4.48361 0.486668L3.77846 4.01269C3.74236 4.21523 3.68359 4.43138 3.68359 4.62298Z" fill="#EA1D2C"></path>
</svg>
