<?xml version="1.0" encoding="utf-8"?>
<svg version="1.1" id="logo" xmlns="http://www.w3.org/2000/svg" xmlns:xlink="http://www.w3.org/1999/xlink" x="0px" y="0px"
	 viewBox="0 0 122.333 30" enable-background="new 0 0 122.333 30" xml:space="preserve">
<path id="icon" fill="#FFFFFF" d="M23.567,13.354c-4.674-2.776-12.383-3.031-16.845-1.676c-0.717,0.218-1.474-0.187-1.69-0.904
	C4.814,10.058,5.218,9.3,5.935,9.083c5.122-1.555,13.636-1.254,19.017,1.939c0.644,0.383,0.855,1.214,0.474,1.858
	C25.044,13.525,24.212,13.737,23.567,13.354z M23.415,17.466c-0.329,0.532-1.023,0.698-1.555,0.372
	c-3.897-2.395-9.838-3.09-14.449-1.69c-0.597,0.181-1.229-0.156-1.41-0.753c-0.18-0.598,0.157-1.228,0.754-1.41
	c5.266-1.597,11.813-0.824,16.288,1.927C23.575,16.239,23.741,16.936,23.415,17.466z M21.64,21.414
	c-0.26,0.428-0.817,0.562-1.242,0.301c-3.405-2.081-7.691-2.551-12.738-1.398c-0.486,0.111-0.97-0.193-1.081-0.679
	c-0.111-0.487,0.192-0.972,0.679-1.083c5.523-1.263,10.261-0.719,14.083,1.617C21.767,20.431,21.901,20.989,21.64,21.414z
	 M14.991,0.5c-8.008,0-14.5,6.492-14.5,14.5c0,8.009,6.492,14.5,14.5,14.5c8.009,0,14.5-6.491,14.5-14.5
	C29.491,6.992,23,0.5,14.991,0.5z"/>
<g id="text">
	<path id="s" fill="#FFFFFF" d="M43.412,17.048c0-0.563-0.198-0.996-0.593-1.301s-1.109-0.612-2.14-0.923s-1.852-0.656-2.461-1.037
		c-1.166-0.732-1.749-1.688-1.749-2.865c0-1.031,0.42-1.881,1.261-2.549s1.932-1.002,3.274-1.002c0.891,0,1.685,0.164,2.382,0.492
		s1.245,0.795,1.644,1.402s0.598,1.279,0.598,2.017h-2.215c0-0.668-0.209-1.191-0.628-1.569s-1.018-0.567-1.797-0.567
		c-0.727,0-1.291,0.155-1.692,0.466s-0.602,0.744-0.602,1.301c0,0.469,0.217,0.86,0.65,1.173s1.148,0.618,2.145,0.914
		s1.796,0.633,2.399,1.011s1.046,0.812,1.327,1.301s0.422,1.062,0.422,1.718c0,1.066-0.409,1.915-1.226,2.544
		c-0.817,0.631-1.926,0.945-3.327,0.945c-0.926,0-1.777-0.172-2.553-0.514c-0.776-0.344-1.38-0.816-1.811-1.42
		s-0.646-1.307-0.646-2.109h2.224c0,0.727,0.24,1.289,0.721,1.688s1.169,0.598,2.065,0.598c0.773,0,1.355-0.156,1.745-0.471
		C43.217,17.979,43.412,17.563,43.412,17.048z"/>
	<path id="p_1_" fill="#FFFFFF" d="M55.708,15.686c0,1.471-0.334,2.645-1.002,3.52c-0.668,0.877-1.564,1.314-2.689,1.314
		c-1.043,0-1.878-0.343-2.505-1.028V24h-2.136V10.834h1.969l0.088,0.967c0.627-0.762,1.479-1.143,2.558-1.143
		c1.16,0,2.07,0.432,2.729,1.296s0.989,2.064,0.989,3.599V15.686z M53.581,15.501c0-0.949-0.189-1.702-0.567-2.259
		s-0.918-0.835-1.622-0.835c-0.873,0-1.5,0.36-1.881,1.081v4.219c0.387,0.738,1.02,1.107,1.898,1.107
		c0.68,0,1.211-0.273,1.595-0.822C53.389,17.445,53.581,16.614,53.581,15.501z"/>
	<path id="o_2_" fill="#FFFFFF" d="M57.114,15.501c0-0.932,0.185-1.771,0.554-2.518s0.888-1.321,1.556-1.723
		s1.436-0.602,2.303-0.602c1.283,0,2.325,0.413,3.124,1.239c0.801,0.826,1.232,1.922,1.297,3.287l0.009,0.501
		c0,0.938-0.181,1.775-0.54,2.514c-0.361,0.738-0.877,1.31-1.547,1.714c-0.672,0.404-1.446,0.606-2.325,0.606
		c-1.342,0-2.416-0.447-3.221-1.34c-0.806-0.895-1.209-2.085-1.209-3.573V15.501z M59.25,15.686c0,0.979,0.202,1.744,0.606,2.299
		c0.404,0.553,0.967,0.83,1.688,0.83s1.281-0.281,1.683-0.844s0.603-1.386,0.603-2.47c0-0.961-0.206-1.723-0.62-2.285
		c-0.412-0.563-0.974-0.844-1.683-0.844c-0.697,0-1.251,0.277-1.661,0.831S59.25,14.584,59.25,15.686z"/>
	<path id="t" fill="#FFFFFF" d="M70.438,8.522v2.312h1.679v1.582h-1.679v5.309c0,0.363,0.071,0.625,0.216,0.787
		c0.143,0.16,0.399,0.241,0.769,0.241c0.246,0,0.495-0.029,0.747-0.088v1.652c-0.486,0.135-0.955,0.202-1.406,0.202
		c-1.641,0-2.461-0.905-2.461-2.716v-5.388h-1.564v-1.582h1.564V8.522H70.438z"/>
	<path id="i" fill="#FFFFFF" d="M73.751,8.364c0-0.328,0.104-0.601,0.312-0.817s0.506-0.325,0.893-0.325s0.686,0.108,0.896,0.325
		s0.316,0.489,0.316,0.817c0,0.322-0.105,0.59-0.316,0.804s-0.51,0.321-0.896,0.321s-0.685-0.107-0.893-0.321
		S73.751,8.687,73.751,8.364z M76.019,20.344h-2.136v-9.51h2.136V20.344z"/>
	<path id="f" fill="#FFFFFF" d="M79.095,20.344v-7.928h-1.45v-1.582h1.45v-0.87c0-1.055,0.293-1.869,0.879-2.443
		s1.406-0.861,2.461-0.861c0.375,0,0.773,0.053,1.195,0.158l-0.053,1.67c-0.234-0.047-0.507-0.07-0.817-0.07
		c-1.02,0-1.529,0.524-1.529,1.573v0.844h1.934v1.582h-1.934v7.928H79.095z"/>
	<path id="o_1_" fill="#FFFFFF" d="M84.325,15.501c0-0.932,0.185-1.771,0.554-2.518s0.888-1.321,1.556-1.723
		s1.436-0.602,2.303-0.602c1.283,0,2.325,0.413,3.124,1.239c0.801,0.826,1.232,1.922,1.297,3.287l0.009,0.501
		c0,0.938-0.181,1.775-0.54,2.514c-0.361,0.738-0.877,1.31-1.547,1.714c-0.672,0.404-1.446,0.606-2.325,0.606
		c-1.342,0-2.416-0.447-3.222-1.34c-0.806-0.895-1.208-2.085-1.208-3.573V15.501z M86.46,15.686c0,0.979,0.202,1.744,0.606,2.299
		c0.404,0.553,0.967,0.83,1.688,0.83s1.281-0.281,1.683-0.844s0.603-1.386,0.603-2.47c0-0.961-0.206-1.723-0.62-2.285
		c-0.412-0.563-0.974-0.844-1.683-0.844c-0.697,0-1.251,0.277-1.661,0.831S86.46,14.584,86.46,15.686z"/>
	<path id="o" fill="#FFFFFF" d="M94.573,15.501c0-0.932,0.185-1.771,0.554-2.518s0.888-1.321,1.556-1.723s1.436-0.602,2.303-0.602
		c1.283,0,2.325,0.413,3.124,1.239c0.801,0.826,1.232,1.922,1.297,3.287l0.009,0.501c0,0.938-0.181,1.775-0.54,2.514
		c-0.361,0.738-0.877,1.31-1.547,1.714c-0.672,0.404-1.446,0.606-2.325,0.606c-1.342,0-2.416-0.447-3.222-1.34
		c-0.806-0.895-1.208-2.085-1.208-3.573V15.501z M96.708,15.686c0,0.979,0.202,1.744,0.606,2.299c0.404,0.553,0.967,0.83,1.688,0.83
		s1.281-0.281,1.683-0.844s0.603-1.386,0.603-2.47c0-0.961-0.206-1.723-0.62-2.285c-0.412-0.563-0.974-0.844-1.683-0.844
		c-0.697,0-1.251,0.277-1.661,0.831S96.708,14.584,96.708,15.686z"/>
	<path id="d" fill="#FFFFFF" d="M104.821,15.519c0-1.465,0.34-2.641,1.02-3.529s1.591-1.332,2.733-1.332
		c1.008,0,1.822,0.352,2.443,1.055V6.844h2.136v13.5h-1.934l-0.105-0.984c-0.639,0.773-1.491,1.16-2.558,1.16
		c-1.113,0-2.015-0.448-2.703-1.345S104.821,17.06,104.821,15.519z M106.957,15.703c0,0.967,0.186,1.721,0.559,2.264
		c0.371,0.541,0.9,0.813,1.586,0.813c0.873,0,1.512-0.39,1.916-1.169V13.55c-0.393-0.762-1.025-1.143-1.898-1.143
		c-0.691,0-1.225,0.274-1.6,0.822S106.957,14.602,106.957,15.703z"/>
	<path id="dot" fill="#FFFFFF" d="M116.712,18.094c0.398,0,0.706,0.113,0.923,0.338c0.217,0.227,0.325,0.509,0.325,0.849
		c0,0.334-0.108,0.61-0.325,0.831c-0.217,0.219-0.524,0.329-0.923,0.329c-0.381,0-0.683-0.108-0.905-0.325s-0.334-0.495-0.334-0.835
		s0.108-0.622,0.325-0.849C116.015,18.207,116.32,18.094,116.712,18.094z"/>
</g>
</svg>
