<?xml version="1.0" encoding="utf-8"?>
<!-- Generator: Adobe Illustrator 24.3.0, SVG Export Plug-In . SVG Version: 6.00 Build 0)  -->
<svg version="1.1" id="b1679105-0122-4d59-939d-a96e32c04bd3"
	 xmlns="http://www.w3.org/2000/svg" xmlns:xlink="http://www.w3.org/1999/xlink" x="0px" y="0px" viewBox="0 0 610 646.5"
	 style="enable-background:new 0 0 610 646.5;" xml:space="preserve">
<style type="text/css">
	.st0{opacity:0.1;fill:#EA1D2C;}
	.st1{fill:#A0616A;}
	.st2{fill:#2F2E41;}
	.st3{fill:#E6E6E6;}
	.st4{fill:#FFFFFF;}
	.st5{fill:#CCCCCC;}
	.st6{fill:#EA1D2C;}
</style>
<path class="st0" d="M569.7,144.1c16.7,16.6,31.1,38,32.2,61.2c0,0.9,0.1,1.7,0.1,2.6l0,0c0,1.3,0,2.5-0.1,3.7c0,0.3,0,0.6-0.1,0.9
	c-0.2,2.6-0.6,5.2-1.1,7.8c-4,19.1-16.9,35.8-31.6,49c-2.8,2.5-5.6,4.8-8.5,7.1c-2.3,1.8-4.6,3.6-7,5.4l0,0.1
	c-0.4,0.3-0.7,0.6-1.1,0.8l-1.2,0.9c-2.2,1.6-4.4,3.2-6.6,4.8c-2.6,1.9-5.2,3.8-7.8,5.6c-7.4,5.4-14.7,10.9-21.6,17
	c-2.9,2.5-5.7,5.1-8.4,7.8c-8.1,8-15.6,16.6-23,25.2l-3.8,4.5c-3.9,4.6-7.8,9.2-11.6,13.8c-4,4.9-7.8,9.8-11.4,14.9
	c-6.8,9.6-12.7,19.8-16.8,30.8c-3.1,8.4-5.1,17.2-6.7,26.1c-5.1,28.7-5.6,58.9-22.8,81.9c-8.6,11.5-20.6,19.8-32.5,27.7
	c-17.1,11.4-34.8,22.3-53.9,29.6c-5.4,2.1-10.8,3.9-16.4,5.3c-0.1,0-0.3,0.1-0.5,0.1l-0.1,0l-0.2,0l-0.3,0.1
	c-4.2,1-8.4,1.9-12.6,2.5l-3.9,0.6c-6.3,0.8-12.6,1.3-19,1.6l-2,0.1l-1.2,0c-4,0.1-8.1,0.2-12.2,0.2c-6.2,0-12.5-0.1-18.7-0.2
	c-10.6-0.2-21.4-0.4-31.2-4.3c-5.9-2.3-11.2-5.8-15.8-10.1c-1.8-1.7-3.4-3.4-5-5.2c-0.2-0.3-0.5-0.5-0.7-0.8c-2.5-3-4.8-6.1-6.9-9.4
	c-14.7-22.7-23.8-52.6-47.1-66.1c-18-10.4-40.2-8.6-61-9.6c-20.8-1-44.4-7.5-53.1-26.5c-7.4-16.1-1.1-34.9,6.2-51
	c7.4-16.4,15.8-32.3,25.2-47.7c7.1-11.6,16.6-21,24-32.1c9-13.6,12.1-33,17-48.5c5.7-17.9,11.4-35.8,17.1-53.7
	c9.7-30.5,19.6-61.4,36.2-88.8s41.1-51.3,71.7-61c10.5-3.3,21.8-4.9,32.5-2.2c22.2,5.5,37.2,27.7,59.3,33.5
	c19.1,5,38.7-3.3,57.5-8.8C434.8,70.6,516.9,91.5,569.7,144.1z"/>
<ellipse class="st0" cx="305" cy="630.9" rx="305" ry="15.6"/>
<g>
	<path class="st1" d="M344.2,217.3l64.4-64.4c6.7-6.7,17.5-6.7,24.1,0c2,2,3.5,4.6,4.3,7.3v0c1.7,6,0.1,12.4-4.3,16.8l-41.1,41.1
		l57.4,45.8l0,0c0.3,0,0.6,0,0.9,0c9.6,0,17.5,7.8,17.5,17.5c0,9.6-7.8,17.5-17.5,17.5c-9.6,0-17.4-7.8-17.5-17.4L344.2,217.3z"/>
	<polygon class="st1" points="534.4,615.2 553.5,608.1 535.1,531 506.9,541.5 	"/>
	<path class="st2" d="M597,612l-60.1,22.4l0,0l-8.7-23.2l0,0l37.7-14.1c12.4-4.6,26.1,1.7,30.7,14L597,612L597,612z"/>
	<polygon class="st1" points="362.5,609.1 382.9,609.1 392.6,530.4 362.5,530.4 	"/>
	<path class="st2" d="M422.2,628l-64.1,0l0,0l0-24.8l0,0l40.2,0c13.2,0,23.9,10.7,23.9,23.9l0,0L422.2,628L422.2,628z"/>
	<path class="st2" d="M414,240.6c0,0,49.9-8.3,66.5,11.6l70.7,326.9l-39.9,5c0,0-13.3-169.7-79.9-214.6c0,0-48.2,149.7-39.9,217.9
		l-34.9-3.3C356.6,584.2,345.8,297.2,414,240.6z"/>
	<path class="st3" d="M517.7,358.6l5.7-7.5l-0.9-0.7l3.9-5.1c3.8-5,2.8-12.1-2.1-15.9l0,0l0,0l-13.9-10.6c-5-3.8-12.1-2.8-15.9,2.1
		c0,0,0,0,0,0l0,0l-32.8,43c-3.8,5-2.8,12.1,2.1,15.9c0,0,0,0,0,0l0,0l13.9,10.6c5,3.8,12.1,2.8,15.9-2.1l0,0l15.3-20.1l0.9,0.7
		l5.7-7.5l-0.9-0.7l2.1-2.8L517.7,358.6z"/>
	<circle class="st4" cx="506.6" cy="338.2" r="5.9"/>
	<circle class="st1" cx="426.1" cy="71.5" r="39.4"/>
	<path class="st5" d="M387.4,145.8c0,0,36.6-43.3,66.5-8.3l0,0c19.3,22.5,29.5,51.3,28.6,80.9l-1.1,38l-69-10.8L387.4,145.8z"/>
	<path class="st1" d="M439.7,134.7c-9.9,0.1-17.8,8.3-17.7,18.1c0,1,0.1,2,0.3,3l37.8,209.1l-0.2,0.3c-5.6,7.6-3.9,18.3,3.7,23.9
		c1,0.7,2,1.3,3.1,1.8l0,0c7.8,3.4,16.9,0.7,21.6-6.4c4.6-7.2,3.2-16.7-3.4-22.2l-0.2-0.2l-26.9-211.6c-1.1-8.9-8.7-15.7-17.8-15.7
		C439.9,134.7,439.8,134.7,439.7,134.7z"/>
	<path class="st2" d="M432.5,78.4l16.9-20c4.4-5.1,8.9-10.7,9.5-17.5c0.7-7.4-3.8-14.5-9.9-18.7c-6.1-4.1-13.6-5.7-21-6.3
		c-13.7-1.1-28.1,1.2-39.3,9.1s-18.6,22-15.8,35.5c2.2,10.6,10.1,20.7,7,31.1c-3.4,11.3-17.2,14.8-28.6,18.2
		c-19,5.7-37.1,16.8-47.1,34s-9.9,40.8,3.4,55.5c8.6,9.5,21.6,14.4,34.4,15.1s25.6-2.3,37.7-6.4c11.2-3.8,22.3-8.7,31.1-16.6
		c8.8-7.9,15.2-19.2,14.9-31c-0.3-11.3-6.3-21.5-8.8-32.5c-4-18.7,2.4-38.2,16.7-50.9"/>
	<path class="st6" d="M405.6,13.2l10.7-2.1c3.7-0.7,7.3,1.7,8,5.4v0L439,66l0,0L415,70.8l0,0l-14.8-49.5
		C399.5,17.5,401.9,14,405.6,13.2z"/>
	<circle class="st4" cx="429.1" cy="74.7" r="19.4"/>
	<circle class="st6" cx="429.1" cy="74.7" r="10.8"/>
</g>
<g>
	<path id="path2" class="st6" d="M179.3,319.1h14.6l8.1-40.2h-14.6L179.3,319.1z M187.7,275.2h15.1l2.5-14.2h-15.1L187.7,275.2z
		 M199.5,330.4H214l8.9-43.5h10.9l1.6-8.1h-10.7l0.4-1.8c0.6-3.4,1.8-7.3,7.3-7.3c3.2,0,6.3,0.2,9.3,1.6l1.6-8.5
		c-3.4-1.2-7.1-1.8-10.5-1.8c-11.7,0-19.8,6.9-22.8,17.8h-5.1l-1.6,8.1h5.1L199.5,330.4z"/>
	<path id="path4" class="st6" d="M245.6,319.9c17.2,0,29.1-15.6,29.1-28.3c0-9.5-8.7-13.5-17.2-13.5c-18.8,0-29.1,16.8-29.1,28.3
		C228.4,315.8,237.3,319.9,245.6,319.9 M245.6,319.9c17.2,0,29.1-15.6,29.1-28.3c0-9.5-8.7-13.5-17.2-13.5
		c-18.8,0-29.1,16.8-29.1,28.3C228.4,315.8,237.3,319.9,245.6,319.9 M291.7,319.9c17.2,0,29.1-15.6,29.1-28.3
		c0-9.5-8.9-13.5-17.4-13.5c-18.8,0-29.1,16.8-29.1,28.3C274.3,315.8,283.4,319.9,291.7,319.9 M344.5,319.1h14.4l11.7-57.2H356
		l-3.4,17l-6.1-0.6c-14.2,0-27.1,18.2-27.1,31.1c0,5.3,3.4,10.5,9.3,10.5c8.3,0,14.2-4,16.6-8.1h0.8L344.5,319.1z M299.6,349.2
		c-11.3,9.4-25.8,13.9-40.4,12.7c-19.2-1.2-33-16-35.4-31.5h0.8c4.4,9.7,15.2,18.8,28.3,20.2c13.3,1.6,29.3-4.4,38-12.7l-9.7-7.5
		h29.3l-6.5,31.1l-4.2-12.1L299.6,349.2z"/>
	<path class="st6" d="M80.9,279.2H66.6l-11.7,57.2h14.6l3.4-17l6.1,0.6c14.2,0,27.1-18.2,27.1-31.1c0-5.3-3.4-10.5-9.3-10.5
		c-8.3,0-14.2,4-16.6,8.1h-0.8L80.9,279.2z"/>
	<path class="st6" d="M123.2,319.9c17.2,0,29.1-15.6,29.1-28.3c0-9.5-8.7-13.5-17.2-13.5c-18.8,0-29.1,16.8-29.1,28.3
		C106,315.8,114.9,319.9,123.2,319.9"/>
	<path class="st6" d="M166.1,318.8c-3.9,0-6.8-1-8.7-2.9c-1.9-1.9-2.8-4.6-2.8-8c0-1,0.1-1.9,0.2-2.9c0.1-1,0.3-2,0.5-3.2l3.8-17.1
		h-4.5l2.9-13.1h4.5l2.6-11.7h13.3l-2.6,11.7h8.8l-2.9,13.1h-8.8l-3.2,14.5c-0.2,1.3-0.4,2.2-0.4,2.8c0,1.9,1,2.9,3,2.9
		c1.4,0,3.1-0.4,5-1.3l-2.9,13.5c-1.2,0.5-2.5,0.9-3.8,1.2C168.8,318.7,167.5,318.8,166.1,318.8z"/>
	<g>
		<path class="st6" d="M38.9,290.6c5.9,1.1,10.4,2.8,13.4,5c3.5,2.6,5.2,6,5.2,10.3v0.7c0,4.9-2.2,8.9-6.5,11.9
			c-4,2.8-8.9,4.2-14.6,4.2c-6.4,0-11.7-1.3-15.9-3.9c-4.9-3-7.3-7.3-7.3-12.9c0,0,24-2.3,21.9-2.6c-4.9-1.3-8.3-2.2-10.1-2.9
			c-3.4-1.2-5.8-2.7-7.3-4.4c-1.9-2.1-2.8-4.8-2.8-8.2l0.1-2.9c0.6-3.8,2.5-6.8,5.6-9c3.5-2.3,8.3-3.5,14.5-3.5
			c5.9,0,10.6,1,14.2,3.1c4.4,2.5,6.9,6.7,7.7,12.4C56.9,288,46.4,289,38.9,290.6z"/>
	</g>
</g>
</svg>
