<svg version="1" xmlns="http://www.w3.org/2000/svg" width="1706.667" height="1706.667" viewBox="0 0 1280.000000 1280.000000"><path d="M283.6 1.1c-64 8.7-119.4 40.9-157 91.3-23.9 32.1-36.2 61.9-43.4 105.1-1.5 9.2-1.7 44.2-2 434.5-.2 284 .1 428.3.7 436 5.1 56.4 26.4 103.8 64 142.4 37.7 38.6 82.1 61.3 133.4 68.1 18 2.4 56.3 1.7 72.2-1.3 22.6-4.3 45.5-12.3 65-22.6 5.5-2.9 89-54.6 185.5-114.8 96.5-60.3 237.6-148.3 313.5-195.6 179.8-112.1 181.5-113.2 194-122.5 41-30.5 71.1-76.6 82.9-126.7 4.9-20.7 6.1-31.9 6-56.5 0-16.7-.5-25.8-1.7-33.4-10.3-63-45.5-119.3-95.6-153-11.7-7.9-17.8-10.9-24.7-11.9-19.8-3.2-39.9 9.8-45 29-3.8 14.5.7 30.3 11.4 40 2.1 1.9 7.8 6.2 12.8 9.6 21.1 14.4 37.8 33.9 49.8 57.9 16.8 33.9 19 74.1 6 113.1-8.8 26.5-25.3 49.7-46.9 65.9-6.9 5.2-77.1 49.2-289.5 181.5-61.3 38.2-173.1 107.9-248.5 154.9-75.3 46.9-142.1 87.9-148.4 91.1-12.6 6.4-27.9 11.7-41.6 14.4-13.4 2.7-39.5 2.5-53.3-.5-32.2-6.8-55.4-19.2-77.2-41-22.6-22.7-35.5-47.3-41.7-79.4-1.7-8.7-1.8-31.1-1.8-436.2 0-405.2.1-427.5 1.8-436.5 2.7-14.7 6.3-25.3 13.2-39.5 7.8-16.1 16.3-28.2 28.1-40 24.2-24.1 57.7-39.8 93.4-43.5 25.6-2.7 53.1 2.7 78.1 15.2 5.7 2.9 97 59.5 202.9 125.7 105.9 66.3 194.8 121.3 197.5 122.4 16.3 6.3 33.4 2.8 44.6-9 7-7.4 10.2-14.8 10.7-24.9.7-12.7-2.6-21-12.2-31.2-3.8-4.1-13.6-10.7-40.6-27.4-19.5-12.2-106.8-66.7-194-121.2C472.5 59.7 423.1 29.3 412.1 23.8 394.7 15.1 372.9 7.5 354 3.4 342.7 1 339.1.7 316 .5c-14-.2-28.6.1-32.4.6z"/></svg>