<!DOCTYPE svg PUBLIC "-//W3C//DTD SVG 20010904//EN" "http://www.w3.org/TR/2001/REC-SVG-20010904/DTD/svg10.dtd">
<svg version="1.0" xmlns="http://www.w3.org/2000/svg" width="768px" height="768px" viewBox="0 0 7680 7680" preserveAspectRatio="xMidYMid meet">
<g id="layer101" fill="rgb(0, 0, 0, 0.4)" stroke="none">
 <path d="M3540 7654 c-19 -2 -80 -9 -135 -15 -953 -100 -1874 -594 -2495 -1340 -501 -601 -792 -1289 -876 -2073 -21 -190 -20 -585 1 -779 79 -737 356 -1414 817 -1995 126 -159 435 -468 593 -594 604 -480 1309 -762 2074 -829 197 -17 645 -6 831 20 707 100 1335 370 1885 810 158 126 411 374 543 534 492 592 786 1292 867 2067 18 170 21 542 5 710 -72 770 -353 1467 -838 2074 -124 156 -414 445 -567 567 -586 465 -1193 724 -1940 826 -104 14 -679 27 -765 17z m1978 -2041 c68 -42 106 -108 110 -192 3 -57 0 -73 -25 -121 -35 -67 -98 -112 -312 -223 -493 -256 -988 -398 -1596 -459 -192 -19 -765 -16 -975 5 -248 26 -501 64 -739 113 -244 49 -286 67 -335 147 -95 154 18 366 196 367 25 0 99 -11 162 -25 719 -155 1443 -180 2042 -70 409 76 833 231 1164 427 102 61 125 68 198 64 48 -3 74 -11 110 -33z m417 -1007 c135 -63 203 -214 161 -359 -32 -111 -126 -182 -455 -347 -174 -86 -251 -120 -440 -191 -1066 -404 -2360 -469 -3426 -173 -160 45 -190 59 -249 125 -161 179 -45 472 196 495 42 5 92 -5 249 -45 239 -61 407 -93 650 -122 159 -20 235 -23 554 -23 391 -1 500 6 800 50 601 89 1147 270 1610 535 60 35 129 69 155 76 58 16 131 8 195 -21z m511 -1186 c125 -61 197 -179 198 -325 1 -71 -3 -88 -31 -146 -44 -88 -103 -141 -248 -221 -550 -304 -1277 -526 -2060 -628 -953 -123 -1962 -72 -2740 140 -164 45 -215 70 -275 132 -169 177 -109 472 117 575 95 44 163 42 338 -5 270 -74 550 -123 905 -159 250 -25 1015 -25 1275 0 880 87 1582 286 2153 611 94 53 145 67 231 62 57 -4 89 -12 137 -36z"/>
 </g>

</svg>