<svg width="384" height="98" viewBox="0 0 384 98" fill="none" xmlns="http://www.w3.org/2000/svg">
<path d="M38.093 72.5231C51.1495 72.5231 60.2122 60.6955 60.2122 51.0183C60.2122 43.7989 53.6072 40.7267 47.1557 40.7267C32.8704 40.7267 25.0365 53.476 25.0365 62.2315C25.0365 69.451 31.7952 72.5231 38.093 72.5231ZM73.1151 72.5231C86.1716 72.5231 95.2343 60.6955 95.2343 51.0183C95.2343 43.7989 88.4757 40.7267 82.0242 40.7267C67.7389 40.7267 59.905 53.476 59.905 62.2315C59.905 69.451 66.8173 72.5231 73.1151 72.5231Z" fill="#EA1D2C"/>
<path d="M25.8707 13.264C37.5 3.65671 52.4359 -1.03478 67.4876 0.1918C87.2556 1.43677 101.405 16.5839 103.902 32.561L103.07 32.561C98.4922 22.6012 87.4637 13.264 73.9382 11.8115C60.2046 10.1516 43.7659 16.3764 34.8183 24.8837L44.8064 32.561L14.6341 32.561L21.2928 0.60679L25.6626 13.0565L25.8707 13.264Z" fill="#EA1D2C"/>
<path d="M117.439 45.3658V45.3658C118.853 45.3658 120 46.5124 120 47.9268V67.6829C120 69.0973 118.853 70.2439 117.439 70.2439V70.2439V45.3658Z" fill="#EA1D2C"/>
<path d="M99.5122 40.6621C99.5122 38.0065 101.665 35.8537 104.321 35.8537V35.8537C110.96 35.8537 116.341 41.2356 116.341 47.8746V65.906C116.341 72.5449 110.96 77.9269 104.321 77.9269V77.9269C101.665 77.9269 99.5122 75.7741 99.5122 73.1185V40.6621Z" fill="#EA1D2C"/>
<path d="M3.65857 47.8746C3.65857 41.2357 9.04051 35.8537 15.6795 35.8537V35.8537C18.3351 35.8537 20.4878 38.0065 20.4878 40.6621V73.1185C20.4878 75.7741 18.3351 77.9269 15.6795 77.9269V77.9269C9.04052 77.9269 3.65857 72.5449 3.65857 65.906V47.8746Z" fill="#EA1D2C"/>
<path d="M2.56097 69.1463V69.1463C1.14659 69.1463 -1.66893e-06 67.9997 -1.66893e-06 66.5853L-1.66893e-06 46.8292C-1.66893e-06 45.4148 1.14659 44.2683 2.56097 44.2683V44.2683L2.56097 69.1463Z" fill="#EA1D2C"/>
<path d="M139.816 64.064C140.52 64.288 141.256 64.464 142.024 64.592C142.664 64.752 143.384 64.88 144.184 64.976C145.016 65.072 145.848 65.12 146.68 65.12C148.152 65.12 148.888 64.576 148.888 63.488C148.888 63.072 148.664 62.656 148.216 62.24C147.768 61.792 147.192 61.312 146.488 60.8C145.816 60.256 145.08 59.664 144.28 59.024C143.512 58.384 142.776 57.648 142.072 56.816C141.4 55.984 140.84 55.056 140.392 54.032C139.944 52.976 139.72 51.776 139.72 50.432C139.72 48.928 139.992 47.6 140.536 46.448C141.08 45.296 141.832 44.336 142.792 43.568C143.752 42.8 144.872 42.224 146.152 41.84C147.464 41.424 148.856 41.216 150.328 41.216C151.096 41.216 151.864 41.264 152.632 41.36C153.4 41.424 154.088 41.488 154.696 41.552C155.4 41.648 156.088 41.744 156.76 41.84V50.816C156.504 50.784 156.216 50.752 155.896 50.72C155.64 50.688 155.352 50.656 155.032 50.624C154.712 50.592 154.376 50.576 154.024 50.576C153.832 50.576 153.592 50.592 153.304 50.624C153.016 50.624 152.744 50.656 152.488 50.72C152.232 50.784 152.008 50.896 151.816 51.056C151.624 51.216 151.528 51.44 151.528 51.728C151.528 51.984 151.736 52.304 152.152 52.688C152.6 53.072 153.128 53.52 153.736 54.032C154.376 54.544 155.064 55.136 155.8 55.808C156.568 56.48 157.256 57.248 157.864 58.112C158.504 58.976 159.032 59.952 159.448 61.04C159.896 62.128 160.12 63.344 160.12 64.688C160.12 66.096 159.896 67.424 159.448 68.672C159 69.888 158.296 70.96 157.336 71.888C156.408 72.784 155.208 73.488 153.736 74C152.264 74.544 150.52 74.816 148.504 74.816C147.288 74.816 146.152 74.752 145.096 74.624C144.072 74.528 143.16 74.4 142.36 74.24C141.432 74.08 140.584 73.888 139.816 73.664V64.064ZM187.201 54.176C187.201 56.384 186.817 58.272 186.049 59.84C185.281 61.376 184.225 62.624 182.881 63.584C181.569 64.544 180.017 65.248 178.225 65.696C176.465 66.144 174.561 66.368 172.513 66.368V74H162.289V41.984H172.513C174.561 41.984 176.465 42.208 178.225 42.656C180.017 43.104 181.569 43.808 182.881 44.768C184.225 45.728 185.281 46.992 186.049 48.56C186.817 50.096 187.201 51.968 187.201 54.176ZM172.513 57.728H172.945C174.289 57.728 175.249 57.424 175.825 56.816C176.433 56.176 176.737 55.296 176.737 54.176C176.737 53.056 176.433 52.192 175.825 51.584C175.249 50.944 174.289 50.624 172.945 50.624H172.513V57.728ZM188.898 58.016C188.898 55.712 189.33 53.536 190.194 51.488C191.09 49.44 192.29 47.664 193.794 46.16C195.33 44.624 197.122 43.424 199.17 42.56C201.218 41.664 203.394 41.216 205.698 41.216C208.002 41.216 210.178 41.664 212.226 42.56C214.274 43.424 216.05 44.624 217.554 46.16C219.09 47.664 220.29 49.44 221.154 51.488C222.05 53.536 222.498 55.712 222.498 58.016C222.498 60.32 222.05 62.496 221.154 64.544C220.29 66.592 219.09 68.384 217.554 69.92C216.05 71.424 214.274 72.624 212.226 73.52C210.178 74.384 208.002 74.816 205.698 74.816C203.394 74.816 201.218 74.384 199.17 73.52C197.122 72.624 195.33 71.424 193.794 69.92C192.29 68.384 191.09 66.592 190.194 64.544C189.33 62.496 188.898 60.32 188.898 58.016ZM198.978 58.016C198.978 58.944 199.154 59.824 199.506 60.656C199.858 61.456 200.338 62.16 200.946 62.768C201.554 63.376 202.258 63.856 203.058 64.208C203.89 64.56 204.77 64.736 205.698 64.736C206.626 64.736 207.49 64.56 208.29 64.208C209.122 63.856 209.842 63.376 210.45 62.768C211.058 62.16 211.538 61.456 211.89 60.656C212.242 59.824 212.418 58.944 212.418 58.016C212.418 57.088 212.242 56.224 211.89 55.424C211.538 54.592 211.058 53.872 210.45 53.264C209.842 52.656 209.122 52.176 208.29 51.824C207.49 51.472 206.626 51.296 205.698 51.296C204.77 51.296 203.89 51.472 203.058 51.824C202.258 52.176 201.554 52.656 200.946 53.264C200.338 53.872 199.858 54.592 199.506 55.424C199.154 56.224 198.978 57.088 198.978 58.016ZM229.373 50.384H223.469V41.984H245.837V50.384H239.933V74H229.373V50.384ZM247.508 41.984H258.356V74H247.508V41.984ZM261.711 41.984H280.575V50.384H271.935V53.936H280.431V61.904H271.935V74H261.711V41.984ZM267.759 70.16V58.496H276.879V57.344H267.759V46.976H277.359V45.824H266.511V70.16H267.759ZM282.507 58.016C282.507 55.712 282.939 53.536 283.803 51.488C284.699 49.44 285.899 47.664 287.403 46.16C288.939 44.624 290.731 43.424 292.779 42.56C294.827 41.664 297.003 41.216 299.307 41.216C301.611 41.216 303.787 41.664 305.835 42.56C307.883 43.424 309.659 44.624 311.163 46.16C312.699 47.664 313.899 49.44 314.763 51.488C315.659 53.536 316.107 55.712 316.107 58.016C316.107 60.32 315.659 62.496 314.763 64.544C313.899 66.592 312.699 68.384 311.163 69.92C309.659 71.424 307.883 72.624 305.835 73.52C303.787 74.384 301.611 74.816 299.307 74.816C297.003 74.816 294.827 74.384 292.779 73.52C290.731 72.624 288.939 71.424 287.403 69.92C285.899 68.384 284.699 66.592 283.803 64.544C282.939 62.496 282.507 60.32 282.507 58.016ZM287.019 58.016C287.019 59.712 287.339 61.312 287.979 62.816C288.619 64.288 289.499 65.584 290.619 66.704C291.739 67.824 293.035 68.704 294.507 69.344C296.011 69.984 297.611 70.304 299.307 70.304C301.003 70.304 302.587 69.984 304.059 69.344C305.563 68.704 306.875 67.824 307.995 66.704C309.115 65.584 309.995 64.288 310.635 62.816C311.275 61.312 311.595 59.712 311.595 58.016C311.595 56.32 311.275 54.736 310.635 53.264C309.995 51.76 309.115 50.448 307.995 49.328C306.875 48.208 305.563 47.328 304.059 46.688C302.587 46.048 301.003 45.728 299.307 45.728C297.611 45.728 296.011 46.048 294.507 46.688C293.035 47.328 291.739 48.208 290.619 49.328C289.499 50.448 288.619 51.76 287.979 53.264C287.339 54.736 287.019 56.32 287.019 58.016ZM292.587 58.016C292.587 58.944 292.763 59.824 293.115 60.656C293.467 61.456 293.947 62.16 294.555 62.768C295.163 63.376 295.867 63.856 296.667 64.208C297.499 64.56 298.379 64.736 299.307 64.736C300.235 64.736 301.099 64.56 301.899 64.208C302.731 63.856 303.451 63.376 304.059 62.768C304.667 62.16 305.147 61.456 305.499 60.656C305.851 59.824 306.027 58.944 306.027 58.016C306.027 57.088 305.851 56.224 305.499 55.424C305.147 54.592 304.667 53.872 304.059 53.264C303.451 52.656 302.731 52.176 301.899 51.824C301.099 51.472 300.235 51.296 299.307 51.296C298.379 51.296 297.499 51.472 296.667 51.824C295.867 52.176 295.163 52.656 294.555 53.264C293.947 53.872 293.467 54.592 293.115 55.424C292.763 56.224 292.587 57.088 292.587 58.016ZM299.307 69.056C297.771 69.056 296.331 68.768 294.987 68.192C293.675 67.616 292.507 66.832 291.483 65.84C290.491 64.816 289.707 63.648 289.131 62.336C288.555 60.992 288.267 59.552 288.267 58.016C288.267 56.48 288.555 55.056 289.131 53.744C289.707 52.4 290.491 51.232 291.483 50.24C292.507 49.216 293.675 48.416 294.987 47.84C296.331 47.264 297.771 46.976 299.307 46.976C300.843 46.976 302.267 47.264 303.579 47.84C304.923 48.416 306.091 49.216 307.083 50.24C308.107 51.232 308.907 52.4 309.483 53.744C310.059 55.056 310.347 56.48 310.347 58.016C310.347 59.552 310.059 60.992 309.483 62.336C308.907 63.648 308.107 64.816 307.083 65.84C306.091 66.832 304.923 67.616 303.579 68.192C302.267 68.768 300.843 69.056 299.307 69.056ZM318.038 58.016C318.038 55.712 318.47 53.536 319.334 51.488C320.23 49.44 321.43 47.664 322.934 46.16C324.47 44.624 326.262 43.424 328.31 42.56C330.358 41.664 332.534 41.216 334.838 41.216C337.142 41.216 339.318 41.664 341.366 42.56C343.414 43.424 345.19 44.624 346.694 46.16C348.23 47.664 349.43 49.44 350.294 51.488C351.19 53.536 351.638 55.712 351.638 58.016C351.638 60.32 351.19 62.496 350.294 64.544C349.43 66.592 348.23 68.384 346.694 69.92C345.19 71.424 343.414 72.624 341.366 73.52C339.318 74.384 337.142 74.816 334.838 74.816C332.534 74.816 330.358 74.384 328.31 73.52C326.262 72.624 324.47 71.424 322.934 69.92C321.43 68.384 320.23 66.592 319.334 64.544C318.47 62.496 318.038 60.32 318.038 58.016ZM322.55 58.016C322.55 59.712 322.87 61.312 323.51 62.816C324.15 64.288 325.03 65.584 326.15 66.704C327.27 67.824 328.566 68.704 330.038 69.344C331.542 69.984 333.142 70.304 334.838 70.304C336.534 70.304 338.118 69.984 339.59 69.344C341.094 68.704 342.406 67.824 343.526 66.704C344.646 65.584 345.526 64.288 346.166 62.816C346.806 61.312 347.126 59.712 347.126 58.016C347.126 56.32 346.806 54.736 346.166 53.264C345.526 51.76 344.646 50.448 343.526 49.328C342.406 48.208 341.094 47.328 339.59 46.688C338.118 46.048 336.534 45.728 334.838 45.728C333.142 45.728 331.542 46.048 330.038 46.688C328.566 47.328 327.27 48.208 326.15 49.328C325.03 50.448 324.15 51.76 323.51 53.264C322.87 54.736 322.55 56.32 322.55 58.016ZM328.118 58.016C328.118 58.944 328.294 59.824 328.646 60.656C328.998 61.456 329.478 62.16 330.086 62.768C330.694 63.376 331.398 63.856 332.198 64.208C333.03 64.56 333.91 64.736 334.838 64.736C335.766 64.736 336.63 64.56 337.43 64.208C338.262 63.856 338.982 63.376 339.59 62.768C340.198 62.16 340.678 61.456 341.03 60.656C341.382 59.824 341.558 58.944 341.558 58.016C341.558 57.088 341.382 56.224 341.03 55.424C340.678 54.592 340.198 53.872 339.59 53.264C338.982 52.656 338.262 52.176 337.43 51.824C336.63 51.472 335.766 51.296 334.838 51.296C333.91 51.296 333.03 51.472 332.198 51.824C331.398 52.176 330.694 52.656 330.086 53.264C329.478 53.872 328.998 54.592 328.646 55.424C328.294 56.224 328.118 57.088 328.118 58.016ZM334.838 69.056C333.302 69.056 331.862 68.768 330.518 68.192C329.206 67.616 328.038 66.832 327.014 65.84C326.022 64.816 325.238 63.648 324.662 62.336C324.086 60.992 323.798 59.552 323.798 58.016C323.798 56.48 324.086 55.056 324.662 53.744C325.238 52.4 326.022 51.232 327.014 50.24C328.038 49.216 329.206 48.416 330.518 47.84C331.862 47.264 333.302 46.976 334.838 46.976C336.374 46.976 337.798 47.264 339.11 47.84C340.454 48.416 341.622 49.216 342.614 50.24C343.638 51.232 344.438 52.4 345.014 53.744C345.59 55.056 345.878 56.48 345.878 58.016C345.878 59.552 345.59 60.992 345.014 62.336C344.438 63.648 343.638 64.816 342.614 65.84C341.622 66.832 340.454 67.616 339.11 68.192C337.798 68.768 336.374 69.056 334.838 69.056ZM354.289 74V41.984H363.169C366.177 41.984 368.849 42.32 371.185 42.992C373.553 43.664 375.537 44.672 377.137 46.016C378.769 47.36 380.001 49.04 380.833 51.056C381.697 53.04 382.129 55.344 382.129 57.968C382.129 60.592 381.697 62.912 380.833 64.928C380.001 66.912 378.769 68.576 377.137 69.92C375.537 71.264 373.553 72.288 371.185 72.992C368.849 73.664 366.177 74 363.169 74H354.289ZM360.337 69.008V46.976H363.169C367.233 46.976 370.385 47.904 372.625 49.76C374.897 51.584 376.033 54.32 376.033 57.968C376.033 61.616 374.897 64.368 372.625 66.224C370.385 68.08 367.233 69.008 363.169 69.008H360.337ZM359.089 70.16H363.169C367.841 70.16 371.361 69.104 373.729 66.992C376.129 64.848 377.329 61.84 377.329 57.968C377.329 54.096 376.129 51.104 373.729 48.992C371.361 46.88 367.841 45.824 363.169 45.824H359.089V70.16ZM364.513 64.88C366.913 64.88 368.769 64.32 370.081 63.2C371.393 62.048 372.049 60.304 372.049 57.968C372.049 55.632 371.393 53.904 370.081 52.784C368.769 51.664 366.913 51.104 364.513 51.104V64.88Z" fill="#EA1D2C"/>
</svg>
