<svg width="32" height="32" viewBox="0 0 32 32" fill="none" xmlns="http://www.w3.org/2000/svg">
<path d="M31.6969 30.2591L23.435 22.1292C25.5985 19.7786 26.9278 16.6699 26.9278 13.2491C26.9268 5.93135 20.8994 0 13.4636 0C6.02789 0 0.000488281 5.93135 0.000488281 13.2491C0.000488281 20.5668 6.02789 26.4982 13.4636 26.4982C16.6764 26.4982 19.6231 25.3869 21.9376 23.5395L30.2316 31.7014C30.6357 32.0995 31.2918 32.0995 31.6959 31.7014C32.101 31.3033 32.101 30.6572 31.6969 30.2591ZM13.4636 24.4597C7.17219 24.4597 2.07198 19.4406 2.07198 13.2491C2.07198 7.05761 7.17219 2.03845 13.4636 2.03845C19.7551 2.03845 24.8553 7.05761 24.8553 13.2491C24.8553 19.4406 19.7551 24.4597 13.4636 24.4597Z" fill="#B1B1B1"/>
</svg>
