<svg width="328" height="286" viewBox="0 0 328 286" fill="none" xmlns="http://www.w3.org/2000/svg">
<path d="M104.121 198.23C139.809 198.23 164.58 165.901 164.58 139.45C164.58 119.717 146.526 111.32 128.892 111.32C89.8458 111.32 68.4332 146.168 68.4332 170.1C68.4332 189.833 86.9068 198.23 104.121 198.23ZM199.848 198.23C235.536 198.23 260.307 165.901 260.307 139.45C260.307 119.717 241.834 111.32 224.2 111.32C185.153 111.32 163.74 146.168 163.74 170.1C163.74 189.833 182.634 198.23 199.848 198.23Z" fill="white"/>
<path d="M70.7132 36.2549C102.5 9.99502 143.325 -2.82839 184.466 0.52426C238.499 3.92718 277.175 45.3293 284 89L281.725 89C269.212 61.7767 239.068 36.2549 202.098 32.2848C164.559 27.7476 119.627 44.7621 95.1701 68.0153L122.471 89L39.9999 89L58.2004 1.65856L70.1444 35.6877L70.7132 36.2549Z" fill="white"/>
<path d="M321 124V124C324.866 124 328 127.134 328 131V185C328 188.866 324.866 192 321 192V192V124Z" fill="white"/>
<path d="M272 110C272 103.373 277.373 98 284 98H288C304.569 98 318 111.431 318 128V183C318 199.569 304.569 213 288 213H284C277.373 213 272 207.627 272 201V110Z" fill="white"/>
<path d="M10 128C10 111.431 23.4315 98 40 98H44C50.6274 98 56 103.373 56 110V201C56 207.627 50.6274 213 44 213H40C23.4315 213 10 199.569 10 183V128Z" fill="white"/>
<path d="M7 189V189C3.13401 189 0 185.866 0 182L0 128C0 124.134 3.13401 121 7 121V121L7 189Z" fill="white"/>
</svg>
